DrVivigraph-Regular.ufo
<glyph name="exclam" format="2">
  <advance width="518"/>
  <unicode hex="0021"/>
  <outline>
    <contour>
      <point x="258.333" y="372" type="curve"/>
      <point x="310.981" y="635.462"/>
      <point x="365.388" y="898.569"/>
      <point x="418.191" y="1162" type="curve" smooth="yes"/>
      <point x="432.671" y="1234.24"/>
      <point x="465.48" y="1368.14"/>
      <point x="465.48" y="1435.93" type="curve" smooth="yes"/>
      <point x="465.48" y="1452.13"/>
      <point x="459.493" y="1471"/>
      <point x="439.935" y="1471" type="curve" smooth="yes"/>
      <point x="425.733" y="1471"/>
      <point x="373.48" y="1429.38"/>
      <point x="359.544" y="1419" type="curve"/>
      <point x="362.342" y="1433" type="line"/>
      <point x="417.78" y="1471.93"/>
      <point x="620.525" y="1613"/>
      <point x="677.309" y="1613" type="curve" smooth="yes"/>
      <point x="704.016" y="1613"/>
      <point x="709.377" y="1588.74"/>
      <point x="709.377" y="1567.24" type="curve" smooth="yes"/>
      <point x="709.377" y="1541.57"/>
      <point x="703.546" y="1512.13"/>
      <point x="697.132" y="1487" type="curve" smooth="yes"/>
      <point x="439.114" y="476" type="line"/>
      <point x="412.082" y="439.211"/>
      <point x="303.081" y="412.615"/>
    </contour>
    <contour>
      <point x="457.379" y="117" type="line"/>
      <point x="211.206" y="-34" type="line"/>
      <point x="135.173" y="151" type="line"/>
      <point x="376.946" y="300" type="line"/>
    </contour>
  </outline>
</glyph>
<glyph name="quotedbl" format="2">
  <advance width="765"/>
  <unicode hex="0022"/>
  <outline>
    <contour>
      <point x="740.005" y="1081" type="curve"/>
      <point x="750.032" y="1163.24"/>
      <point x="760.124" y="1245.75"/>
      <point x="760.124" y="1328.74" type="curve" smooth="yes"/>
      <point x="760.124" y="1357.34"/>
      <point x="760.671" y="1476.3"/>
      <point x="712.335" y="1473" type="curve"/>
      <point x="773.357" y="1532.49"/>
      <point x="886.158" y="1613"/>
      <point x="974.309" y="1613" type="curve" smooth="yes"/>
      <point x="1001.08" y="1613"/>
      <point x="1006.45" y="1588.31"/>
      <point x="1006.45" y="1566.85" type="curve" smooth="yes"/>
      <point x="1006.45" y="1551.42"/>
      <point x="1003.95" y="1536.08"/>
      <point x="1000.93" y="1521" type="curve" smooth="yes"/>
      <point x="963.956" y="1336.42"/>
      <point x="863.123" y="1216.05"/>
    </contour>
    <contour>
      <point x="408.005" y="1081" type="curve"/>
      <point x="421.635" y="1162.33"/>
      <point x="430.275" y="1246.86"/>
      <point x="430.275" y="1329.3" type="curve" smooth="yes"/>
      <point x="430.275" y="1357.92"/>
      <point x="430.637" y="1476.29"/>
      <point x="382.334" y="1473" type="curve"/>
      <point x="442.737" y="1531.88"/>
      <point x="556.089" y="1613"/>
      <point x="643.309" y="1613" type="curve" smooth="yes"/>
      <point x="670.025" y="1613"/>
      <point x="674.856" y="1586.07"/>
      <point x="674.856" y="1565.19" type="curve" smooth="yes"/>
      <point x="674.856" y="1549.32"/>
      <point x="672.409" y="1533.52"/>
      <point x="669.326" y="1518" type="curve" smooth="yes"/>
      <point x="631.951" y="1329.85"/>
      <point x="533.922" y="1217.47"/>
    </contour>
  </outline>
</glyph>
<glyph name="numbersign" format="2">
  <advance width="1295"/>
  <unicode hex="0023"/>
  <outline>
    <contour>
      <point x="1344.85" y="830" type="line"/>
      <point x="1273.51" y="808.903"/>
      <point x="1169.76" y="679"/>
      <point x="1102.68" y="679" type="curve" smooth="yes"/>
      <point x="1028.68" y="679" type="line"/>
      <point x="932.917" y="460" type="line"/>
      <point x="1207.92" y="460" type="line"/>
      <point x="1144.01" y="446.782"/>
      <point x="1026.66" y="309"/>
      <point x="961.744" y="309" type="curve" smooth="yes"/>
      <point x="864.744" y="309" type="line"/>
      <point x="829.789" y="227.039"/>
      <point x="805.171" y="133.654"/>
      <point x="752.189" y="61" type="curve" smooth="yes"/>
      <point x="703.747" y="-5.42777"/>
      <point x="546.818" y="-39.3244"/>
      <point x="507.416" y="-88" type="curve"/>
      <point x="686.744" y="309" type="line"/>
      <point x="582.744" y="309" type="line"/>
      <point x="549.847" y="227.046"/>
      <point x="522.989" y="132.722"/>
      <point x="470.189" y="61" type="curve" smooth="yes"/>
      <point x="443.107" y="24.2126"/>
      <point x="374.524" y="-5.57923"/>
      <point x="333.004" y="-25" type="curve" smooth="yes"/>
      <point x="302.172" y="-39.4219"/>
      <point x="245" y="-63.1155"/>
      <point x="223.416" y="-88" type="curve"/>
      <point x="406.745" y="309" type="line"/>
      <point x="187.745" y="309" type="line"/>
      <point x="292.849" y="337.497"/>
      <point x="325.875" y="460.027"/>
      <point x="472.918" y="460" type="curve"/>
      <point x="565.678" y="679" type="line"/>
      <point x="331.678" y="679" type="line"/>
      <point x="407.058" y="703.546"/>
      <point x="503.024" y="830"/>
      <point x="573.851" y="830" type="curve" smooth="yes"/>
      <point x="627.851" y="830" type="line"/>
      <point x="653.562" y="901.405"/>
      <point x="673.629" y="993.37"/>
      <point x="716.01" y="1056" type="curve" smooth="yes"/>
      <point x="741.227" y="1093.26"/>
      <point x="809.19" y="1124.17"/>
      <point x="850.195" y="1142" type="curve" smooth="yes"/>
      <point x="887.58" y="1158.25"/>
      <point x="930.19" y="1176.32"/>
      <point x="959.783" y="1205" type="curve"/>
      <point x="810.851" y="830" type="line"/>
      <point x="907.851" y="830" type="line"/>
      <point x="935.359" y="903.86"/>
      <point x="958.15" y="988.949"/>
      <point x="1000.01" y="1056" type="curve" smooth="yes"/>
      <point x="1022.81" y="1092.52"/>
      <point x="1095.81" y="1124.48"/>
      <point x="1135.19" y="1142" type="curve" smooth="yes"/>
      <point x="1168.21" y="1156.69"/>
      <point x="1221.07" y="1178.13"/>
      <point x="1244.78" y="1205" type="curve"/>
      <point x="1090.85" y="830" type="line"/>
    </contour>
    <contour>
      <point x="847.678" y="679" type="line"/>
      <point x="746.678" y="679" type="line"/>
      <point x="650.917" y="460" type="line"/>
      <point x="752.917" y="460" type="line"/>
    </contour>
  </outline>
</glyph>
<glyph name="dollar" format="2">
  <advance width="1044"/>
  <unicode hex="0024"/>
  <outline>
    <contour>
      <point x="884.843" y="980" type="curve"/>
      <point x="950.79" y="1039.73"/>
      <point x="1177" y="1107.99"/>
      <point x="1177" y="1205.74" type="curve" smooth="yes"/>
      <point x="1177" y="1288.64"/>
      <point x="953.327" y="1306.65"/>
      <point x="893.201" y="1306.65" type="curve" smooth="yes"/>
      <point x="676.315" y="1306.65"/>
      <point x="391.449" y="1033.69"/>
      <point x="351.949" y="827.223" type="curve" smooth="yes"/>
      <point x="349.491" y="814.377"/>
      <point x="347.988" y="801.342"/>
      <point x="347.988" y="788.25" type="curve" smooth="yes"/>
      <point x="347.988" y="555.169"/>
      <point x="817.547" y="631.905"/>
      <point x="817.547" y="436.44" type="curve" smooth="yes"/>
      <point x="817.547" y="334.833"/>
      <point x="729.49" y="305"/>
      <point x="643.477" y="305" type="curve" smooth="yes"/>
      <point x="583.805" y="305"/>
      <point x="430.838" y="320.884"/>
      <point x="430.838" y="402.55" type="curve" smooth="yes"/>
      <point x="430.838" y="431.896"/>
      <point x="451.803" y="456.575"/>
      <point x="475.315" y="472" type="curve"/>
      <point x="408.432" y="424.318"/>
      <point x="191.117" y="344.705"/>
      <point x="191.117" y="254.053" type="curve" smooth="yes"/>
      <point x="191.117" y="157.239"/>
      <point x="410.91" y="151.101"/>
      <point x="478.334" y="151.101" type="curve" smooth="yes"/>
      <point x="659.402" y="151.101"/>
      <point x="1056.17" y="381.394"/>
      <point x="1056.17" y="584.273" type="curve" smooth="yes"/>
      <point x="1056.17" y="816.972"/>
      <point x="551.751" y="712.421"/>
      <point x="551.751" y="980.494" type="curve" smooth="yes"/>
      <point x="551.751" y="1093.22"/>
      <point x="618.757" y="1158"/>
      <point x="729.846" y="1158" type="curve" smooth="yes"/>
      <point x="782.519" y="1158"/>
      <point x="930.254" y="1124.93"/>
      <point x="930.254" y="1057.1" type="curve" smooth="yes"/>
      <point x="930.254" y="1028.59"/>
      <point x="904.26" y="998.579"/>
    </contour>
    <contour>
      <point x="895.073" y="1292" type="line"/>
      <point x="952.937" y="1571" type="line"/>
      <point x="922.01" y="1547.33"/>
      <point x="886.273" y="1531.15"/>
      <point x="851.547" y="1514" type="curve" smooth="yes"/>
      <point x="826.444" y="1501.6"/>
      <point x="801.226" y="1489.35"/>
      <point x="776.505" y="1476.2" type="curve" smooth="yes"/>
      <point x="720.72" y="1446.51"/>
      <point x="702.926" y="1433.04"/>
      <point x="691.7" y="1369.98" type="curve" smooth="yes"/>
      <point x="682.064" y="1315.85"/>
      <point x="674.772" y="1261.72"/>
      <point x="663.13" y="1207.88" type="curve"/>
    </contour>
    <contour>
      <point x="461.574" y="151" type="line"/>
      <point x="474.173" y="151" type="line"/>
      <point x="419.82" y="-111" type="line"/>
      <point x="457.295" y="-79.8173"/>
      <point x="501.271" y="-64.0237"/>
      <point x="544.408" y="-43" type="curve" smooth="yes"/>
      <point x="587.253" y="-22.1183"/>
      <point x="625.493" y="9.69489"/>
      <point x="663.593" y="38" type="curve"/>
      <point x="703.557" y="238" type="line"/>
    </contour>
  </outline>
</glyph>
<glyph name="percent" format="2">
  <advance width="1554"/>
  <unicode hex="0025"/>
  <outline>
    <contour>
      <point x="1231" y="-20" type="curve" smooth="yes"/>
      <point x="1044.57" y="-20"/>
      <point x="958.656" y="114.798"/>
      <point x="958.656" y="288.039" type="curve" smooth="yes"/>
      <point x="958.656" y="566.833"/>
      <point x="1141.88" y="731.913"/>
      <point x="1363.04" y="866" type="curve" smooth="yes"/>
      <point x="1446.92" y="916.856"/>
      <point x="1548.35" y="977"/>
      <point x="1649.22" y="977" type="curve" smooth="yes"/>
      <point x="1817.34" y="977"/>
      <point x="1913.98" y="836.622"/>
      <point x="1913.98" y="679.232" type="curve" smooth="yes"/>
      <point x="1913.98" y="387.804"/>
      <point x="1524.94" y="-20"/>
    </contour>
    <contour>
      <point x="1629.27" y="1803" type="curve"/>
      <point x="1484.89" y="1438.6"/>
      <point x="1262.84" y="1111.61"/>
      <point x="1029.66" y="799" type="curve" smooth="yes"/>
      <point x="859.308" y="570.627"/>
      <point x="486.148" y="79.6421"/>
      <point x="266.613" y="-72" type="curve" smooth="yes"/>
      <point x="191.184" y="-124.102"/>
      <point x="106.542" y="-160.047"/>
      <point x="32.2385" y="-214" type="curve"/>
      <point x="510.357" y="250.307"/>
      <point x="1117.32" y="993.59"/>
      <point x="1367.91" y="1611" type="curve" smooth="yes"/>
      <point x="1371.99" y="1621.04"/>
      <point x="1378.48" y="1647.23"/>
      <point x="1385.5" y="1654" type="curve" smooth="yes"/>
      <point x="1456.03" y="1722.01"/>
      <point x="1548.86" y="1749.92"/>
    </contour>
    <contour>
      <point x="276.09" y="611" type="curve" smooth="yes"/>
      <point x="90.2482" y="611"/>
      <point x="3.76189" y="748.329"/>
      <point x="3.76189" y="920.612" type="curve" smooth="yes"/>
      <point x="3.76189" y="1199.11"/>
      <point x="191.164" y="1364.37"/>
      <point x="411.33" y="1498" type="curve" smooth="yes"/>
      <point x="494.872" y="1548.71"/>
      <point x="593.833" y="1609"/>
      <point x="694.51" y="1609" type="curve" smooth="yes"/>
      <point x="861.211" y="1609"/>
      <point x="961.833" y="1469.25"/>
      <point x="961.833" y="1312.05" type="curve" smooth="yes"/>
      <point x="961.833" y="1020.4"/>
      <point x="570.98" y="611"/>
    </contour>
    <contour>
      <point x="1380.85" y="830" type="curve" smooth="yes"/>
      <point x="1370.7" y="830"/>
      <point x="1360.6" y="828.333"/>
      <point x="1350.45" y="828" type="curve"/>
      <point x="1261.79" y="725.651"/>
      <point x="1202.26" y="578.338"/>
      <point x="1202.26" y="442.36" type="curve" smooth="yes"/>
      <point x="1202.26" y="277.603"/>
      <point x="1286.43" y="126"/>
      <point x="1468.18" y="126" type="curve" smooth="yes"/>
      <point x="1482.54" y="126"/>
      <point x="1497.06" y="128.675"/>
      <point x="1511.18" y="131" type="curve"/>
      <point x="1603.45" y="224.32"/>
      <point x="1672.51" y="395.246"/>
      <point x="1672.51" y="526.343" type="curve" smooth="yes"/>
      <point x="1672.51" y="702.902"/>
      <point x="1561.73" y="830"/>
    </contour>
    <contour>
      <point x="430.737" y="1460" type="curve" smooth="yes"/>
      <point x="419.677" y="1460"/>
      <point x="408.932" y="1459.72"/>
      <point x="398.137" y="1457" type="curve"/>
      <point x="306.099" y="1357.8"/>
      <point x="245.81" y="1212.38"/>
      <point x="245.81" y="1076.63" type="curve" smooth="yes"/>
      <point x="245.81" y="910.834"/>
      <point x="332.156" y="756"/>
      <point x="515.064" y="756" type="curve" smooth="yes"/>
      <point x="529.698" y="756"/>
      <point x="544.423" y="757.767"/>
      <point x="558.863" y="760" type="curve"/>
      <point x="650.955" y="857.038"/>
      <point x="717.299" y="1024.18"/>
      <point x="717.299" y="1158.02" type="curve" smooth="yes"/>
      <point x="717.299" y="1333.62"/>
      <point x="611.925" y="1460"/>
    </contour>
  </outline>
</glyph>
<glyph name="ampersand" format="2">
  <advance width="1678"/>
  <unicode hex="0026"/>
  <outline>
    <contour>
      <point x="2274.38" y="1243" type="curve"/>
      <point x="2228.76" y="1224.1"/>
      <point x="2193.74" y="1190.29"/>
      <point x="2154.19" y="1162" type="curve" smooth="yes"/>
      <point x="2067.75" y="1100.16"/>
      <point x="1989.47" y="1076.47"/>
      <point x="1883.88" y="1076.47" type="curve" smooth="yes"/>
      <point x="1848.89" y="1076.47"/>
      <point x="1813.9" y="1078.65"/>
      <point x="1779.01" y="1081" type="curve"/>
      <point x="1758.07" y="832.562"/>
      <point x="1538.58" y="589.11"/>
      <point x="1351.32" y="442" type="curve"/>
      <point x="1441.04" y="329.486"/>
      <point x="1579.28" y="140"/>
      <point x="1737.97" y="140" type="curve" smooth="yes"/>
      <point x="1815.24" y="140"/>
      <point x="1892.79" y="154.72"/>
      <point x="1961.97" y="190" type="curve"/>
      <point x="1827.48" y="94.853"/>
      <point x="1670.56" y="-14"/>
      <point x="1499.2" y="-14" type="curve" smooth="yes"/>
      <point x="1331.44" y="-14"/>
      <point x="1214.06" y="168.504"/>
      <point x="1116.35" y="282" type="curve"/>
      <point x="875.052" y="126.4"/>
      <point x="581.714" y="-25"/>
      <point x="288.005" y="-25" type="curve" smooth="yes"/>
      <point x="98.6213" y="-25"/>
      <point x="-170.01" y="50.0882"/>
      <point x="-170.01" y="283.021" type="curve" smooth="yes"/>
      <point x="-170.01" y="558.27"/>
      <point x="163.414" y="728.743"/>
      <point x="374.249" y="837" type="curve"/>
      <point x="277.062" y="861.768"/>
      <point x="190.414" y="927.87"/>
      <point x="190.414" y="1036.36" type="curve" smooth="yes"/>
      <point x="190.414" y="1285.77"/>
      <point x="674.911" y="1620"/>
      <point x="905.708" y="1620" type="curve" smooth="yes"/>
      <point x="1046.76" y="1620"/>
      <point x="1175.62" y="1541.15"/>
      <point x="1175.62" y="1387.79" type="curve" smooth="yes"/>
      <point x="1175.62" y="1181.32"/>
      <point x="965.229" y="1024.61"/>
      <point x="802.632" y="934" type="curve"/>
      <point x="1012.83" y="839.283"/>
      <point x="1161.79" y="656.291"/>
      <point x="1310.31" y="487" type="curve"/>
      <point x="1437.6" y="629.217"/>
      <point x="1540.36" y="808.936"/>
      <point x="1540.36" y="1004.68" type="curve" smooth="yes"/>
      <point x="1540.36" y="1039.38"/>
      <point x="1537.03" y="1074.13"/>
      <point x="1529.4" y="1108" type="curve"/>
      <point x="1487.62" y="1113.99"/>
      <point x="1445.41" y="1117"/>
      <point x="1403.2" y="1117" type="curve" smooth="yes"/>
      <point x="1324.16" y="1117"/>
      <point x="1244.18" y="1106.32"/>
      <point x="1172.21" y="1072" type="curve"/>
      <point x="1326.51" y="1179.09"/>
      <point x="1443.29" y="1266"/>
      <point x="1639.97" y="1266" type="curve" smooth="yes"/>
      <point x="1795.71" y="1266"/>
      <point x="1948.44" y="1227"/>
      <point x="2104.18" y="1227" type="curve" smooth="yes"/>
      <point x="2161.25" y="1227"/>
      <point x="2218.32" y="1232.23"/>
    </contour>
    <contour>
      <point x="672.935" y="1471" type="curve" smooth="yes"/>
      <point x="640.923" y="1471"/>
      <point x="609.085" y="1466.1"/>
      <point x="577.737" y="1460" type="curve"/>
      <point x="500.259" y="1385.81"/>
      <point x="431.868" y="1290.55"/>
      <point x="431.868" y="1178.82" type="curve" smooth="yes"/>
      <point x="431.868" y="1007.74"/>
      <point x="630.353" y="987.699"/>
      <point x="756.228" y="952" type="curve"/>
      <point x="867.787" y="973.181"/>
      <point x="924.984" y="1144.87"/>
      <point x="924.984" y="1244.12" type="curve" smooth="yes"/>
      <point x="924.984" y="1394.94"/>
      <point x="815.214" y="1471"/>
    </contour>
    <contour>
      <point x="1105.15" y="296" type="curve"/>
      <point x="929.727" y="495.265"/>
      <point x="767.32" y="713.606"/>
      <point x="505.455" y="803" type="curve"/>
      <point x="295.86" y="759.94"/>
      <point x="80.0391" y="716.027"/>
      <point x="80.0391" y="452.431" type="curve" smooth="yes"/>
      <point x="80.0391" y="216.477"/>
      <point x="312.195" y="126"/>
      <point x="514.177" y="126" type="curve" smooth="yes"/>
      <point x="702.411" y="126"/>
      <point x="950.005" y="187.858"/>
    </contour>
  </outline>
</glyph>
<glyph name="quotesingle" format="2">
  <advance width="469"/>
  <unicode hex="0027"/>
  <outline>
    <contour>
      <point x="425.005" y="1081" type="curve"/>
      <point x="438.635" y="1162.33"/>
      <point x="447.275" y="1246.86"/>
      <point x="447.275" y="1329.3" type="curve" smooth="yes"/>
      <point x="447.275" y="1357.92"/>
      <point x="447.637" y="1476.29"/>
      <point x="399.335" y="1473" type="curve"/>
      <point x="459.737" y="1531.88"/>
      <point x="573.089" y="1613"/>
      <point x="660.309" y="1613" type="curve" smooth="yes"/>
      <point x="687.025" y="1613"/>
      <point x="691.856" y="1586.07"/>
      <point x="691.856" y="1565.19" type="curve" smooth="yes"/>
      <point x="691.856" y="1549.32"/>
      <point x="689.409" y="1533.52"/>
      <point x="686.326" y="1518" type="curve" smooth="yes"/>
      <point x="648.951" y="1329.85"/>
      <point x="550.922" y="1217.47"/>
    </contour>
  </outline>
</glyph>
<glyph name="parenleft" format="2">
  <advance width="722"/>
  <unicode hex="0028"/>
  <outline>
    <contour>
      <point x="1284.06" y="1877" type="curve"/>
      <point x="1197.8" y="1839.55"/>
      <point x="1135.47" y="1765.17"/>
      <point x="1049.29" y="1728" type="curve" smooth="yes"/>
      <point x="887.764" y="1658.33"/>
      <point x="831.727" y="1671.69"/>
      <point x="688.922" y="1541" type="curve" smooth="yes"/>
      <point x="446.25" y="1318.91"/>
      <point x="290.475" y="929.297"/>
      <point x="290.475" y="602.819" type="curve" smooth="yes"/>
      <point x="290.475" y="244.624"/>
      <point x="451.124" y="-183.782"/>
      <point x="871.634" y="-187" type="curve"/>
      <point x="818.767" y="-215.704"/>
      <point x="674.294" y="-336"/>
      <point x="627.861" y="-336" type="curve" smooth="yes"/>
      <point x="207.832" y="-336"/>
      <point x="47.5728" y="106.65"/>
      <point x="47.5728" y="461.093" type="curve" smooth="yes"/>
      <point x="47.5728" y="836.089"/>
      <point x="235.359" y="1221.9"/>
      <point x="523.737" y="1460" type="curve" smooth="yes"/>
      <point x="731.381" y="1631.44"/>
      <point x="1024.25" y="1803.88"/>
    </contour>
  </outline>
</glyph>
<glyph name="asterisk" format="2">
  <advance width="1042"/>
  <unicode hex="002A"/>
  <outline>
    <contour>
      <point x="818.006" y="1076" type="curve"/>
      <point x="872.336" y="1014.65"/>
      <point x="990.865" y="896.902"/>
      <point x="1065.64" y="869" type="curve" smooth="yes"/>
      <point x="1074.62" y="865.652"/>
      <point x="1104.05" y="858.419"/>
      <point x="1104.05" y="846" type="curve" smooth="yes"/>
      <point x="1104.05" y="816.105"/>
      <point x="946.117" y="650"/>
      <point x="913.883" y="650" type="curve" smooth="yes"/>
      <point x="862.433" y="650"/>
      <point x="747.569" y="992.568"/>
      <point x="746.011" y="1051" type="curve"/>
      <point x="675.694" y="978.064"/>
      <point x="609.62" y="900.765"/>
      <point x="551.733" y="817.536" type="curve" smooth="yes"/>
      <point x="534.425" y="792.649"/>
      <point x="517.857" y="767.245"/>
      <point x="502.161" y="741.311" type="curve" smooth="yes"/>
      <point x="495.158" y="729.742"/>
      <point x="487.655" y="712.114"/>
      <point x="479.273" y="702" type="curve" smooth="yes"/>
      <point x="475.845" y="697.862"/>
      <point x="469.947" y="693.646"/>
      <point x="465.876" y="690" type="curve"/>
      <point x="425.018" y="694.838"/>
      <point x="285.452" y="779.159"/>
      <point x="285.452" y="823" type="curve" smooth="yes"/>
      <point x="285.452" y="864.754"/>
      <point x="601.514" y="1047.97"/>
      <point x="654.006" y="1076" type="curve"/>
      <point x="606.939" y="1085.41"/>
      <point x="340.183" y="1158.44"/>
      <point x="340.183" y="1202" type="curve" smooth="yes"/>
      <point x="340.183" y="1229.86"/>
      <point x="484.704" y="1373.91"/>
      <point x="515.951" y="1381" type="curve"/>
      <point x="520.178" y="1378.53"/>
      <point x="525.358" y="1376.25"/>
      <point x="528.153" y="1372" type="curve" smooth="yes"/>
      <point x="594.52" y="1271.09"/>
      <point x="642.807" y="1212.9"/>
      <point x="738.195" y="1137" type="curve"/>
      <point x="740.393" y="1174.65"/>
      <point x="741.415" y="1212.37"/>
      <point x="741.415" y="1250.08" type="curve" smooth="yes"/>
      <point x="741.415" y="1325.81"/>
      <point x="738.738" y="1420.54"/>
      <point x="716.331" y="1493" type="curve" smooth="yes"/>
      <point x="712.748" y="1504.59"/>
      <point x="708.125" y="1514.62"/>
      <point x="708.125" y="1527" type="curve" smooth="yes"/>
      <point x="708.125" y="1560.71"/>
      <point x="905.61" y="1590"/>
      <point x="938.713" y="1590" type="curve" smooth="yes"/>
      <point x="953.644" y="1590"/>
      <point x="967.712" y="1586.98"/>
      <point x="967.712" y="1569.36" type="curve" smooth="yes"/>
      <point x="967.712" y="1493.83"/>
      <point x="860.75" y="1232.71"/>
      <point x="821.791" y="1160" type="curve"/>
      <point x="927.075" y="1220.73"/>
      <point x="1021.49" y="1290.8"/>
      <point x="1106.35" y="1378" type="curve" smooth="yes"/>
      <point x="1112.44" y="1384.25"/>
      <point x="1115" y="1387"/>
      <point x="1124.15" y="1387" type="curve" smooth="yes"/>
      <point x="1155.77" y="1387"/>
      <point x="1230.53" y="1242.64"/>
      <point x="1230.53" y="1210.98" type="curve" smooth="yes"/>
      <point x="1230.53" y="1162.63"/>
      <point x="877.202" y="1083.64"/>
    </contour>
  </outline>
</glyph>
<glyph name="plus" format="2">
  <advance width="1295"/>
  <unicode hex="002B"/>
  <outline>
    <contour>
      <point x="1307.28" y="677" type="line"/>
      <point x="1237.07" y="660.463"/>
      <point x="1126.98" y="528"/>
      <point x="1060.5" y="528" type="curve" smooth="yes"/>
      <point x="877.505" y="528" type="line"/>
      <point x="825.95" y="280" type="line" smooth="yes"/>
      <point x="818.052" y="242.011"/>
      <point x="624.728" y="169.678"/>
      <point x="584.176" y="131" type="curve"/>
      <point x="663.505" y="528" type="line"/>
      <point x="266.505" y="528" type="line"/>
      <point x="336.258" y="546.018"/>
      <point x="443.901" y="677"/>
      <point x="510.278" y="677" type="curve" smooth="yes"/>
      <point x="693.278" y="677" type="line"/>
      <point x="742.833" y="925" type="line" smooth="yes"/>
      <point x="749.751" y="959.622"/>
      <point x="947.708" y="1037.65"/>
      <point x="987.006" y="1076" type="curve"/>
      <point x="907.278" y="677" type="line"/>
    </contour>
  </outline>
</glyph>
<glyph name="slash" format="2">
  <advance width="1091"/>
  <unicode hex="002F"/>
  <outline>
    <contour>
      <point x="1293.91" y="1586" type="curve"/>
      <point x="1087.23" y="1191.76"/>
      <point x="843.766" y="824.888"/>
      <point x="589.917" y="460" type="curve" smooth="yes"/>
      <point x="529.673" y="373.404"/>
      <point x="427.989" y="213.452"/>
      <point x="351.773" y="149" type="curve" smooth="yes"/>
      <point x="277.915" y="86.5419"/>
      <point x="184.772" y="57.7219"/>
      <point x="108" y="0" type="curve"/>
      <point x="353.047" y="302.569"/>
      <point x="587.473" y="618.109"/>
      <point x="780.227" y="957" type="curve" smooth="yes"/>
      <point x="985.362" y="1318" type="line" smooth="yes"/>
      <point x="1007.29" y="1356.58"/>
      <point x="1021.17" y="1399.53"/>
      <point x="1048.74" y="1435" type="curve" smooth="yes"/>
      <point x="1092.33" y="1491.08"/>
      <point x="1228.73" y="1540.69"/>
    </contour>
  </outline>
</glyph>
<glyph name="three" format="2">
  <advance width="1097"/>
  <unicode hex="0033"/>
  <outline>
    <contour>
      <point x="1295.78" y="1200" type="line"/>
      <point x="1100.34" y="977.053"/>
      <point x="902.231" y="751.175"/>
      <point x="657.895" y="580" type="curve"/>
      <point x="875.411" y="573.559"/>
      <point x="1122.19" y="528.239"/>
      <point x="1122.19" y="258.932" type="curve" smooth="yes"/>
      <point x="1122.19" y="58.0851"/>
      <point x="1024.74" y="-99.855"/>
      <point x="864.239" y="-214" type="curve" smooth="yes"/>
      <point x="690.532" y="-337.54"/>
      <point x="450.215" y="-462"/>
      <point x="232.683" y="-462" type="curve" smooth="yes"/>
      <point x="157.18" y="-462"/>
      <point x="-103.303" y="-438.199"/>
      <point x="-103.303" y="-333.355" type="curve" smooth="yes"/>
      <point x="-103.303" y="-239.675"/>
      <point x="113.391" y="-140.785"/>
      <point x="187.219" y="-104" type="curve"/>
      <point x="163.992" y="-122.765"/>
      <point x="138.029" y="-154.177"/>
      <point x="138.029" y="-185.83" type="curve" smooth="yes"/>
      <point x="138.029" y="-286.701"/>
      <point x="408.803" y="-311"/>
      <point x="481.856" y="-311" type="curve" smooth="yes"/>
      <point x="737.841" y="-311"/>
      <point x="882.631" y="-138.133"/>
      <point x="882.631" y="111.633" type="curve" smooth="yes"/>
      <point x="882.631" y="385.553"/>
      <point x="627.699" y="424.568"/>
      <point x="409.122" y="431" type="curve"/>
      <point x="663.359" y="618.27"/>
      <point x="841.102" y="816.167"/>
      <point x="1049.61" y="1049" type="curve"/>
      <point x="309.611" y="1049" type="line"/>
      <point x="352.288" y="1076.62"/>
      <point x="516.378" y="1200"/>
      <point x="553.784" y="1200" type="curve" smooth="yes"/>
    </contour>
  </outline>
</glyph>
<glyph name="four" format="2">
  <advance width="1337"/>
  <unicode hex="0034"/>
  <outline>
    <contour>
      <point x="1473.29" y="627" type="curve"/>
      <point x="1341.2" y="520.864"/>
      <point x="1185.01" y="421.029"/>
      <point x="1015.93" y="390" type="curve"/>
      <point x="997.867" y="289.342"/>
      <point x="934.42" y="209.768"/>
      <point x="854.773" y="149" type="curve"/>
      <point x="1213.77" y="149" type="line"/>
      <point x="1133.28" y="126.712"/>
      <point x="1036.53" y="0"/>
      <point x="969" y="0" type="curve" smooth="yes"/>
      <point x="606" y="0" type="line"/>
      <point x="771.901" y="73.051"/>
      <point x="766.087" y="222.72"/>
      <point x="796.332" y="377" type="curve"/>
      <point x="41.332" y="377" type="line"/>
      <point x="320.313" y="614.592"/>
      <point x="666.329" y="913.501"/>
      <point x="877.525" y="1211" type="curve" smooth="yes"/>
      <point x="991.114" y="1371.01"/>
      <point x="1002.9" y="1433.33"/>
      <point x="1179.79" y="1541" type="curve" smooth="yes"/>
      <point x="1205.15" y="1556.44"/>
      <point x="1231.19" y="1570.61"/>
      <point x="1255.31" y="1588" type="curve"/>
      <point x="1043.5" y="528" type="line"/>
      <point x="1131.5" y="528" type="line" smooth="yes"/>
      <point x="1244.35" y="528"/>
      <point x="1383.28" y="555.6"/>
    </contour>
    <contour>
      <point x="969.179" y="1227" type="line"/>
      <point x="775.278" y="954.807"/>
      <point x="562.026" y="724.732"/>
      <point x="290.505" y="528" type="curve"/>
      <point x="829.505" y="528" type="line"/>
    </contour>
  </outline>
</glyph>
<glyph name="five" format="2">
  <advance width="1109"/>
  <unicode hex="0035"/>
  <outline>
    <contour>
      <point x="1271.78" y="1200" type="line"/>
      <point x="1231.08" y="1172.66"/>
      <point x="1065.5" y="1049"/>
      <point x="1029.61" y="1049" type="curve" smooth="yes"/>
      <point x="556.611" y="1049" type="line"/>
      <point x="513.948" y="881.187"/>
      <point x="465.137" y="714.404"/>
      <point x="396.9" y="555" type="curve"/>
      <point x="493.585" y="601.103"/>
      <point x="631.987" y="614"/>
      <point x="738.596" y="614" type="curve" smooth="yes"/>
      <point x="916.252" y="614"/>
      <point x="1031.92" y="515.917"/>
      <point x="1031.92" y="333.563" type="curve" smooth="yes"/>
      <point x="1031.92" y="298.88"/>
      <point x="1028.02" y="263.945"/>
      <point x="1020.96" y="230" type="curve" smooth="yes"/>
      <point x="955.26" y="-85.8947"/>
      <point x="560.153" y="-417"/>
      <point x="235.394" y="-417" type="curve" smooth="yes"/>
      <point x="174.826" y="-417"/>
      <point x="-32.1516" y="-378.241"/>
      <point x="-43.3446" y="-307" type="curve"/>
      <point x="66.304" y="-113.042"/>
      <point x="139.162" y="-165.614"/>
      <point x="283.609" y="-47" type="curve"/>
      <point x="256.602" y="-69.8738"/>
      <point x="207.59" y="-114.121"/>
      <point x="207.59" y="-152.239" type="curve" smooth="yes"/>
      <point x="207.59" y="-233.128"/>
      <point x="408.82" y="-268"/>
      <point x="470.117" y="-268" type="curve" smooth="yes"/>
      <point x="625.558" y="-268"/>
      <point x="746.087" y="-69.5989"/>
      <point x="772.988" y="65" type="curve" smooth="yes"/>
      <point x="780.53" y="102.733"/>
      <point x="785.126" y="141.179"/>
      <point x="785.126" y="179.694" type="curve" smooth="yes"/>
      <point x="785.126" y="359.792"/>
      <point x="682.748" y="469"/>
      <point x="500.754" y="469" type="curve" smooth="yes"/>
      <point x="382.189" y="469"/>
      <point x="258.882" y="422.347"/>
      <point x="147.13" y="386" type="curve"/>
      <point x="239.207" y="597.912"/>
      <point x="289.887" y="824.037"/>
      <point x="338.49" y="1049" type="curve"/>
      <point x="560.701" y="1200" type="line"/>
    </contour>
  </outline>
</glyph>
<glyph name="six" format="2">
  <advance width="1271"/>
  <unicode hex="0036"/>
  <outline>
    <contour>
      <point x="1640.88" y="1490.74" type="line"/>
      <point x="1409.91" y="1355.33" type="line"/>
      <point x="1411.61" y="1456.37"/>
      <point x="1251.71" y="1478"/>
      <point x="1177" y="1478" type="curve" smooth="yes"/>
      <point x="772.786" y="1478"/>
      <point x="567.101" y="1076.91"/>
      <point x="498.068" y="731" type="curve"/>
      <point x="604.364" y="828.745"/>
      <point x="828.362" y="1006"/>
      <point x="976.958" y="1006" type="curve" smooth="yes"/>
      <point x="1160.51" y="1006"/>
      <point x="1278.98" y="819.964"/>
      <point x="1278.98" y="651.825" type="curve" smooth="yes"/>
      <point x="1278.98" y="624.148"/>
      <point x="1276.4" y="596.103"/>
      <point x="1270.7" y="569" type="curve" smooth="yes"/>
      <point x="1254.03" y="489.777"/>
      <point x="1219.04" y="417.754"/>
      <point x="1173.44" y="351.247" type="curve" smooth="yes"/>
      <point x="1053.01" y="175.612"/>
      <point x="779.209" y="-43"/>
      <point x="555.915" y="-43" type="curve" smooth="yes"/>
      <point x="305.852" y="-43"/>
      <point x="227.979" y="182.713"/>
      <point x="227.979" y="395.486" type="curve" smooth="yes"/>
      <point x="227.979" y="994.429"/>
      <point x="805.124" y="1624"/>
      <point x="1414.51" y="1624" type="curve" smooth="yes"/>
      <point x="1500.11" y="1624"/>
      <point x="1640.97" y="1611.29"/>
      <point x="1640.97" y="1495.78" type="curve"/>
    </contour>
    <contour>
      <point x="785.618" y="864" type="curve" smooth="yes"/>
      <point x="631.477" y="864"/>
      <point x="527.649" y="660.32"/>
      <point x="482.303" y="537" type="curve"/>
      <point x="489.581" y="365.565"/>
      <point x="534.669" y="106"/>
      <point x="755.386" y="106" type="curve" smooth="yes"/>
      <point x="940.496" y="106"/>
      <point x="1029" y="345.054"/>
      <point x="1029" y="498.197" type="curve" smooth="yes"/>
      <point x="1029" y="638.255"/>
      <point x="958.576" y="864"/>
    </contour>
  </outline>
</glyph>
<glyph name="eight" format="2">
  <advance width="1221"/>
  <unicode hex="0038"/>
  <outline>
    <contour>
      <point x="973.447" y="848" type="curve"/>
      <point x="1091.58" y="777.129"/>
      <point x="1216.15" y="675.038"/>
      <point x="1216.15" y="524.419" type="curve" smooth="yes"/>
      <point x="1216.15" y="227.176"/>
      <point x="711.051" y="-41"/>
      <point x="450.143" y="-41" type="curve" smooth="yes"/>
      <point x="265.179" y="-41"/>
      <point x="128.159" y="81.7798"/>
      <point x="128.159" y="270.269" type="curve" smooth="yes"/>
      <point x="128.159" y="511.548"/>
      <point x="334.276" y="681.454"/>
      <point x="523.057" y="796" type="curve"/>
      <point x="434.788" y="839.508"/>
      <point x="361.02" y="905.465"/>
      <point x="361.02" y="1011.1" type="curve" smooth="yes"/>
      <point x="361.02" y="1287.26"/>
      <point x="820.571" y="1618"/>
      <point x="1078.39" y="1618" type="curve" smooth="yes"/>
      <point x="1214.31" y="1618"/>
      <point x="1338.55" y="1530.36"/>
      <point x="1338.55" y="1385.63" type="curve" smooth="yes"/>
      <point x="1338.55" y="1189.96"/>
      <point x="1116.01" y="964.338"/>
    </contour>
    <contour>
      <point x="843.325" y="1466" type="curve" smooth="yes"/>
      <point x="697.723" y="1466"/>
      <point x="614.519" y="1339.32"/>
      <point x="614.519" y="1203.69" type="curve" smooth="yes"/>
      <point x="614.519" y="1016.95"/>
      <point x="803.703" y="931.328"/>
      <point x="947.245" y="862" type="curve"/>
      <point x="1017.81" y="955.362"/>
      <point x="1099.99" y="1121.83"/>
      <point x="1099.99" y="1239.87" type="curve" smooth="yes"/>
      <point x="1099.99" y="1386.14"/>
      <point x="979.53" y="1466"/>
    </contour>
    <contour>
      <point x="552.459" y="783" type="curve"/>
      <point x="446.522" y="694.624"/>
      <point x="375.301" y="549.236"/>
      <point x="375.301" y="410.697" type="curve" smooth="yes"/>
      <point x="375.301" y="222.081"/>
      <point x="514.459" y="108"/>
      <point x="696.756" y="108" type="curve" smooth="yes"/>
      <point x="864.634" y="108"/>
      <point x="964.868" y="197.997"/>
      <point x="964.868" y="370.411" type="curve" smooth="yes"/>
      <point x="964.868" y="602.645"/>
      <point x="724.191" y="692.267"/>
    </contour>
  </outline>
</glyph>
<glyph name="colon" format="2">
  <advance width="562"/>
  <unicode hex="003A"/>
  <outline>
    <contour>
      <point x="623.052" y="821" type="line"/>
      <point x="379.279" y="672" type="line"/>
      <point x="300.846" y="855" type="line"/>
      <point x="545.019" y="1006" type="line"/>
    </contour>
    <contour>
      <point x="480.379" y="117" type="line"/>
      <point x="236.206" y="-34" type="line"/>
      <point x="160.173" y="151" type="line"/>
      <point x="401.946" y="300" type="line"/>
    </contour>
  </outline>
</glyph>
<glyph name="semicolon" format="2">
  <advance width="558"/>
  <unicode hex="003B"/>
  <outline>
    <contour>
      <point x="618.052" y="821" type="line"/>
      <point x="374.279" y="672" type="line"/>
      <point x="295.846" y="855" type="line"/>
      <point x="540.019" y="1006" type="line"/>
    </contour>
    <contour>
      <point x="173.256" y="-309" type="curve"/>
      <point x="242.728" y="-251.95"/>
      <point x="336.62" y="-147.543"/>
      <point x="336.62" y="-52.3416" type="curve" smooth="yes"/>
      <point x="336.62" y="-28.4325"/>
      <point x="329.548" y="-2"/>
      <point x="300.6" y="-2" type="curve" smooth="yes"/>
      <point x="280.133" y="-2"/>
      <point x="248.383" y="-22.8959"/>
      <point x="231.206" y="-34" type="curve"/>
      <point x="155.173" y="151" type="line"/>
      <point x="396.946" y="300" type="line"/>
      <point x="429.902" y="229.541"/>
      <point x="467.759" y="159.023"/>
      <point x="467.759" y="79.0908" type="curve" smooth="yes"/>
      <point x="467.759" y="-67.7164"/>
      <point x="354.317" y="-203.493"/>
      <point x="232.449" y="-273" type="curve" smooth="yes"/>
      <point x="212.343" y="-284.467"/>
      <point x="192.265" y="-295.734"/>
    </contour>
  </outline>
</glyph>
<glyph name="less" format="2">
  <advance width="1295"/>
  <unicode hex="003C"/>
  <outline>
    <contour>
      <point x="1287.39" y="1153" type="curve"/>
      <point x="1106.55" y="924.877"/>
      <point x="829.693" y="767.057"/>
      <point x="579.887" y="625" type="curve"/>
      <point x="757.28" y="475.964"/>
      <point x="938.327" y="328.095"/>
      <point x="1086.77" y="149" type="curve"/>
      <point x="1010.84" y="115.063"/>
      <point x="905.105" y="20.2623"/>
      <point x="840" y="0" type="curve"/>
      <point x="643.61" y="139.778"/>
      <point x="498.601" y="336.199"/>
      <point x="316.311" y="492" type="curve"/>
      <point x="402.279" y="529.798"/>
      <point x="473.22" y="592.837"/>
      <point x="553.084" y="641" type="curve" smooth="yes"/>
      <point x="647.268" y="697.799"/>
      <point x="745.276" y="748.111"/>
      <point x="833.603" y="814.189" type="curve" smooth="yes"/>
      <point x="910.117" y="871.429"/>
      <point x="974.279" y="938.895"/>
      <point x="1043.62" y="1004" type="curve" smooth="yes"/>
      <point x="1117.74" y="1073.59"/>
      <point x="1219.14" y="1086.64"/>
    </contour>
  </outline>
</glyph>
<glyph name="equal" format="2">
  <advance width="1295"/>
  <unicode hex="003D"/>
  <outline>
    <contour>
      <point x="1317.85" y="830" type="line"/>
      <point x="1252.31" y="813.891"/>
      <point x="1138.73" y="679"/>
      <point x="1075.68" y="679" type="curve" smooth="yes"/>
      <point x="301.678" y="679" type="line"/>
      <point x="371.302" y="701.633"/>
      <point x="483.873" y="830"/>
      <point x="543.85" y="830" type="curve" smooth="yes"/>
    </contour>
    <contour>
      <point x="1257.11" y="526" type="line"/>
      <point x="1183.41" y="502.177"/>
      <point x="1079.73" y="377"/>
      <point x="1010.33" y="377" type="curve" smooth="yes"/>
      <point x="239.332" y="377" type="line"/>
      <point x="295.764" y="387.602"/>
      <point x="419.933" y="526"/>
      <point x="483.105" y="526" type="curve" smooth="yes"/>
    </contour>
  </outline>
</glyph>
<glyph name="greater" format="2">
  <advance width="1295"/>
  <unicode hex="003E"/>
  <outline>
    <contour>
      <point x="1238.08" y="661" type="curve"/>
      <point x="1153.92" y="619.302"/>
      <point x="1078.27" y="563.421"/>
      <point x="998.707" y="514" type="curve" smooth="yes"/>
      <point x="861.32" y="428.658"/>
      <point x="714.328" y="361.49"/>
      <point x="599.756" y="244" type="curve" smooth="yes"/>
      <point x="569.569" y="213.044"/>
      <point x="541.866" y="178.929"/>
      <point x="510.773" y="149" type="curve" smooth="yes"/>
      <point x="439.53" y="80.4236"/>
      <point x="338.028" y="65.5234"/>
      <point x="266" y="0" type="curve"/>
      <point x="447.928" y="228.294"/>
      <point x="723.769" y="385.959"/>
      <point x="974.505" y="528" type="curve"/>
      <point x="796.48" y="676.76"/>
      <point x="616.354" y="825.723"/>
      <point x="466.619" y="1004" type="curve"/>
      <point x="551.414" y="1046.64"/>
      <point x="617.703" y="1120.77"/>
      <point x="706.792" y="1155" type="curve"/>
      <point x="813.044" y="1107.04"/>
      <point x="1129.77" y="764.512"/>
    </contour>
  </outline>
</glyph>
<glyph name="question" format="2">
  <advance width="1024"/>
  <unicode hex="003F"/>
  <outline>
    <contour>
      <point x="468.136" y="356" type="curve"/>
      <point x="467.274" y="364.279"/>
      <point x="466.861" y="372.603"/>
      <point x="466.861" y="380.926" type="curve" smooth="yes"/>
      <point x="466.861" y="673.306"/>
      <point x="965.541" y="778.787"/>
      <point x="1042.59" y="1144" type="curve" smooth="yes"/>
      <point x="1046.97" y="1164.73"/>
      <point x="1049.1" y="1186.19"/>
      <point x="1049.1" y="1207.37" type="curve" smooth="yes"/>
      <point x="1049.1" y="1380.89"/>
      <point x="897.462" y="1473"/>
      <point x="738.335" y="1473" type="curve" smooth="yes"/>
      <point x="583.989" y="1473"/>
      <point x="486.981" y="1302.18"/>
      <point x="486.981" y="1163.62" type="curve" smooth="yes"/>
      <point x="486.981" y="1130.27"/>
      <point x="491.921" y="1096.86"/>
      <point x="501.808" y="1065" type="curve"/>
      <point x="257.035" y="916" type="line"/>
      <point x="245.625" y="946.156"/>
      <point x="240.486" y="978.339"/>
      <point x="240.486" y="1010.52" type="curve" smooth="yes"/>
      <point x="240.486" y="1313.42"/>
      <point x="723.035" y="1624"/>
      <point x="998.507" y="1624" type="curve" smooth="yes"/>
      <point x="1168.38" y="1624"/>
      <point x="1285.77" y="1507.68"/>
      <point x="1285.77" y="1337.68" type="curve" smooth="yes"/>
      <point x="1285.77" y="953.707"/>
      <point x="771.856" y="866.459"/>
      <point x="715.697" y="569" type="curve" smooth="yes"/>
      <point x="711.89" y="548.83"/>
      <point x="714.937" y="527.897"/>
      <point x="710.508" y="508" type="curve" smooth="yes"/>
      <point x="698.991" y="456.252"/>
      <point x="498.43" y="399.644"/>
    </contour>
    <contour>
      <point x="700.379" y="117" type="line"/>
      <point x="455.206" y="-34" type="line"/>
      <point x="380.173" y="151" type="line"/>
      <point x="623.946" y="300" type="line"/>
    </contour>
  </outline>
</glyph>
<glyph name="at" format="2">
  <advance width="1764"/>
  <unicode hex="0040"/>
  <outline>
    <contour>
      <point x="1107.39" y="72" type="curve" smooth="yes"/>
      <point x="1059.02" y="72"/>
      <point x="1037.62" y="98.2403"/>
      <point x="1037.62" y="144.571" type="curve" smooth="yes"/>
      <point x="1037.62" y="163.53"/>
      <point x="1040.8" y="182.606"/>
      <point x="1045.16" y="201" type="curve"/>
      <point x="970.753" y="149.854"/>
      <point x="872.17" y="92"/>
      <point x="779.383" y="92" type="curve" smooth="yes"/>
      <point x="663.769" y="92"/>
      <point x="579.969" y="146.971"/>
      <point x="579.969" y="270.025" type="curve" smooth="yes"/>
      <point x="579.969" y="550.059"/>
      <point x="973.792" y="871"/>
      <point x="1242.04" y="871" type="curve" smooth="yes"/>
      <point x="1287.51" y="871"/>
      <point x="1331.64" y="855.294"/>
      <point x="1360.65" y="819" type="curve"/>
      <point x="1410.93" y="847.134"/>
      <point x="1465.89" y="868.162"/>
      <point x="1510.84" y="905" type="curve"/>
      <point x="1448.4" y="760.732"/>
      <point x="1277.47" y="428.795"/>
      <point x="1277.47" y="284.5" type="curve" smooth="yes"/>
      <point x="1277.47" y="246.67"/>
      <point x="1293.52" y="222.557"/>
      <point x="1334.46" y="222.557" type="curve"/>
      <point x="1344.56" y="223" type="line"/>
      <point x="1458.08" y="365.503"/>
      <point x="1569.5" y="578.226"/>
      <point x="1569.5" y="764.099" type="curve" smooth="yes"/>
      <point x="1569.5" y="975.692"/>
      <point x="1431.96" y="1108"/>
      <point x="1221.4" y="1108" type="curve" smooth="yes"/>
      <point x="811.247" y="1108"/>
      <point x="451.546" y="674.524"/>
      <point x="451.546" y="279.265" type="curve" smooth="yes"/>
      <point x="451.546" y="56.1191"/>
      <point x="566.077" y="-118.934"/>
      <point x="803.823" y="-126" type="curve"/>
      <point x="731.402" y="-150.894"/>
      <point x="617.969" y="-275"/>
      <point x="560.049" y="-275" type="curve" smooth="yes"/>
      <point x="316.545" y="-275"/>
      <point x="205.337" y="-77.2199"/>
      <point x="205.337" y="144.15" type="curve" smooth="yes"/>
      <point x="205.337" y="393.331"/>
      <point x="348.633" y="646.216"/>
      <point x="528.254" y="812" type="curve" smooth="yes"/>
      <point x="738.594" y="1006.14"/>
      <point x="1197.7" y="1266"/>
      <point x="1487.97" y="1266" type="curve" smooth="yes"/>
      <point x="1701.56" y="1266"/>
      <point x="1811.25" y="1111.52"/>
      <point x="1811.25" y="909.842" type="curve" smooth="yes"/>
      <point x="1811.25" y="870.306"/>
      <point x="1807.04" y="830.75"/>
      <point x="1799.26" y="792" type="curve" smooth="yes"/>
      <point x="1746.39" y="528.934"/>
      <point x="1398.8" y="72"/>
    </contour>
    <contour>
      <point x="1019.27" y="717" type="curve" smooth="yes"/>
      <point x="893.225" y="717"/>
      <point x="829.025" y="519.579"/>
      <point x="829.025" y="416.885" type="curve" smooth="yes"/>
      <point x="829.025" y="293.651"/>
      <point x="908.109" y="244"/>
      <point x="1023.76" y="244" type="curve" smooth="yes"/>
      <point x="1066.17" y="244"/>
      <point x="1135.43" y="418.757"/>
      <point x="1143.52" y="458" type="curve" smooth="yes"/>
      <point x="1149.97" y="489.347"/>
      <point x="1153.83" y="521.549"/>
      <point x="1153.83" y="553.575" type="curve" smooth="yes"/>
      <point x="1153.83" y="643.486"/>
      <point x="1120.32" y="717"/>
    </contour>
  </outline>
</glyph>
<glyph name="A" format="2">
  <advance width="1996"/>
  <unicode hex="0041"/>
  <anchor x="761" y="0" name="bottom"/>
  <anchor x="1563" y="10" name="ogonek"/>
  <anchor x="1333.54" y="1434" name="top"/>
  <outline>
    <contour>
      <point x="1592" y="-20" type="curve" smooth="yes"/>
      <point x="1705.79" y="-20"/>
      <point x="1897.27" y="119.973"/>
      <point x="1991.97" y="185" type="curve"/>
      <point x="1947.18" y="158.897"/>
      <point x="1887.46" y="135"/>
      <point x="1834.98" y="135" type="curve" smooth="yes"/>
      <point x="1745.52" y="135"/>
      <point x="1737.02" y="202.396"/>
      <point x="1727.55" y="273" type="curve" smooth="yes"/>
      <point x="1665.93" y="732.529"/>
      <point x="1558.99" y="1140.53"/>
      <point x="1437.91" y="1586" type="curve"/>
      <point x="1399.91" y="1586" type="line" smooth="yes"/>
      <point x="1108.77" y="1586"/>
      <point x="1019.2" y="1567.8"/>
      <point x="780.749" y="1390" type="curve"/>
      <point x="916.88" y="1439.29"/>
      <point x="1049.91" y="1435"/>
      <point x="1191.74" y="1435" type="curve"/>
      <point x="1175.97" y="1418.35"/>
      <point x="1164.36" y="1399.52"/>
      <point x="1151.08" y="1381" type="curve" smooth="yes"/>
      <point x="1002.57" y="1173.85"/>
      <point x="828.385" y="984.99"/>
      <point x="664.624" y="790" type="curve" smooth="yes"/>
      <point x="436.271" y="518.102"/>
      <point x="211.573" y="248.268"/>
      <point x="-48" y="5" type="curve"/>
      <point x="-53" y="0" type="line"/>
      <point x="268.231" y="-0.3792"/>
      <point x="328.575" y="30.7938"/>
      <point x="593.962" y="210" type="curve"/>
      <point x="473.932" y="145.289"/>
      <point x="326.462" y="149"/>
      <point x="193.773" y="149" type="curve"/>
      <point x="344.321" y="301.348"/>
      <point x="502.927" y="445.785"/>
      <point x="640.59" y="610.392" type="curve" smooth="yes"/>
      <point x="830.956" y="838.017"/>
      <point x="1013.42" y="1072.4"/>
      <point x="1194.83" y="1307.22" type="curve"/>
      <point x="1348.26" y="738.016" type="line" smooth="yes"/>
      <point x="1404.52" y="529.329"/>
      <point x="1444.54" y="315.995"/>
      <point x="1485.78" y="104" type="curve" smooth="yes"/>
      <point x="1498.58" y="38.2277"/>
      <point x="1510.06" y="-20"/>
    </contour>
    <contour>
      <point x="1441.95" y="739.783" type="line"/>
      <point x="1331.61" y="731.567"/>
      <point x="1220.25" y="733"/>
      <point x="1109.67" y="733" type="curve" smooth="yes"/>
      <point x="989.711" y="733"/>
      <point x="869.643" y="739.047"/>
      <point x="749.816" y="739.047" type="curve" smooth="yes"/>
      <point x="723.985" y="739.047"/>
      <point x="698.571" y="731.257"/>
      <point x="673.069" y="727.875" type="curve"/>
      <point x="590.782" y="584.179" type="line"/>
      <point x="638.825" y="583.575"/>
      <point x="686.87" y="583.143"/>
      <point x="734.918" y="583.143" type="curve" smooth="yes"/>
      <point x="897.505" y="583.143"/>
      <point x="1307.27" y="586.002"/>
      <point x="1445.08" y="651.543" type="curve"/>
    </contour>
  </outline>
</glyph>
<glyph name="B" format="2">
  <advance width="1609"/>
  <unicode hex="0042"/>
  <anchor x="652" y="0" name="bottom"/>
  <anchor x="938.271" y="717" name="center"/>
  <anchor x="1224.54" y="1434" name="top"/>
  <outline>
    <contour>
      <point x="1335.23" y="932" type="curve"/>
      <point x="1493.19" y="912.904"/>
      <point x="1650.81" y="824.962"/>
      <point x="1650.81" y="646.811" type="curve" smooth="yes"/>
      <point x="1650.81" y="318.294"/>
      <point x="1104.79" y="67.691"/>
      <point x="832.316" y="18" type="curve" smooth="yes"/>
      <point x="743.4" y="1.78449"/>
      <point x="653.117" y="0"/>
      <point x="563" y="0" type="curve" smooth="yes"/>
      <point x="312" y="0" type="line"/>
      <point x="387.022" y="83.3933"/>
      <point x="408.314" y="117.591"/>
      <point x="430.559" y="228" type="curve" smooth="yes"/>
      <point x="673.741" y="1435" type="line"/>
      <point x="431.741" y="1435" type="line"/>
      <point x="469.627" y="1462.6"/>
      <point x="642.104" y="1586"/>
      <point x="676.914" y="1586" type="curve" smooth="yes"/>
      <point x="1289.42" y="1586" type="line" smooth="yes"/>
      <point x="1443.24" y="1586"/>
      <point x="1697.38" y="1571.41"/>
      <point x="1697.38" y="1363.01" type="curve" smooth="yes"/>
      <point x="1697.38" y="1150.08"/>
      <point x="1498.63" y="1025.63"/>
    </contour>
    <contour>
      <point x="985.754" y="1444" type="curve" smooth="yes"/>
      <point x="953.535" y="1444"/>
      <point x="921.355" y="1442.17"/>
      <point x="889.14" y="1442" type="curve"/>
      <point x="787.232" y="932" type="line"/>
      <point x="862.71" y="937.019"/>
      <point x="938.527" y="938"/>
      <point x="1014.15" y="938" type="curve" smooth="yes"/>
      <point x="1081.52" y="938"/>
      <point x="1149" y="932"/>
      <point x="1216.1" y="932" type="curve" smooth="yes"/>
      <point x="1223.14" y="932"/>
      <point x="1262.76" y="944.266"/>
      <point x="1271.07" y="947.166" type="curve" smooth="yes"/>
      <point x="1358.23" y="977.579"/>
      <point x="1426.13" y="1036.77"/>
      <point x="1444.8" y="1130" type="curve" smooth="yes"/>
      <point x="1448.97" y="1150.85"/>
      <point x="1451.48" y="1172.11"/>
      <point x="1451.48" y="1193.39" type="curve" smooth="yes"/>
      <point x="1451.48" y="1422.45"/>
      <point x="1153.88" y="1444"/>
    </contour>
    <contour>
      <point x="558.773" y="149" type="curve"/>
      <point x="944.365" y="149" type="line" smooth="yes"/>
      <point x="1153.65" y="149"/>
      <point x="1401.92" y="216.954"/>
      <point x="1401.92" y="471.102" type="curve" smooth="yes"/>
      <point x="1401.92" y="758.806"/>
      <point x="964.264" y="785.076"/>
      <point x="757.858" y="785" type="curve"/>
      <point x="675.131" y="381" type="line" smooth="yes"/>
      <point x="657.63" y="295.533"/>
      <point x="615.53" y="214.922"/>
    </contour>
  </outline>
</glyph>
<glyph name="C" format="2">
  <advance width="1400"/>
  <unicode hex="0043"/>
  <anchor x="573" y="0" name="bottom"/>
  <anchor x="1145.54" y="1434" name="top"/>
  <outline>
    <contour>
      <point x="1754.52" y="1554" type="curve" smooth="yes"/>
      <point x="1754.52" y="1530.22"/>
      <point x="1492.98" y="1380.9"/>
      <point x="1453.75" y="1360" type="curve"/>
      <point x="1462.01" y="1366.45"/>
      <point x="1506.35" y="1399.14"/>
      <point x="1506.35" y="1408" type="curve" smooth="yes"/>
      <point x="1506.35" y="1455.25"/>
      <point x="1233.97" y="1478"/>
      <point x="1188.33" y="1478" type="curve" smooth="yes"/>
      <point x="715.612" y="1478"/>
      <point x="405.452" y="1155.09"/>
      <point x="405.452" y="683.919" type="curve" smooth="yes"/>
      <point x="405.452" y="361.768"/>
      <point x="576.773" y="106"/>
      <point x="921.181" y="106" type="curve" smooth="yes"/>
      <point x="1077.08" y="106"/>
      <point x="1286.82" y="173.279"/>
      <point x="1431.36" y="232" type="curve"/>
      <point x="1233.04" y="69.3136"/>
      <point x="923.919" y="-47"/>
      <point x="666.608" y="-47" type="curve" smooth="yes"/>
      <point x="338.706" y="-47"/>
      <point x="156.862" y="186.737"/>
      <point x="156.862" y="500.85" type="curve" smooth="yes"/>
      <point x="156.862" y="1135.33"/>
      <point x="853.982" y="1629"/>
      <point x="1446.51" y="1629" type="curve" smooth="yes"/>
      <point x="1491.75" y="1629"/>
      <point x="1754.52" y="1604.67"/>
    </contour>
  </outline>
</glyph>
<glyph name="G" format="2">
  <advance width="1554"/>
  <unicode hex="0047"/>
  <anchor x="669" y="0" name="bottom"/>
  <anchor x="1241.54" y="1434" name="top"/>
  <outline>
    <contour>
      <point x="1396.56" y="1329" type="curve"/>
      <point x="1415.17" y="1339.32"/>
      <point x="1447.05" y="1366.29"/>
      <point x="1447.05" y="1389.88" type="curve" smooth="yes"/>
      <point x="1447.05" y="1473.18"/>
      <point x="1132.38" y="1500"/>
      <point x="1067.93" y="1500" type="curve" smooth="yes"/>
      <point x="631.302" y="1500"/>
      <point x="449.432" y="1007.28"/>
      <point x="449.432" y="640.025" type="curve" smooth="yes"/>
      <point x="449.432" y="378.654"/>
      <point x="552.317" y="111"/>
      <point x="854.987" y="111" type="curve" smooth="yes"/>
      <point x="966.068" y="111"/>
      <point x="1106.54" y="130.337"/>
      <point x="1193.42" y="205" type="curve"/>
      <point x="1291.08" y="686" type="line"/>
      <point x="975.076" y="686" type="line"/>
      <point x="1012.74" y="713.515"/>
      <point x="1182.59" y="837"/>
      <point x="1217.25" y="837" type="curve" smooth="yes"/>
      <point x="1666.25" y="837" type="line"/>
      <point x="1609.12" y="809.746"/>
      <point x="1559.79" y="769.539"/>
      <point x="1510.07" y="731" type="curve"/>
      <point x="1433.94" y="350" type="line"/>
      <point x="1267.88" y="159.341"/>
      <point x="947.23" y="-43"/>
      <point x="687.391" y="-43" type="curve" smooth="yes"/>
      <point x="365.926" y="-43"/>
      <point x="206.554" y="186.131"/>
      <point x="206.554" y="489.646" type="curve" smooth="yes"/>
      <point x="206.554" y="558.903"/>
      <point x="214.135" y="629.211"/>
      <point x="228.274" y="697" type="curve" smooth="yes"/>
      <point x="257.34" y="836.355"/>
      <point x="309.926" y="967.368"/>
      <point x="385.57" y="1088.02" type="curve" smooth="yes"/>
      <point x="572.756" y="1386.58"/>
      <point x="926.873" y="1649"/>
      <point x="1290.98" y="1649" type="curve" smooth="yes"/>
      <point x="1355.21" y="1649"/>
      <point x="1694.83" y="1598.46"/>
      <point x="1694.83" y="1523.08" type="curve" smooth="yes"/>
      <point x="1694.83" y="1492.87"/>
      <point x="1438.46" y="1350.47"/>
    </contour>
  </outline>
</glyph>
<glyph name="H" format="2">
  <advance width="2108"/>
  <unicode hex="0048"/>
  <anchor x="945" y="0" name="bottom"/>
  <anchor x="1231.27" y="717" name="center"/>
  <anchor x="1517.54" y="1434" name="top"/>
  <anchor x="483.541" y="1434" name="topleft"/>
  <outline>
    <contour>
      <point x="2346.91" y="1586" type="line"/>
      <point x="2280.22" y="1565.83"/>
      <point x="2164.21" y="1435"/>
      <point x="2102.74" y="1435" type="curve" smooth="yes"/>
      <point x="2043.74" y="1435" type="line"/>
      <point x="1840.12" y="426" type="line" smooth="yes"/>
      <point x="1813.56" y="294.391"/>
      <point x="1797.96" y="250.333"/>
      <point x="1705.77" y="149" type="curve"/>
      <point x="2057.77" y="149" type="line"/>
      <point x="1989.91" y="130.391"/>
      <point x="1873.97" y="0"/>
      <point x="1814" y="0" type="curve" smooth="yes"/>
      <point x="1439" y="0" type="line"/>
      <point x="1532.9" y="85.1483"/>
      <point x="1568.79" y="139.086"/>
      <point x="1593.75" y="264" type="curve" smooth="yes"/>
      <point x="1691.06" y="751" type="line"/>
      <point x="690.065" y="751" type="line"/>
      <point x="625.123" y="426" type="line" smooth="yes"/>
      <point x="599.31" y="296.954"/>
      <point x="582.184" y="248.97"/>
      <point x="492.773" y="149" type="curve"/>
      <point x="844.773" y="149" type="line"/>
      <point x="774.565" y="132.463"/>
      <point x="664.47" y="0"/>
      <point x="598" y="0" type="curve" smooth="yes"/>
      <point x="226" y="0" type="line"/>
      <point x="326.157" y="67.3313"/>
      <point x="354.904" y="151.103"/>
      <point x="377.752" y="264" type="curve" smooth="yes"/>
      <point x="614.741" y="1435" type="line"/>
      <point x="408.741" y="1435" type="line"/>
      <point x="446.645" y="1462.61"/>
      <point x="619.106" y="1586"/>
      <point x="653.914" y="1586" type="curve" smooth="yes"/>
      <point x="1133.91" y="1586" type="line"/>
      <point x="1064.56" y="1568.95"/>
      <point x="955.421" y="1435"/>
      <point x="887.741" y="1435" type="curve" smooth="yes"/>
      <point x="828.741" y="1435" type="line"/>
      <point x="719.838" y="900" type="line"/>
      <point x="1720.84" y="900" type="line"/>
      <point x="1827.74" y="1435" type="line"/>
      <point x="1621.74" y="1435" type="line"/>
      <point x="1663.9" y="1462.21"/>
      <point x="1830.62" y="1586"/>
      <point x="1866.91" y="1586" type="curve" smooth="yes"/>
    </contour>
  </outline>
</glyph>
<glyph name="J" format="2">
  <advance width="1088"/>
  <unicode hex="004A"/>
  <anchor x="358" y="0" name="bottom"/>
  <anchor x="930.542" y="1434" name="top"/>
  <outline>
    <contour>
      <point x="1308.91" y="1586" type="line"/>
      <point x="1238.81" y="1559.04"/>
      <point x="1123.49" y="1435"/>
      <point x="1064.74" y="1435" type="curve" smooth="yes"/>
      <point x="980.741" y="1435" type="line"/>
      <point x="901.546" y="1038.67"/>
      <point x="822.64" y="642.275"/>
      <point x="743.156" y="246" type="curve" smooth="yes"/>
      <point x="667.674" y="-130.32"/>
      <point x="274.18" y="-598"/>
      <point x="-135.492" y="-598" type="curve" smooth="yes"/>
      <point x="-186.087" y="-598"/>
      <point x="-399.196" y="-533.596"/>
      <point x="-399.196" y="-473.858" type="curve" smooth="yes"/>
      <point x="-399.196" y="-419.414"/>
      <point x="-141.657" y="-276.911"/>
      <point x="-87.5544" y="-253" type="curve"/>
      <point x="-118.315" y="-267.744"/>
      <point x="-145.451" y="-291.41"/>
      <point x="-159.542" y="-323" type="curve"/>
      <point x="-115.386" y="-389.763"/>
      <point x="39.1942" y="-449"/>
      <point x="117.281" y="-449" type="curve" smooth="yes"/>
      <point x="370.799" y="-449"/>
      <point x="457.449" y="-101.381"/>
      <point x="496.983" y="95" type="curve" smooth="yes"/>
      <point x="766.741" y="1435" type="line"/>
      <point x="561.741" y="1435" type="line"/>
      <point x="599.547" y="1462.57"/>
      <point x="771.15" y="1586"/>
      <point x="805.914" y="1586" type="curve" smooth="yes"/>
    </contour>
  </outline>
</glyph>
<glyph name="L" format="2">
  <advance width="1371"/>
  <unicode hex="004C"/>
  <anchor x="584" y="0" name="bottom"/>
  <anchor x="870.271" y="717" name="center"/>
  <anchor x="1156.54" y="1434" name="top"/>
  <anchor x="1821.54" y="1434" name="topright"/>
  <outline>
    <contour>
      <point x="1399.96" y="210" type="curve"/>
      <point x="1308.05" y="113.768"/>
      <point x="1145.86" y="0"/>
      <point x="1008" y="0" type="curve" smooth="yes"/>
      <point x="215" y="0" type="line"/>
      <point x="312.021" y="75.1501"/>
      <point x="354.582" y="144.063"/>
      <point x="378.752" y="264" type="curve" smooth="yes"/>
      <point x="614.741" y="1435" type="line"/>
      <point x="406.741" y="1435" type="line"/>
      <point x="446.133" y="1462.13"/>
      <point x="619.39" y="1586"/>
      <point x="653.914" y="1586" type="curve" smooth="yes"/>
      <point x="1156.91" y="1586" type="line"/>
      <point x="1083.41" y="1563.72"/>
      <point x="971.454" y="1435"/>
      <point x="909.741" y="1435" type="curve" smooth="yes"/>
      <point x="828.741" y="1435" type="line"/>
      <point x="665.089" y="616" type="line" smooth="yes"/>
      <point x="646.581" y="523.376"/>
      <point x="628.909" y="429.992"/>
      <point x="607.539" y="338" type="curve" smooth="yes"/>
      <point x="590.723" y="265.612"/>
      <point x="539.159" y="189.716"/>
      <point x="476.773" y="149" type="curve"/>
      <point x="1184.77" y="149" type="line" smooth="yes"/>
      <point x="1257.94" y="149"/>
      <point x="1338.89" y="168.892"/>
    </contour>
  </outline>
</glyph>
<glyph name="M" format="2">
  <advance width="2373"/>
  <unicode hex="004D"/>
  <anchor x="1201" y="0" name="bottom"/>
  <anchor x="1773.54" y="1434" name="top"/>
  <outline>
    <contour>
      <point x="2032.77" y="149" type="curve"/>
      <point x="2357.77" y="149" type="line"/>
      <point x="2295.95" y="121.521"/>
      <point x="2165.37" y="0"/>
      <point x="2114" y="0" type="curve" smooth="yes"/>
      <point x="1787" y="0" type="line"/>
      <point x="1846.86" y="69.1824"/>
      <point x="1869.19" y="144.524"/>
      <point x="1887.36" y="232" type="curve" smooth="yes"/>
      <point x="1957.36" y="569.135"/>
      <point x="1997.83" y="912.75"/>
      <point x="2049.8" y="1252.98" type="curve"/>
      <point x="2055.95" y="1251.46" type="line"/>
      <point x="1547.7" y="532" type="line" smooth="yes"/>
      <point x="1350.27" y="252.27"/>
      <point x="1406.03" y="239.038"/>
      <point x="1094.79" y="54" type="curve"/>
      <point x="1081.8" y="422.574"/>
      <point x="967.09" y="807.493"/>
      <point x="826.215" y="1146.56" type="curve"/>
      <point x="833.782" y="1148.94" type="line"/>
      <point x="674.888" y="620" type="line" smooth="yes"/>
      <point x="632.977" y="480.48"/>
      <point x="561.032" y="247.728"/>
      <point x="453.773" y="149" type="curve"/>
      <point x="805.773" y="149" type="line"/>
      <point x="767.392" y="122.076"/>
      <point x="596.494" y="0"/>
      <point x="562" y="0" type="curve" smooth="yes"/>
      <point x="199" y="0" type="line"/>
      <point x="393.344" y="164.327"/>
      <point x="633.225" y="1145.98"/>
      <point x="710.741" y="1435" type="curve"/>
      <point x="433.741" y="1435" type="line"/>
      <point x="471.583" y="1463.76"/>
      <point x="641.046" y="1586"/>
      <point x="677.914" y="1586" type="curve" smooth="yes"/>
      <point x="955.914" y="1586" type="line"/>
      <point x="1173.9" y="873" type="line" smooth="yes"/>
      <point x="1227" y="699.339"/>
      <point x="1284.2" y="526.776"/>
      <point x="1313.34" y="347" type="curve"/>
      <point x="1502.49" y="641.832"/>
      <point x="1683.97" y="940.284"/>
      <point x="1891.38" y="1223" type="curve" smooth="yes"/>
      <point x="1952" y="1305.63"/>
      <point x="2009.51" y="1396.7"/>
      <point x="2082.54" y="1469" type="curve" smooth="yes"/>
      <point x="2149.65" y="1535.44"/>
      <point x="2243.03" y="1572.13"/>
      <point x="2324.31" y="1618" type="curve"/>
      <point x="2140.73" y="404" type="line" smooth="yes"/>
      <point x="2127.26" y="314.968"/>
      <point x="2088.74" y="219.78"/>
    </contour>
  </outline>
</glyph>
<glyph name="N" format="2">
  <advance width="2109"/>
  <unicode hex="004E"/>
  <anchor x="912" y="0" name="bottom"/>
  <anchor x="1484.54" y="1434" name="top"/>
  <outline>
    <contour>
      <point x="2329.91" y="1586" type="line"/>
      <point x="2241.33" y="1550.51"/>
      <point x="2183.54" y="1463.77"/>
      <point x="2091.14" y="1437" type="curve"/>
      <point x="2011.03" y="1019.83"/>
      <point x="1913.07" y="625.872"/>
      <point x="1761.56" y="228" type="curve" smooth="yes"/>
      <point x="1746.92" y="189.566"/>
      <point x="1733.75" y="147.335"/>
      <point x="1710.58" y="113" type="curve" smooth="yes"/>
      <point x="1675.3" y="60.725"/>
      <point x="1569.43" y="-2.07251"/>
      <point x="1514.41" y="-38" type="curve"/>
      <point x="1514.66" y="58.0958"/>
      <point x="1490.7" y="116.087"/>
      <point x="1443.03" y="197.53" type="curve" smooth="yes"/>
      <point x="1368.73" y="324.45"/>
      <point x="1301.28" y="454.51"/>
      <point x="1229.97" y="583.044" type="curve" smooth="yes"/>
      <point x="1092.98" y="829.971"/>
      <point x="953.224" y="1077.36"/>
      <point x="790.45" y="1308.43" type="curve"/>
      <point x="826.17" y="1329.29" type="line"/>
      <point x="688.154" y="641.35" type="line" smooth="yes"/>
      <point x="655.313" y="477.65"/>
      <point x="625.133" y="302.947"/>
      <point x="558.773" y="149" type="curve"/>
      <point x="914.773" y="149" type="line"/>
      <point x="875.84" y="124.199"/>
      <point x="699.455" y="0"/>
      <point x="669" y="0" type="curve" smooth="yes"/>
      <point x="308" y="0" type="line"/>
      <point x="441.321" y="149.52"/>
      <point x="486.194" y="332.124"/>
      <point x="524.506" y="523" type="curve" smooth="yes"/>
      <point x="585.245" y="825.616"/>
      <point x="641.691" y="1129.31"/>
      <point x="684.741" y="1435" type="curve"/>
      <point x="433.741" y="1435" type="line"/>
      <point x="471.583" y="1462.57"/>
      <point x="644.106" y="1586"/>
      <point x="678.914" y="1586" type="curve" smooth="yes"/>
      <point x="1093.91" y="1586" type="line"/>
      <point x="1052.98" y="1567.92"/>
      <point x="1019.52" y="1538.67"/>
      <point x="984.127" y="1512" type="curve"/>
      <point x="1282.92" y="1108.68"/>
      <point x="1529.02" y="671.864"/>
      <point x="1761.56" y="228" type="curve"/>
      <point x="1653.28" y="236.178" type="line"/>
      <point x="1716.83" y="449.767"/>
      <point x="1791.26" y="659.792"/>
      <point x="1835.58" y="878.68" type="curve" smooth="yes"/>
      <point x="1872.85" y="1062.78"/>
      <point x="1903.7" y="1248.58"/>
      <point x="1926.74" y="1435" type="curve"/>
      <point x="1670.74" y="1435" type="line"/>
      <point x="1708.52" y="1462.55"/>
      <point x="1880.16" y="1586"/>
      <point x="1914.91" y="1586" type="curve" smooth="yes"/>
    </contour>
  </outline>
</glyph>
<glyph name="O" format="2">
  <advance width="1604"/>
  <unicode hex="004F"/>
  <anchor x="660" y="0" name="bottom"/>
  <anchor x="946.271" y="717" name="center"/>
  <anchor x="1306" y="10" name="ogonek"/>
  <anchor x="1232.54" y="1434" name="top"/>
  <anchor x="450.541" y="1434" name="topleft"/>
  <anchor x="2014.54" y="1434" name="topright"/>
  <outline>
    <contour>
      <point x="685.568" y="-90" type="curve" smooth="yes"/>
      <point x="369.908" y="-90"/>
      <point x="222.187" y="128.012"/>
      <point x="222.187" y="425.523" type="curve" smooth="yes"/>
      <point x="222.187" y="501.567"/>
      <point x="231.365" y="577.509"/>
      <point x="246.282" y="652" type="curve" smooth="yes"/>
      <point x="272.955" y="785.192"/>
      <point x="321.154" y="913.771"/>
      <point x="386.685" y="1032.67" type="curve" smooth="yes"/>
      <point x="549.171" y="1327.49"/>
      <point x="872.171" y="1633"/>
      <point x="1229.36" y="1633" type="curve" smooth="yes"/>
      <point x="1528.8" y="1633"/>
      <point x="1685.12" y="1376.07"/>
      <point x="1685.12" y="1101.01" type="curve" smooth="yes"/>
      <point x="1685.12" y="1042.48"/>
      <point x="1678.41" y="984.392"/>
      <point x="1667.23" y="927" type="curve" smooth="yes"/>
      <point x="1639.72" y="785.768"/>
      <point x="1579.24" y="646.383"/>
      <point x="1505.91" y="523.14" type="curve" smooth="yes"/>
      <point x="1349.27" y="259.863"/>
      <point x="1016.87" y="-90"/>
    </contour>
    <contour>
      <point x="1027.65" y="1480" type="curve" smooth="yes"/>
      <point x="606.96" y="1480"/>
      <point x="465.06" y="907.819"/>
      <point x="465.06" y="575.68" type="curve" smooth="yes"/>
      <point x="465.06" y="303.57"/>
      <point x="566.834" y="56"/>
      <point x="876.556" y="56" type="curve" smooth="yes"/>
      <point x="1190.82" y="56"/>
      <point x="1358.84" y="445.843"/>
      <point x="1410.67" y="704" type="curve" smooth="yes"/>
      <point x="1427.94" y="789.995"/>
      <point x="1438.63" y="877.725"/>
      <point x="1438.63" y="965.521" type="curve" smooth="yes"/>
      <point x="1438.63" y="1233"/>
      <point x="1330.43" y="1480"/>
    </contour>
  </outline>
</glyph>
<glyph name="P" format="2">
  <advance width="1567"/>
  <unicode hex="0050"/>
  <anchor x="671" y="0" name="bottom"/>
  <anchor x="1243.54" y="1434" name="top"/>
  <outline>
    <contour>
      <point x="712.295" y="582" type="curve"/>
      <point x="677.906" y="408.355"/>
      <point x="658.614" y="264.913"/>
      <point x="507.773" y="149" type="curve"/>
      <point x="855.773" y="149" type="line"/>
      <point x="776.171" y="124.881"/>
      <point x="677.49" y="0"/>
      <point x="611" y="0" type="curve" smooth="yes"/>
      <point x="262" y="0" type="line"/>
      <point x="381.934" y="90.782"/>
      <point x="410.922" y="151.646"/>
      <point x="440.147" y="296" type="curve" smooth="yes"/>
      <point x="670.741" y="1435" type="line"/>
      <point x="415.741" y="1435" type="line"/>
      <point x="453.149" y="1462.83"/>
      <point x="626.961" y="1586"/>
      <point x="661.914" y="1586" type="curve" smooth="yes"/>
      <point x="1382.91" y="1586" type="line" smooth="yes"/>
      <point x="1568.26" y="1586"/>
      <point x="1695.79" y="1509.58"/>
      <point x="1695.79" y="1310.56" type="curve" smooth="yes"/>
      <point x="1695.79" y="1022.5"/>
      <point x="1481.89" y="801.696"/>
      <point x="1248.48" y="663" type="curve" smooth="yes"/>
      <point x="1105.26" y="577.897"/>
      <point x="875.936" y="582.461"/>
    </contour>
    <contour>
      <point x="754.459" y="783" type="line"/>
      <point x="842.651" y="754.15"/>
      <point x="1025.58" y="731"/>
      <point x="1119.35" y="731" type="curve" smooth="yes"/>
      <point x="1333.19" y="731"/>
      <point x="1445.78" y="914.12"/>
      <point x="1445.78" y="1112.23" type="curve" smooth="yes"/>
      <point x="1445.78" y="1403.89"/>
      <point x="1104.51" y="1435.14"/>
      <point x="884.741" y="1435" type="curve"/>
    </contour>
  </outline>
</glyph>
<glyph name="R" format="2">
  <advance width="1796"/>
  <unicode hex="0052"/>
  <anchor x="791" y="0" name="bottom"/>
  <anchor x="1363.54" y="1434" name="top"/>
  <outline>
    <contour>
      <point x="655.883" y="650" type="curve"/>
      <point x="620.35" y="471.372"/>
      <point x="602.381" y="290.658"/>
      <point x="476.773" y="149" type="curve"/>
      <point x="828.773" y="149" type="line"/>
      <point x="756.272" y="123.342"/>
      <point x="649.821" y="0"/>
      <point x="585" y="0" type="curve" smooth="yes"/>
      <point x="222" y="0" type="line"/>
      <point x="302.992" y="73.0025"/>
      <point x="341.544" y="158.761"/>
      <point x="362.752" y="264" type="curve" smooth="yes"/>
      <point x="598.741" y="1435" type="line"/>
      <point x="361.741" y="1435" type="line"/>
      <point x="399.067" y="1462.19"/>
      <point x="572.061" y="1586"/>
      <point x="605.914" y="1586" type="curve" smooth="yes"/>
      <point x="1215.57" y="1586" type="line" smooth="yes"/>
      <point x="1390.81" y="1586"/>
      <point x="1631.47" y="1567.78"/>
      <point x="1631.47" y="1338.18" type="curve" smooth="yes"/>
      <point x="1631.47" y="1087.2"/>
      <point x="1414.22" y="903.052"/>
      <point x="1211.99" y="792.298" type="curve" smooth="yes"/>
      <point x="1020.63" y="687.494"/>
      <point x="873.849" y="650.235"/>
    </contour>
    <contour>
      <point x="812.741" y="1435" type="line"/>
      <point x="686.455" y="803" type="line"/>
      <point x="870.387" y="803" type="line" smooth="yes"/>
      <point x="1087.92" y="803"/>
      <point x="1331.06" y="885.16"/>
      <point x="1381.48" y="1123.4" type="curve" smooth="yes"/>
      <point x="1385.9" y="1144.31"/>
      <point x="1388.2" y="1165.97"/>
      <point x="1388.2" y="1187.34" type="curve" smooth="yes"/>
      <point x="1388.2" y="1397.79"/>
      <point x="1149.1" y="1435"/>
      <point x="985.767" y="1435" type="curve" smooth="yes"/>
    </contour>
    <contour>
      <point x="1872.57" y="183" type="curve"/>
      <point x="1786.62" y="83.1974"/>
      <point x="1640.75" y="-5"/>
      <point x="1506" y="-5" type="curve" smooth="yes"/>
      <point x="1451.96" y="-5"/>
      <point x="1427.8" y="40.5603"/>
      <point x="1400.78" y="79" type="curve" smooth="yes"/>
      <point x="1140.72" y="449" type="line" smooth="yes"/>
      <point x="1064.64" y="557.177"/>
      <point x="1024.13" y="616.879"/>
      <point x="886.957" y="636.838" type="curve" smooth="yes"/>
      <point x="826.654" y="645.613"/>
      <point x="765.011" y="647.825"/>
      <point x="704.197" y="650.435" type="curve"/>
      <point x="756.899" y="666.881"/>
      <point x="1052.31" y="765.506"/>
      <point x="1086.4" y="765.506" type="curve" smooth="yes"/>
      <point x="1314.57" y="765.506"/>
      <point x="1593.86" y="147"/>
      <point x="1763.37" y="147" type="curve" smooth="yes"/>
      <point x="1802.14" y="147"/>
      <point x="1840.29" y="162.474"/>
    </contour>
  </outline>
</glyph>
<glyph name="T" format="2">
  <advance width="1464"/>
  <unicode hex="0054"/>
  <anchor x="614" y="0" name="bottom"/>
  <anchor x="900.271" y="717" name="center"/>
  <anchor x="1186.54" y="1434" name="top"/>
  <outline>
    <contour>
      <point x="1826.91" y="1586" type="line"/>
      <point x="1797.28" y="1576.46"/>
      <point x="1749.11" y="1537.97"/>
      <point x="1723.33" y="1518" type="curve" smooth="yes"/>
      <point x="1692.19" y="1493.89"/>
      <point x="1619.37" y="1435"/>
      <point x="1580.74" y="1435" type="curve" smooth="yes"/>
      <point x="1129.74" y="1435" type="line"/>
      <point x="925.123" y="426" type="line" smooth="yes"/>
      <point x="907.396" y="338.584"/>
      <point x="860.337" y="198.502"/>
      <point x="781.773" y="149" type="curve"/>
      <point x="1145.77" y="149" type="line"/>
      <point x="1083.29" y="134.822"/>
      <point x="960.722" y="0"/>
      <point x="899" y="0" type="curve" smooth="yes"/>
      <point x="515" y="0" type="line"/>
      <point x="619.34" y="77.2637"/>
      <point x="653.421" y="138.303"/>
      <point x="678.752" y="264" type="curve" smooth="yes"/>
      <point x="914.741" y="1435" type="line"/>
      <point x="337.741" y="1435" type="line"/>
      <point x="377.162" y="1462.13"/>
      <point x="549.376" y="1586"/>
      <point x="583.914" y="1586" type="curve" smooth="yes"/>
    </contour>
  </outline>
</glyph>
<glyph name="V" format="2">
  <advance width="1826"/>
  <unicode hex="0056"/>
  <anchor x="811" y="0" name="bottom"/>
  <anchor x="1383.54" y="1434" name="top"/>
  <outline>
    <contour>
      <point x="765.012" y="-65" type="curve"/>
      <point x="708.289" y="323.844"/>
      <point x="688.257" y="719.234"/>
      <point x="580.411" y="1099" type="curve" smooth="yes"/>
      <point x="549.951" y="1206.26"/>
      <point x="482.853" y="1451"/>
      <point x="341.992" y="1451" type="curve" smooth="yes"/>
      <point x="297.713" y="1451"/>
      <point x="257.997" y="1422.22"/>
      <point x="217.346" y="1408" type="curve"/>
      <point x="300.148" y="1475.34"/>
      <point x="469.938" y="1604"/>
      <point x="578.312" y="1604" type="curve" smooth="yes"/>
      <point x="832.062" y="1604"/>
      <point x="961.713" y="432.538"/>
      <point x="1003.76" y="214" type="curve"/>
      <point x="1190.93" y="450.479"/>
      <point x="1792.58" y="1043.95"/>
      <point x="1792.58" y="1325.28" type="curve" smooth="yes"/>
      <point x="1792.58" y="1398.85"/>
      <point x="1757.67" y="1451"/>
      <point x="1678.94" y="1451" type="curve" smooth="yes"/>
      <point x="1651.07" y="1451"/>
      <point x="1622.85" y="1444.31"/>
      <point x="1596.74" y="1435" type="curve"/>
      <point x="1718.74" y="1483.11"/>
      <point x="1772.71" y="1597"/>
      <point x="1917.11" y="1597" type="curve" smooth="yes"/>
      <point x="1994.09" y="1597"/>
      <point x="2037.82" y="1556.64"/>
      <point x="2037.82" y="1479.17" type="curve" smooth="yes"/>
      <point x="2037.82" y="1173.4"/>
      <point x="1351.06" y="502.158"/>
      <point x="1146.16" y="241" type="curve" smooth="yes"/>
      <point x="1051.1" y="119.846"/>
      <point x="1028.71" y="84.221"/>
      <point x="888.198" y="11" type="curve" smooth="yes"/>
      <point x="844.085" y="-11.9875"/>
      <point x="802.528" y="-31.2079"/>
    </contour>
  </outline>
</glyph>
<glyph name="W" format="2">
  <advance width="2373"/>
  <unicode hex="0057"/>
  <anchor x="1151" y="0" name="bottom"/>
  <anchor x="1723.54" y="1434" name="top"/>
  <outline>
    <contour>
      <point x="1513.21" y="-54" type="curve"/>
      <point x="1493.52" y="304.512"/>
      <point x="1484.65" y="665.082"/>
      <point x="1425.82" y="1020" type="curve"/>
      <point x="1309.34" y="812.201"/>
      <point x="1176.49" y="613.445"/>
      <point x="1044.93" y="415" type="curve" smooth="yes"/>
      <point x="980.302" y="317.528"/>
      <point x="883.563" y="198.769"/>
      <point x="836.983" y="95" type="curve"/>
      <point x="770.695" y="35.7992"/>
      <point x="693.154" y="-8.63073"/>
      <point x="617.21" y="-54" type="curve"/>
      <point x="601.174" y="65.2289"/>
      <point x="606.561" y="185.937"/>
      <point x="606.561" y="305.859" type="curve" smooth="yes"/>
      <point x="606.561" y="507.08"/>
      <point x="582.846" y="1451"/>
      <point x="306.938" y="1451" type="curve" smooth="yes"/>
      <point x="262.648" y="1451"/>
      <point x="219.18" y="1436.19"/>
      <point x="180.745" y="1415" type="curve"/>
      <point x="263.849" y="1487.38"/>
      <point x="429.801" y="1604"/>
      <point x="542.511" y="1604" type="curve" smooth="yes"/>
      <point x="584.106" y="1604"/>
      <point x="605.305" y="1590.76"/>
      <point x="634.318" y="1563" type="curve" smooth="yes"/>
      <point x="801.329" y="1403.21"/>
      <point x="824.636" y="503.847"/>
      <point x="829.955" y="250" type="curve"/>
      <point x="982.832" y="486.647"/>
      <point x="1340.62" y="1004.34"/>
      <point x="1340.62" y="1278.72" type="curve" smooth="yes"/>
      <point x="1340.62" y="1334.89"/>
      <point x="1327.05" y="1391.53"/>
      <point x="1289.74" y="1435" type="curve"/>
      <point x="1365.05" y="1481.03"/>
      <point x="1434.28" y="1536.02"/>
      <point x="1506.91" y="1586" type="curve"/>
      <point x="1650.96" y="1440.54"/>
      <point x="1727.09" y="481.862"/>
      <point x="1737.16" y="241" type="curve"/>
      <point x="1891.82" y="449.971"/>
      <point x="2348.04" y="1076.08"/>
      <point x="2348.04" y="1317.13" type="curve" smooth="yes"/>
      <point x="2348.04" y="1388.07"/>
      <point x="2317.43" y="1460"/>
      <point x="2235.74" y="1460" type="curve" smooth="yes"/>
      <point x="2207.48" y="1460"/>
      <point x="2179.12" y="1452.69"/>
      <point x="2153.14" y="1442" type="curve"/>
      <point x="2248.62" y="1490.06"/>
      <point x="2338.05" y="1606"/>
      <point x="2449.91" y="1606" type="curve" smooth="yes"/>
      <point x="2531.28" y="1606"/>
      <point x="2573.52" y="1547.88"/>
      <point x="2573.52" y="1470.91" type="curve" smooth="yes"/>
      <point x="2573.52" y="1455.94"/>
      <point x="2572.11" y="1440.65"/>
      <point x="2568.94" y="1426" type="curve" smooth="yes"/>
      <point x="2523.19" y="1214.08"/>
      <point x="2059.69" y="560.69"/>
      <point x="1917.74" y="334" type="curve" smooth="yes"/>
      <point x="1866.37" y="251.968"/>
      <point x="1826.31" y="162.579"/>
      <point x="1754.98" y="95" type="curve" smooth="yes"/>
      <point x="1696.71" y="39.7896"/>
      <point x="1585.69" y="-15.032"/>
    </contour>
  </outline>
</glyph>
<glyph name="Y" format="2">
  <advance width="1676"/>
  <unicode hex="0059"/>
  <anchor x="736" y="0" name="bottom"/>
  <anchor x="1308.54" y="1434" name="top"/>
  <anchor x="490.541" y="1434" name="topleft"/>
  <outline>
    <contour>
      <point x="1155.08" y="686" type="curve"/>
      <point x="1124.1" y="502.555"/>
      <point x="1102.37" y="292.582"/>
      <point x="971.773" y="149" type="curve"/>
      <point x="1322.77" y="149" type="line"/>
      <point x="1249.01" y="124.361"/>
      <point x="1141.15" y="0"/>
      <point x="1079" y="0" type="curve" smooth="yes"/>
      <point x="696" y="0" type="line"/>
      <point x="784.789" y="81.7425"/>
      <point x="838.26" y="162.634"/>
      <point x="862.349" y="282" type="curve" smooth="yes"/>
      <point x="918.299" y="562" type="line" smooth="yes"/>
      <point x="920.893" y="574.983"/>
      <point x="921.697" y="588.309"/>
      <point x="921.697" y="601.524" type="curve" smooth="yes"/>
      <point x="921.697" y="677.364"/>
      <point x="894.778" y="774.422"/>
      <point x="871.191" y="846.184" type="curve" smooth="yes"/>
      <point x="823.658" y="990.797"/>
      <point x="621.413" y="1469"/>
      <point x="437.535" y="1469" type="curve" smooth="yes"/>
      <point x="388.718" y="1469"/>
      <point x="331.863" y="1441.25"/>
      <point x="291.745" y="1415" type="curve"/>
      <point x="382.376" y="1504.77"/>
      <point x="541.704" y="1606"/>
      <point x="672.91" y="1606" type="curve" smooth="yes"/>
      <point x="908.669" y="1606"/>
      <point x="1127.83" y="961.519"/>
      <point x="1158.26" y="767" type="curve"/>
      <point x="1295.02" y="875.213"/>
      <point x="1649.62" y="1163.45"/>
      <point x="1649.62" y="1346.53" type="curve" smooth="yes"/>
      <point x="1649.62" y="1417.9"/>
      <point x="1602.96" y="1462"/>
      <point x="1532.14" y="1462" type="curve" smooth="yes"/>
      <point x="1511.77" y="1462"/>
      <point x="1491.58" y="1459.58"/>
      <point x="1471.74" y="1455" type="curve"/>
      <point x="1585.65" y="1490.09"/>
      <point x="1628.29" y="1613"/>
      <point x="1772.31" y="1613" type="curve" smooth="yes"/>
      <point x="1840.37" y="1613"/>
      <point x="1896.09" y="1573.83"/>
      <point x="1896.09" y="1501.56" type="curve" smooth="yes"/>
      <point x="1896.09" y="1290.78"/>
      <point x="1320.86" y="828.524"/>
    </contour>
  </outline>
</glyph>
<glyph name="Z" format="2">
  <advance width="1370"/>
  <unicode hex="005A"/>
  <anchor x="583" y="0" name="bottom"/>
  <anchor x="869.271" y="717" name="center"/>
  <anchor x="1155.54" y="1434" name="top"/>
  <outline>
    <contour>
      <point x="1577.51" y="1584" type="curve"/>
      <point x="1471.66" y="1502.3"/>
      <point x="1387.25" y="1397.61"/>
      <point x="1302.77" y="1295" type="curve" smooth="yes"/>
      <point x="832.669" y="724" type="line" smooth="yes"/>
      <point x="677.317" y="535.298"/>
      <point x="528.038" y="335.096"/>
      <point x="334.567" y="183" type="curve"/>
      <point x="441.74" y="194.937"/>
      <point x="549.043" y="210.568"/>
      <point x="657.104" y="210.568" type="curve" smooth="yes"/>
      <point x="845.717" y="210.568"/>
      <point x="1034.7" y="193.924"/>
      <point x="1223.26" y="193.924" type="curve" smooth="yes"/>
      <point x="1282.94" y="193.924"/>
      <point x="1383.74" y="229.763"/>
      <point x="1441.95" y="250" type="curve"/>
      <point x="1339.9" y="147.683"/>
      <point x="1127.57" y="0"/>
      <point x="979" y="0" type="curve" smooth="yes"/>
      <point x="13" y="0" type="line"/>
      <point x="334.166" y="232.459"/>
      <point x="621.889" y="640.203"/>
      <point x="872.829" y="950" type="curve" smooth="yes"/>
      <point x="994.575" y="1100.3"/>
      <point x="1114.37" y="1255.39"/>
      <point x="1265.35" y="1378" type="curve"/>
      <point x="1200.06" y="1375.77"/>
      <point x="1134.92" y="1369"/>
      <point x="1069.55" y="1369" type="curve" smooth="yes"/>
      <point x="900.597" y="1369"/>
      <point x="731.924" y="1380.71"/>
      <point x="563.15" y="1387" type="curve" smooth="yes"/>
      <point x="549.907" y="1387.28" type="line"/>
      <point x="481.971" y="1387.28"/>
      <point x="415.438" y="1365.62"/>
      <point x="354.959" y="1336" type="curve"/>
      <point x="476.402" y="1469.6"/>
      <point x="587.309" y="1593"/>
      <point x="782.313" y="1593" type="curve" smooth="yes"/>
      <point x="982.277" y="1593"/>
      <point x="1181.75" y="1575"/>
      <point x="1381.72" y="1575" type="curve" smooth="yes"/>
      <point x="1447.07" y="1575"/>
      <point x="1512.28" y="1580.8"/>
    </contour>
  </outline>
</glyph>
<glyph name="backslash" format="2">
  <advance width="1039"/>
  <unicode hex="005C"/>
  <outline>
    <contour>
      <point x="1022.77" y="149" type="curve"/>
      <point x="942.062" y="98.2436"/>
      <point x="864.996" y="41.8329"/>
      <point x="779" y="0" type="curve"/>
      <point x="592.921" y="458.91"/>
      <point x="472.486" y="943.54"/>
      <point x="413.741" y="1435" type="curve"/>
      <point x="657.914" y="1586" type="line"/>
      <point x="716.228" y="1093.27"/>
      <point x="847.076" y="612.296"/>
    </contour>
  </outline>
</glyph>
<glyph name="asciicircum" format="2">
  <advance width="1295"/>
  <unicode hex="005E"/>
  <outline>
    <contour>
      <point x="999.227" y="957" type="curve" smooth="yes"/>
      <point x="999.227" y="935.546"/>
      <point x="788.197" y="840.184"/>
      <point x="755.254" y="812" type="curve"/>
      <point x="666.977" y="1236" type="line"/>
      <point x="605.139" y="1145.02"/>
      <point x="543.887" y="1053.55"/>
      <point x="481.426" y="963" type="curve" smooth="yes"/>
      <point x="430.583" y="889.291"/>
      <point x="287.288" y="869.296"/>
      <point x="239.254" y="812" type="curve"/>
      <point x="633.947" y="1401" type="line" smooth="yes"/>
      <point x="653.28" y="1429.85"/>
      <point x="832.764" y="1524.8"/>
      <point x="875.721" y="1550" type="curve"/>
      <point x="905.637" y="1418.79"/>
      <point x="933.796" y="1287.07"/>
      <point x="961.457" y="1155.37" type="curve" smooth="yes"/>
      <point x="970.652" y="1111.59"/>
      <point x="999.227" y="998.114"/>
    </contour>
  </outline>
</glyph>
<glyph name="underscore" format="2">
  <advance width="1024"/>
  <unicode hex="005F"/>
  <outline>
    <contour>
      <point x="961.84" y="-221" type="line"/>
      <point x="894.075" y="-236.957"/>
      <point x="779.832" y="-370"/>
      <point x="718.067" y="-370" type="curve" smooth="yes"/>
      <point x="-75.9333" y="-370" type="line"/>
      <point x="-6.21" y="-353.824"/>
      <point x="99.4804" y="-221"/>
      <point x="167.84" y="-221" type="curve" smooth="yes"/>
    </contour>
  </outline>
</glyph>
<glyph name="a" format="2">
  <advance width="1369"/>
  <unicode hex="0061"/>
  <anchor x="583" y="0" name="bottom"/>
  <anchor x="1134" y="10" name="ogonek"/>
  <anchor x="991.615" y="1024" name="top"/>
  <outline>
    <contour>
      <point x="1115.9" y="230.325" type="curve" smooth="yes"/>
      <point x="1115.9" y="158.845"/>
      <point x="1154.98" y="133"/>
      <point x="1223.58" y="133" type="curve" smooth="yes"/>
      <point x="1245.93" y="133"/>
      <point x="1268.13" y="135.208"/>
      <point x="1289.97" y="140" type="curve"/>
      <point x="1203.11" y="73.7227"/>
      <point x="1094.22" y="-18"/>
      <point x="979.403" y="-18" type="curve" smooth="yes"/>
      <point x="914.886" y="-18"/>
      <point x="869.576" y="-1.566"/>
      <point x="869.576" y="70.1626" type="curve" smooth="yes"/>
      <point x="869.576" y="94.9058"/>
      <point x="873.795" y="119.851"/>
      <point x="878.774" y="144" type="curve"/>
      <point x="770.628" y="74.1215"/>
      <point x="647.995" y="-23"/>
      <point x="513.404" y="-23" type="curve" smooth="yes"/>
      <point x="310.908" y="-23"/>
      <point x="205.062" y="94.563"/>
      <point x="205.062" y="293.107" type="curve" smooth="yes"/>
      <point x="205.062" y="697.151"/>
      <point x="586.601" y="1092"/>
      <point x="993.203" y="1092" type="curve" smooth="yes"/>
      <point x="1089.86" y="1092"/>
      <point x="1179.96" y="1054.62"/>
      <point x="1271.61" y="1029" type="curve"/>
      <point x="1124.94" y="305" type="line" smooth="yes"/>
      <point x="1119.98" y="280.507"/>
      <point x="1115.9" y="255.394"/>
    </contour>
    <contour>
      <point x="1008.86" y="785" type="line"/>
      <point x="964.674" y="894.518"/>
      <point x="890.255" y="945"/>
      <point x="771.83" y="945" type="curve" smooth="yes"/>
      <point x="537.237" y="945"/>
      <point x="442.952" y="586.791"/>
      <point x="442.952" y="400.593" type="curve" smooth="yes"/>
      <point x="442.952" y="223.095"/>
      <point x="528.042" y="126"/>
      <point x="710.177" y="126" type="curve" smooth="yes"/>
      <point x="763.455" y="126"/>
      <point x="888.323" y="181.779"/>
      <point x="899.757" y="239" type="curve" smooth="yes"/>
    </contour>
  </outline>
</glyph>
<glyph name="b" format="2">
  <advance width="1259"/>
  <unicode hex="0062"/>
  <anchor x="528" y="0" name="bottom"/>
  <anchor x="732.308" y="512" name="center"/>
  <anchor x="936.615" y="1024" name="top"/>
  <outline>
    <contour>
      <point x="545.807" y="-36" type="curve" smooth="yes"/>
      <point x="372.074" y="-36"/>
      <point x="242.25" y="84.1651"/>
      <point x="242.25" y="260.185" type="curve" smooth="yes"/>
      <point x="242.25" y="285.083"/>
      <point x="245.184" y="309.558"/>
      <point x="249.74" y="334" type="curve" smooth="yes"/>
      <point x="318.873" y="704.898"/>
      <point x="401.188" y="1073.67"/>
      <point x="473.54" y="1444" type="curve" smooth="yes"/>
      <point x="479.303" y="1473.5"/>
      <point x="485.253" y="1503.3"/>
      <point x="485.253" y="1533.51" type="curve" smooth="yes"/>
      <point x="485.253" y="1584.58"/>
      <point x="466.189" y="1620"/>
      <point x="409.708" y="1620" type="curve" smooth="yes"/>
      <point x="377.833" y="1620"/>
      <point x="345.91" y="1613.05"/>
      <point x="315.511" y="1604" type="curve"/>
      <point x="463.485" y="1705.09"/>
      <point x="614.107" y="1804.24"/>
      <point x="777.461" y="1879" type="curve"/>
      <point x="576.64" y="889" type="line"/>
      <point x="699.147" y="981.84"/>
      <point x="860.476" y="1081"/>
      <point x="1019.01" y="1081" type="curve" smooth="yes"/>
      <point x="1216.48" y="1081"/>
      <point x="1320.18" y="943.634"/>
      <point x="1320.18" y="755.288" type="curve" smooth="yes"/>
      <point x="1320.18" y="392.144"/>
      <point x="912.147" y="-36"/>
    </contour>
    <contour>
      <point x="793.632" y="934" type="curve" smooth="yes"/>
      <point x="600.471" y="934"/>
      <point x="534.087" y="696.246"/>
      <point x="503.702" y="544" type="curve" smooth="yes"/>
      <point x="491.23" y="481.507"/>
      <point x="469.431" y="388.572"/>
      <point x="469.431" y="326.578" type="curve" smooth="yes"/>
      <point x="469.431" y="180.437"/>
      <point x="591.967" y="104"/>
      <point x="726.781" y="104" type="curve" smooth="yes"/>
      <point x="984.377" y="104"/>
      <point x="1079.15" y="376.869"/>
      <point x="1079.15" y="593.372" type="curve" smooth="yes"/>
      <point x="1079.15" y="779.425"/>
      <point x="1000.1" y="934"/>
    </contour>
  </outline>
</glyph>
<glyph name="c" format="2">
  <advance width="1119"/>
  <unicode hex="0063"/>
  <anchor x="335" y="0" name="bottom"/>
  <anchor x="743.615" y="1024" name="top"/>
  <outline>
    <contour>
      <point x="1016.45" y="853" type="curve"/>
      <point x="1022.37" y="858.001"/>
      <point x="1044.24" y="879.337"/>
      <point x="1044.24" y="887" type="curve" smooth="yes"/>
      <point x="1044.24" y="931.828"/>
      <point x="858.217" y="963"/>
      <point x="820.426" y="963" type="curve" smooth="yes"/>
      <point x="568.18" y="963"/>
      <point x="457.461" y="690.65"/>
      <point x="457.461" y="474.823" type="curve" smooth="yes"/>
      <point x="457.461" y="247.665"/>
      <point x="594.777" y="133"/>
      <point x="816.576" y="133" type="curve" smooth="yes"/>
      <point x="908.84" y="133"/>
      <point x="1000.58" y="157.713"/>
      <point x="1082.76" y="199" type="curve"/>
      <point x="947.14" y="78.9464"/>
      <point x="739.759" y="-18"/>
      <point x="556.403" y="-18" type="curve" smooth="yes"/>
      <point x="350.959" y="-18"/>
      <point x="208.983" y="107.231"/>
      <point x="208.983" y="316.717" type="curve" smooth="yes"/>
      <point x="208.983" y="702.688"/>
      <point x="691.524" y="1110"/>
      <point x="1063.8" y="1110" type="curve" smooth="yes"/>
      <point x="1104.87" y="1110"/>
      <point x="1286.01" y="1088.06"/>
      <point x="1286.01" y="1036" type="curve" smooth="yes"/>
      <point x="1286.01" y="992.135"/>
      <point x="1062.54" y="864.693"/>
    </contour>
  </outline>
</glyph>
<glyph name="d" format="2">
  <advance width="1368"/>
  <unicode hex="0064"/>
  <anchor x="582" y="0" name="bottom"/>
  <anchor x="786.308" y="512" name="center"/>
  <anchor x="1282.08" y="1752" name="top"/>
  <anchor x="1946.08" y="1752" name="topright"/>
  <outline>
    <contour>
      <point x="1162.64" y="228.839" type="curve" smooth="yes"/>
      <point x="1162.64" y="157.191"/>
      <point x="1202.52" y="133"/>
      <point x="1270.58" y="133" type="curve" smooth="yes"/>
      <point x="1292.93" y="133"/>
      <point x="1315.13" y="135.208"/>
      <point x="1336.97" y="140" type="curve"/>
      <point x="1246.61" y="76.2121"/>
      <point x="1139.75" y="-18"/>
      <point x="1023.4" y="-18" type="curve" smooth="yes"/>
      <point x="959.888" y="-18"/>
      <point x="916.36" y="-0.696377"/>
      <point x="916.36" y="69.2563" type="curve" smooth="yes"/>
      <point x="916.36" y="94.3505"/>
      <point x="920.783" y="119.494"/>
      <point x="925.774" y="144" type="curve"/>
      <point x="813.492" y="73.9741"/>
      <point x="662.248" y="-23"/>
      <point x="526.404" y="-23" type="curve" smooth="yes"/>
      <point x="319.991" y="-23"/>
      <point x="197.056" y="98.1222"/>
      <point x="197.056" y="304.5" type="curve" smooth="yes"/>
      <point x="197.056" y="715.912"/>
      <point x="642.956" y="1092"/>
      <point x="1040.2" y="1092" type="curve" smooth="yes"/>
      <point x="1065.53" y="1092"/>
      <point x="1090.96" y="1090.08"/>
      <point x="1115.8" y="1085" type="curve"/>
      <point x="1195.13" y="1482" type="line" smooth="yes"/>
      <point x="1198.6" y="1499.35"/>
      <point x="1200.99" y="1517.05"/>
      <point x="1200.99" y="1534.78" type="curve" smooth="yes"/>
      <point x="1200.99" y="1585.15"/>
      <point x="1180.4" y="1620"/>
      <point x="1125.71" y="1620" type="curve" smooth="yes"/>
      <point x="1092.43" y="1620"/>
      <point x="1059.46" y="1612.65"/>
      <point x="1027.51" y="1604" type="curve"/>
      <point x="1176.71" y="1703.31"/>
      <point x="1326.44" y="1805.34"/>
      <point x="1490.46" y="1879" type="curve"/>
      <point x="1171.95" y="305" type="line" smooth="yes"/>
      <point x="1166.89" y="280.003"/>
      <point x="1162.64" y="254.419"/>
    </contour>
    <contour>
      <point x="1055.86" y="785" type="line"/>
      <point x="1008.39" y="894.191"/>
      <point x="899.482" y="945"/>
      <point x="784.83" y="945" type="curve" smooth="yes"/>
      <point x="533.068" y="945"/>
      <point x="440.821" y="669.755"/>
      <point x="440.821" y="459.531" type="curve" smooth="yes"/>
      <point x="440.821" y="253.679"/>
      <point x="543.611" y="126"/>
      <point x="757.177" y="126" type="curve" smooth="yes"/>
      <point x="810.056" y="126"/>
      <point x="935.403" y="182.18"/>
      <point x="946.757" y="239" type="curve" smooth="yes"/>
    </contour>
  </outline>
</glyph>
<glyph name="e" format="2">
  <advance width="1109"/>
  <unicode hex="0065"/>
  <anchor x="392" y="0" name="bottom"/>
  <anchor x="838.998" y="10" name="ogonek"/>
  <anchor x="800.615" y="1024" name="top"/>
  <outline>
    <contour>
      <point x="397.126" y="411" type="curve"/>
      <point x="408.359" y="203.53"/>
      <point x="585.894" y="133"/>
      <point x="769.41" y="133" type="curve" smooth="yes"/>
      <point x="879.307" y="133"/>
      <point x="994.066" y="162.064"/>
      <point x="1095.56" y="203" type="curve"/>
      <point x="950.931" y="72.546"/>
      <point x="718.101" y="-16"/>
      <point x="523.345" y="-16" type="curve" smooth="yes"/>
      <point x="323.412" y="-16"/>
      <point x="158.973" y="132.061"/>
      <point x="158.973" y="335.732" type="curve" smooth="yes"/>
      <point x="158.973" y="358.579"/>
      <point x="161.11" y="381.611"/>
      <point x="165.727" y="404" type="curve" smooth="yes"/>
      <point x="219.931" y="666.842"/>
      <point x="519.049" y="913.751"/>
      <point x="755.126" y="1012.44" type="curve" smooth="yes"/>
      <point x="855.529" y="1054.42"/>
      <point x="963.596" y="1081"/>
      <point x="1072.83" y="1081" type="curve" smooth="yes"/>
      <point x="1152.67" y="1081"/>
      <point x="1229.5" y="1033.56"/>
      <point x="1229.5" y="946.661" type="curve" smooth="yes"/>
      <point x="1229.5" y="718.613"/>
      <point x="579.794" y="491.88"/>
    </contour>
    <contour>
      <point x="792.403" y="925" type="curve" smooth="yes"/>
      <point x="524.102" y="925"/>
      <point x="405.575" y="702.827"/>
      <point x="396.916" y="465" type="curve"/>
      <point x="509.767" y="488.055"/>
      <point x="988.104" y="676.507"/>
      <point x="988.104" y="802.746" type="curve" smooth="yes"/>
      <point x="988.104" y="886.118"/>
      <point x="858.277" y="925"/>
    </contour>
  </outline>
</glyph>
<glyph name="f" format="2">
  <advance width="837"/>
  <unicode hex="0066"/>
  <anchor x="317" y="0" name="bottom"/>
  <anchor x="1017.08" y="1752" name="top"/>
  <outline>
    <contour>
      <point x="1477.68" y="1800" type="curve" smooth="yes"/>
      <point x="1477.68" y="1756.15"/>
      <point x="1248.65" y="1627.53"/>
      <point x="1202.31" y="1618" type="curve"/>
      <point x="1209.67" y="1623.38"/>
      <point x="1232.9" y="1640.84"/>
      <point x="1232.9" y="1651" type="curve" smooth="yes"/>
      <point x="1232.9" y="1695.04"/>
      <point x="1054.31" y="1737"/>
      <point x="1016.09" y="1737" type="curve" smooth="yes"/>
      <point x="976.568" y="1737"/>
      <point x="936.703" y="1734.86"/>
      <point x="898.489" y="1724" type="curve"/>
      <point x="742.107" y="1554.03"/>
      <point x="718.625" y="1310.22"/>
      <point x="675.603" y="1094" type="curve"/>
      <point x="1088.6" y="1094" type="line"/>
      <point x="1050.14" y="1080.86"/>
      <point x="1009.22" y="1047.06"/>
      <point x="977.216" y="1022" type="curve" smooth="yes"/>
      <point x="947.206" y="998.503"/>
      <point x="879.07" y="943"/>
      <point x="841.43" y="943" type="curve" smooth="yes"/>
      <point x="645.43" y="943" type="line"/>
      <point x="583.951" y="643.667"/>
      <point x="522.673" y="344.291"/>
      <point x="460.992" y="45" type="curve" smooth="yes"/>
      <point x="401.988" y="-241.297"/>
      <point x="115.633" y="-663"/>
      <point x="-208.48" y="-663" type="curve" smooth="yes"/>
      <point x="-233.126" y="-663"/>
      <point x="-269.697" y="-655.565"/>
      <point x="-269.697" y="-623.626" type="curve" smooth="yes"/>
      <point x="-269.697" y="-542.345"/>
      <point x="-53.1202" y="-456.418"/>
      <point x="8.4745" y="-413" type="curve"/>
      <point x="-9.9404" y="-426.322"/>
      <point x="-29.4212" y="-448.532"/>
      <point x="-29.4212" y="-472.612" type="curve" smooth="yes"/>
      <point x="-29.4212" y="-502.706"/>
      <point x="-0.3884" y="-514.353"/>
      <point x="25.1819" y="-514.353" type="curve"/>
      <point x="33.2927" y="-514" type="line"/>
      <point x="157.078" y="-356.502"/>
      <point x="206.498" y="-167.664"/>
      <point x="244.995" y="25" type="curve" smooth="yes"/>
      <point x="428.43" y="943" type="line"/>
      <point x="290.43" y="943" type="line"/>
      <point x="452.61" y="1054" type="line"/>
      <point x="534.4" y="1464.65"/>
      <point x="573.644" y="1561.06"/>
      <point x="944.079" y="1782" type="curve" smooth="yes"/>
      <point x="1039.06" y="1838.65"/>
      <point x="1149.51" y="1886"/>
      <point x="1261.86" y="1886" type="curve" smooth="yes"/>
      <point x="1304.18" y="1886"/>
      <point x="1477.68" y="1851.98"/>
    </contour>
  </outline>
</glyph>
<glyph name="i" format="2">
  <advance width="771"/>
  <unicode hex="0069"/>
  <anchor x="284" y="0" name="bottom"/>
  <outline>
    <contour>
      <point x="888.663" y="1870" type="line"/>
      <point x="878.446" y="1810.94"/>
      <point x="865.826" y="1688.16"/>
      <point x="837.906" y="1631" type="curve" smooth="yes"/>
      <point x="829.622" y="1614.04"/>
      <point x="629.529" y="1501.03"/>
      <point x="595.733" y="1480" type="curve"/>
      <point x="643.49" y="1719" type="line"/>
    </contour>
    <contour>
      <point x="569.932" y="223.083" type="curve" smooth="yes"/>
      <point x="569.932" y="143.769"/>
      <point x="627.894" y="129"/>
      <point x="695.777" y="129" type="curve" smooth="yes"/>
      <point x="719.595" y="129"/>
      <point x="743.506" y="130.907"/>
      <point x="766.976" y="135" type="curve"/>
      <point x="677.868" y="71.6756"/>
      <point x="568.585" y="-20"/>
      <point x="454.004" y="-20" type="curve" smooth="yes"/>
      <point x="378.544" y="-20"/>
      <point x="327.781" y="3.27355"/>
      <point x="327.781" y="85.7079" type="curve" smooth="yes"/>
      <point x="327.781" y="108.292"/>
      <point x="331.075" y="130.913"/>
      <point x="335.572" y="153" type="curve" smooth="yes"/>
      <point x="442.278" y="677" type="line" smooth="yes"/>
      <point x="447.871" y="704.467"/>
      <point x="452.941" y="732.505"/>
      <point x="452.941" y="760.628" type="curve" smooth="yes"/>
      <point x="452.941" y="810.899"/>
      <point x="434.259" y="846"/>
      <point x="379.047" y="846" type="curve" smooth="yes"/>
      <point x="346.009" y="846"/>
      <point x="313.409" y="838.812"/>
      <point x="281.25" y="832" type="curve"/>
      <point x="433.007" y="928.633"/>
      <point x="581.65" y="1032.15"/>
      <point x="745.4" y="1108" type="curve"/>
      <point x="575.551" y="273" type="line" smooth="yes"/>
      <point x="572.217" y="256.612"/>
      <point x="569.932" y="239.833"/>
    </contour>
  </outline>
</glyph>
<glyph name="k" format="2">
  <advance width="1293"/>
  <unicode hex="006B"/>
  <anchor x="545" y="0" name="bottom"/>
  <anchor x="1245.08" y="1752" name="top"/>
  <outline>
    <contour>
      <point x="1273.57" y="183" type="curve"/>
      <point x="1228.19" y="159.164"/>
      <point x="1173.32" y="140"/>
      <point x="1121.58" y="140" type="curve" smooth="yes"/>
      <point x="1055.08" y="140"/>
      <point x="832.412" y="518.385"/>
      <point x="783.375" y="588.873" type="curve"/>
      <point x="904.055" y="648.212"/>
      <point x="1168.7" y="784.416"/>
      <point x="1168.7" y="940.504" type="curve" smooth="yes"/>
      <point x="1168.7" y="1023.23"/>
      <point x="1098.05" y="1067"/>
      <point x="1021.82" y="1067" type="curve" smooth="yes"/>
      <point x="893.886" y="1067"/>
      <point x="693.401" y="961.274"/>
      <point x="590.24" y="887" type="curve"/>
      <point x="797.058" y="1897" type="line"/>
      <point x="632.009" y="1824.24"/>
      <point x="483.286" y="1720.64"/>
      <point x="333.108" y="1622" type="curve"/>
      <point x="365.04" y="1630.59"/>
      <point x="398.067" y="1638"/>
      <point x="431.305" y="1638" type="curve" smooth="yes"/>
      <point x="485.233" y="1638"/>
      <point x="504.727" y="1600.4"/>
      <point x="504.727" y="1551.71" type="curve" smooth="yes"/>
      <point x="504.727" y="1536.03"/>
      <point x="502.798" y="1520.36"/>
      <point x="499.729" y="1505" type="curve" smooth="yes"/>
      <point x="225.976" y="135" type="line" smooth="yes"/>
      <point x="221.146" y="110.829"/>
      <point x="217.195" y="86.2252"/>
      <point x="217.195" y="61.5069" type="curve" smooth="yes"/>
      <point x="217.195" y="15.9455"/>
      <point x="231.979" y="-23"/>
      <point x="284.404" y="-23" type="curve" smooth="yes"/>
      <point x="371.079" y="-23"/>
      <point x="501.189" y="87.9464"/>
      <point x="571.575" y="138" type="curve"/>
      <point x="555.41" y="131.147"/>
      <point x="537.884" y="126"/>
      <point x="520.177" y="126" type="curve" smooth="yes"/>
      <point x="469.974" y="126"/>
      <point x="457" y="165.626"/>
      <point x="457" y="208.487" type="curve" smooth="yes"/>
      <point x="457" y="283.159"/>
      <point x="484.082" y="358.443"/>
      <point x="499.123" y="431" type="curve" smooth="yes"/>
      <point x="528.625" y="573.326"/>
      <point x="579.094" y="916"/>
      <point x="771.658" y="916" type="curve" smooth="yes"/>
      <point x="839.681" y="916"/>
      <point x="926.169" y="884.145"/>
      <point x="926.169" y="803.411" type="curve" smooth="yes"/>
      <point x="926.169" y="654.088"/>
      <point x="632.268" y="544.787"/>
      <point x="514.964" y="510.017" type="curve"/>
      <point x="500.411" y="493.249" type="line"/>
      <point x="596.653" y="357.575"/>
      <point x="687.051" y="217.678"/>
      <point x="781.79" y="80.9115" type="curve" smooth="yes"/>
      <point x="813.448" y="35.2099"/>
      <point x="851.718" y="-18"/>
      <point x="913.674" y="-18" type="curve" smooth="yes"/>
      <point x="1040.25" y="-18"/>
      <point x="1190.96" y="93.5502"/>
    </contour>
  </outline>
</glyph>
<glyph name="l" format="2">
  <advance width="695"/>
  <unicode hex="006C"/>
  <anchor x="246" y="0" name="bottom"/>
  <anchor x="596.042" y="876" name="center"/>
  <anchor x="946.084" y="1752" name="top"/>
  <anchor x="1273.08" y="1752" name="topright"/>
  <outline>
    <contour>
      <point x="475.391" y="223.476" type="curve" smooth="yes"/>
      <point x="475.391" y="141.41"/>
      <point x="534.542" y="131"/>
      <point x="604.176" y="131" type="curve" smooth="yes"/>
      <point x="627.47" y="131"/>
      <point x="650.788" y="133.074"/>
      <point x="673.575" y="138" type="curve"/>
      <point x="573.113" y="67.4942"/>
      <point x="469.188" y="-23"/>
      <point x="339.404" y="-23" type="curve" smooth="yes"/>
      <point x="261.637" y="-23"/>
      <point x="241.447" y="37.36"/>
      <point x="241.447" y="104.14" type="curve" smooth="yes"/>
      <point x="241.447" y="148.183"/>
      <point x="249.285" y="191.964"/>
      <point x="257.958" y="235" type="curve" smooth="yes"/>
      <point x="495.145" y="1412" type="line" smooth="yes"/>
      <point x="501.389" y="1442.98"/>
      <point x="506.23" y="1474.64"/>
      <point x="506.23" y="1506.31" type="curve" smooth="yes"/>
      <point x="506.23" y="1583.3"/>
      <point x="473.882" y="1627.73"/>
      <point x="393.031" y="1627.73" type="curve" smooth="yes"/>
      <point x="378.128" y="1627.73"/>
      <point x="363.222" y="1626.29"/>
      <point x="348.507" y="1624" type="curve"/>
      <point x="493.418" y="1714.21"/>
      <point x="644.949" y="1793.77"/>
      <point x="801.865" y="1861" type="curve"/>
      <point x="484.546" y="298" type="line" smooth="yes"/>
      <point x="479.583" y="273.552"/>
      <point x="475.391" y="248.495"/>
    </contour>
  </outline>
</glyph>
<glyph name="m" format="2">
  <advance width="2097"/>
  <unicode hex="006D"/>
  <anchor x="947" y="0" name="bottom"/>
  <anchor x="1355.62" y="1024" name="top"/>
  <outline>
    <contour>
      <point x="2045.77" y="149" type="curve"/>
      <point x="1951.63" y="83"/>
      <point x="1835.22" y="-16"/>
      <point x="1714.8" y="-16" type="curve" smooth="yes"/>
      <point x="1642.87" y="-16"/>
      <point x="1609.73" y="18.8012"/>
      <point x="1609.73" y="89.437" type="curve" smooth="yes"/>
      <point x="1609.73" y="134.347"/>
      <point x="1620.74" y="179.198"/>
      <point x="1629.56" y="223" type="curve" smooth="yes"/>
      <point x="1657.43" y="361.412"/>
      <point x="1687.35" y="499.448"/>
      <point x="1714.48" y="638" type="curve" smooth="yes"/>
      <point x="1720.97" y="671.104"/>
      <point x="1726.1" y="704.625"/>
      <point x="1726.1" y="738.441" type="curve" smooth="yes"/>
      <point x="1726.1" y="867.356"/>
      <point x="1647.8" y="916"/>
      <point x="1525.14" y="916" type="curve" smooth="yes"/>
      <point x="1354.62" y="916"/>
      <point x="1256.47" y="767.742"/>
      <point x="1226.09" y="616" type="curve" smooth="yes"/>
      <point x="1163.35" y="302" type="line" smooth="yes"/>
      <point x="1158.65" y="278.518"/>
      <point x="1154.87" y="254.587"/>
      <point x="1154.87" y="230.579" type="curve" smooth="yes"/>
      <point x="1154.87" y="163.334"/>
      <point x="1188.55" y="133"/>
      <point x="1255.58" y="133" type="curve" smooth="yes"/>
      <point x="1285.92" y="133"/>
      <point x="1315.98" y="139.922"/>
      <point x="1344.77" y="149" type="curve"/>
      <point x="1251.16" y="83.3759"/>
      <point x="1133.37" y="-16"/>
      <point x="1013.8" y="-16" type="curve" smooth="yes"/>
      <point x="942.766" y="-16"/>
      <point x="911.678" y="20.0322"/>
      <point x="911.678" y="88.915" type="curve" smooth="yes"/>
      <point x="911.678" y="134.015"/>
      <point x="922.7" y="179.014"/>
      <point x="931.56" y="223" type="curve" smooth="yes"/>
      <point x="959.439" y="361.409"/>
      <point x="989.385" y="499.442"/>
      <point x="1016.49" y="638" type="curve" smooth="yes"/>
      <point x="1022.98" y="671.198"/>
      <point x="1028" y="704.82"/>
      <point x="1028" y="738.725" type="curve" smooth="yes"/>
      <point x="1028" y="862.826"/>
      <point x="958.061" y="916"/>
      <point x="836.86" y="916" type="curve" smooth="yes"/>
      <point x="659.095" y="916"/>
      <point x="571.355" y="722.229"/>
      <point x="541.497" y="573" type="curve" smooth="yes"/>
      <point x="473.358" y="232" type="line" smooth="yes"/>
      <point x="471.354" y="221.972"/>
      <point x="470.25" y="211.741"/>
      <point x="470.25" y="201.51" type="curve" smooth="yes"/>
      <point x="470.25" y="161.078"/>
      <point x="488.12" y="126"/>
      <point x="533.177" y="126" type="curve" smooth="yes"/>
      <point x="551.252" y="126"/>
      <point x="568.996" y="131.169"/>
      <point x="585.575" y="138" type="curve"/>
      <point x="518.526" y="87.694"/>
      <point x="374.385" y="-23"/>
      <point x="291.2" y="-23" type="curve" smooth="yes"/>
      <point x="247.821" y="-23"/>
      <point x="224.938" y="5.5114"/>
      <point x="224.938" y="47.2702" type="curve" smooth="yes"/>
      <point x="224.938" y="56.247"/>
      <point x="225.982" y="65.2134"/>
      <point x="227.787" y="74" type="curve" smooth="yes"/>
      <point x="373.459" y="783" type="line" smooth="yes"/>
      <point x="377.179" y="801.108"/>
      <point x="379.969" y="819.593"/>
      <point x="379.969" y="838.122" type="curve" smooth="yes"/>
      <point x="379.969" y="907.971"/>
      <point x="335.531" y="927"/>
      <point x="272.233" y="927" type="curve" smooth="yes"/>
      <point x="239.338" y="927"/>
      <point x="206.553" y="919.923"/>
      <point x="175.636" y="909" type="curve"/>
      <point x="319.844" y="961.376"/>
      <point x="342.844" y="1078"/>
      <point x="525.406" y="1078" type="curve" smooth="yes"/>
      <point x="588.494" y="1078"/>
      <point x="620.804" y="1047.86"/>
      <point x="620.804" y="984.813" type="curve" smooth="yes"/>
      <point x="620.804" y="950.69"/>
      <point x="612.745" y="916.686"/>
      <point x="603.641" y="884" type="curve"/>
      <point x="727.992" y="956.974"/>
      <point x="956.551" y="1069"/>
      <point x="1099.85" y="1069" type="curve" smooth="yes"/>
      <point x="1194.52" y="1069"/>
      <point x="1283.76" y="1013.18"/>
      <point x="1283.76" y="910.545" type="curve" smooth="yes"/>
      <point x="1283.76" y="900.98"/>
      <point x="1282.9" y="891.419"/>
      <point x="1281.24" y="882" type="curve"/>
      <point x="1412.55" y="950.66"/>
      <point x="1652.57" y="1069"/>
      <point x="1798.73" y="1069" type="curve" smooth="yes"/>
      <point x="1907.37" y="1069"/>
      <point x="1979.79" y="1003.13"/>
      <point x="1979.79" y="893.285" type="curve" smooth="yes"/>
      <point x="1979.79" y="877.418"/>
      <point x="1978.16" y="861.556"/>
      <point x="1975.05" y="846" type="curve" smooth="yes"/>
      <point x="1862.75" y="284" type="line" smooth="yes"/>
      <point x="1858.3" y="261.724"/>
      <point x="1854.36" y="238.996"/>
      <point x="1854.36" y="216.207" type="curve" smooth="yes"/>
      <point x="1854.36" y="150.53"/>
      <point x="1894.4" y="133"/>
      <point x="1954.58" y="133" type="curve" smooth="yes"/>
      <point x="1985.55" y="133"/>
      <point x="2016.17" y="140.553"/>
    </contour>
  </outline>
</glyph>
<glyph name="n" format="2">
  <advance width="1456"/>
  <unicode hex="006E"/>
  <anchor x="626" y="0" name="bottom"/>
  <anchor x="1034.62" y="1024" name="top"/>
  <outline>
    <contour>
      <point x="1398.77" y="149" type="curve"/>
      <point x="1306.79" y="78.5153"/>
      <point x="1190.31" y="-16"/>
      <point x="1068.8" y="-16" type="curve" smooth="yes"/>
      <point x="997.383" y="-16"/>
      <point x="965.752" y="19.8898"/>
      <point x="965.752" y="89.3306" type="curve" smooth="yes"/>
      <point x="965.752" y="134.293"/>
      <point x="976.727" y="179.148"/>
      <point x="985.56" y="223" type="curve" smooth="yes"/>
      <point x="1013.17" y="360.06"/>
      <point x="1043.26" y="496.72"/>
      <point x="1069.69" y="634" type="curve" smooth="yes"/>
      <point x="1075.41" y="663.755"/>
      <point x="1079.48" y="693.824"/>
      <point x="1079.48" y="724.18" type="curve" smooth="yes"/>
      <point x="1079.48" y="856.054"/>
      <point x="1004.07" y="916"/>
      <point x="875.572" y="916" type="curve" smooth="yes"/>
      <point x="696.166" y="916"/>
      <point x="648.493" y="713.082"/>
      <point x="620.497" y="573" type="curve" smooth="yes"/>
      <point x="550.16" y="221" type="line" smooth="yes"/>
      <point x="548.817" y="214.278"/>
      <point x="548.136" y="207.421"/>
      <point x="548.136" y="200.566" type="curve" smooth="yes"/>
      <point x="548.136" y="161.941"/>
      <point x="570.038" y="126"/>
      <point x="612.177" y="126" type="curve" smooth="yes"/>
      <point x="630.252" y="126"/>
      <point x="647.996" y="131.169"/>
      <point x="664.575" y="138" type="curve"/>
      <point x="591.193" y="87.9236"/>
      <point x="457.259" y="-23"/>
      <point x="368.404" y="-23" type="curve" smooth="yes"/>
      <point x="320.775" y="-23"/>
      <point x="303.957" y="6.64366"/>
      <point x="303.957" y="50.3174" type="curve" smooth="yes"/>
      <point x="303.957" y="71.4367"/>
      <point x="307.555" y="92.3424"/>
      <point x="311.58" y="113" type="curve" smooth="yes"/>
      <point x="355.197" y="336.865"/>
      <point x="406.808" y="559.221"/>
      <point x="450.459" y="783" type="curve" smooth="yes"/>
      <point x="453.773" y="799.988"/>
      <point x="456.265" y="817.205"/>
      <point x="456.265" y="834.554" type="curve" smooth="yes"/>
      <point x="456.265" y="903.428"/>
      <point x="414.583" y="927"/>
      <point x="350.233" y="927" type="curve" smooth="yes"/>
      <point x="316.713" y="927"/>
      <point x="283.243" y="919.817"/>
      <point x="251.636" y="909" type="curve"/>
      <point x="394.977" y="959.918"/>
      <point x="417.926" y="1078"/>
      <point x="601.406" y="1078" type="curve" smooth="yes"/>
      <point x="665.997" y="1078"/>
      <point x="698.581" y="1046.53"/>
      <point x="698.581" y="982.274" type="curve" smooth="yes"/>
      <point x="698.581" y="950.744"/>
      <point x="691.763" y="919.313"/>
      <point x="683.64" y="889" type="curve"/>
      <point x="801.726" y="974.551"/>
      <point x="970.648" y="1069"/>
      <point x="1119.91" y="1069" type="curve" smooth="yes"/>
      <point x="1228.14" y="1069"/>
      <point x="1330.43" y="1006.65"/>
      <point x="1330.43" y="888.76" type="curve" smooth="yes"/>
      <point x="1330.43" y="874.405"/>
      <point x="1328.86" y="860.07"/>
      <point x="1326.05" y="846" type="curve" smooth="yes"/>
      <point x="1217.35" y="302" type="line" smooth="yes"/>
      <point x="1212.67" y="278.586"/>
      <point x="1208.89" y="254.725"/>
      <point x="1208.89" y="230.787" type="curve" smooth="yes"/>
      <point x="1208.89" y="162.994"/>
      <point x="1243.28" y="133"/>
      <point x="1310.58" y="133" type="curve" smooth="yes"/>
      <point x="1340.56" y="133"/>
      <point x="1370.33" y="140.037"/>
    </contour>
  </outline>
</glyph>
<glyph name="p" format="2">
  <advance width="1360"/>
  <unicode hex="0070"/>
  <anchor x="528" y="0" name="bottom"/>
  <anchor x="936.615" y="1024" name="top"/>
  <outline>
    <contour>
      <point x="348.817" y="-457.642" type="curve" smooth="yes"/>
      <point x="348.817" y="-507.335"/>
      <point x="387.933" y="-521"/>
      <point x="430.894" y="-521" type="curve" smooth="yes"/>
      <point x="454.172" y="-521"/>
      <point x="478.352" y="-511.983"/>
      <point x="499.491" y="-503" type="curve"/>
      <point x="448.489" y="-586.709"/>
      <point x="350.936" y="-670"/>
      <point x="248.121" y="-670" type="curve" smooth="yes"/>
      <point x="159.508" y="-670"/>
      <point x="125.049" y="-612.563"/>
      <point x="125.049" y="-530.692" type="curve" smooth="yes"/>
      <point x="125.049" y="-504.628"/>
      <point x="128.301" y="-478.516"/>
      <point x="133.482" y="-453" type="curve" smooth="yes"/>
      <point x="385.858" y="790" type="line" smooth="yes"/>
      <point x="389.974" y="810.273"/>
      <point x="393.368" y="831.045"/>
      <point x="393.368" y="851.79" type="curve" smooth="yes"/>
      <point x="393.368" y="914.877"/>
      <point x="355.106" y="932"/>
      <point x="297.232" y="932" type="curve" smooth="yes"/>
      <point x="262.526" y="932"/>
      <point x="228.442" y="922.726"/>
      <point x="196.036" y="911" type="curve"/>
      <point x="288.142" y="979.976"/>
      <point x="422.016" y="1083"/>
      <point x="541.405" y="1083" type="curve" smooth="yes"/>
      <point x="604.734" y="1083"/>
      <point x="633.839" y="1052.36"/>
      <point x="633.839" y="990.161" type="curve" smooth="yes"/>
      <point x="633.839" y="963.56"/>
      <point x="629.302" y="936.992"/>
      <point x="624.036" y="911" type="curve"/>
      <point x="733.137" y="983.871"/>
      <point x="869.186" y="1076"/>
      <point x="1005.01" y="1076" type="curve" smooth="yes"/>
      <point x="1205.86" y="1076"/>
      <point x="1318.01" y="955.974"/>
      <point x="1318.01" y="757.799" type="curve" smooth="yes"/>
      <point x="1318.01" y="358.343"/>
      <point x="893.557" y="-14.9084"/>
      <point x="504.776" y="-14.9084" type="curve" smooth="yes"/>
      <point x="482.4" y="-14.9084"/>
      <point x="460.023" y="-13.6397"/>
      <point x="437.802" y="-11" type="curve"/>
      <point x="351.478" y="-433" type="line" smooth="yes"/>
      <point x="349.824" y="-441.085"/>
      <point x="348.817" y="-449.38"/>
    </contour>
    <contour>
      <point x="773.833" y="925" type="curve" smooth="yes"/>
      <point x="709.932" y="925"/>
      <point x="641.565" y="877.702"/>
      <point x="607.051" y="826" type="curve"/>
      <point x="498.148" y="291" type="line"/>
      <point x="543.134" y="184.734"/>
      <point x="640.057" y="131"/>
      <point x="753.176" y="131" type="curve" smooth="yes"/>
      <point x="997.211" y="131"/>
      <point x="1075.14" y="398.663"/>
      <point x="1075.14" y="599.351" type="curve" smooth="yes"/>
      <point x="1075.14" y="797.221"/>
      <point x="982.185" y="925"/>
    </contour>
  </outline>
</glyph>
<glyph name="q" format="2">
  <advance width="1271"/>
  <unicode hex="0071"/>
  <anchor x="534" y="0" name="bottom"/>
  <anchor x="942.615" y="1024" name="top"/>
  <outline>
    <contour>
      <point x="1476.2" y="1092" type="curve"/>
      <point x="1323.34" y="984.526"/>
      <point x="1245.62" y="873.887"/>
      <point x="1208.88" y="690" type="curve" smooth="yes"/>
      <point x="988.474" y="-413" type="line" smooth="yes"/>
      <point x="986.285" y="-423.957"/>
      <point x="985" y="-435.133"/>
      <point x="985" y="-446.315" type="curve" smooth="yes"/>
      <point x="985" y="-488.332"/>
      <point x="1003.86" y="-521"/>
      <point x="1049.89" y="-521" type="curve" smooth="yes"/>
      <point x="1073.22" y="-521"/>
      <point x="1100.18" y="-511.869"/>
      <point x="1121.49" y="-503" type="curve"/>
      <point x="1068.58" y="-594.281"/>
      <point x="963.354" y="-670"/>
      <point x="855.12" y="-670" type="curve" smooth="yes"/>
      <point x="775.832" y="-670"/>
      <point x="760.137" y="-588.547"/>
      <point x="760.137" y="-525.46" type="curve" smooth="yes"/>
      <point x="760.137" y="-493.795"/>
      <point x="763.676" y="-462.034"/>
      <point x="769.877" y="-431" type="curve" smooth="yes"/>
      <point x="883.575" y="138" type="line"/>
      <point x="781.81" y="69.4637"/>
      <point x="652.344" y="-18"/>
      <point x="525.403" y="-18" type="curve" smooth="yes"/>
      <point x="312.59" y="-18"/>
      <point x="154.582" y="135.753"/>
      <point x="154.582" y="349.512" type="curve" smooth="yes"/>
      <point x="154.582" y="703.399"/>
      <point x="610.006" y="1078"/>
      <point x="949.405" y="1078" type="curve" smooth="yes"/>
      <point x="1055.69" y="1078"/>
      <point x="1148.3" y="1027.27"/>
      <point x="1200.63" y="934" type="curve"/>
      <point x="1268.54" y="1003.67"/>
      <point x="1383.4" y="1063.9"/>
    </contour>
    <contour>
      <point x="999.677" y="684" type="line"/>
      <point x="954.847" y="824.998"/>
      <point x="855.466" y="925"/>
      <point x="700.833" y="925" type="curve" smooth="yes"/>
      <point x="480.69" y="925"/>
      <point x="401.433" y="702.183"/>
      <point x="401.433" y="515.871" type="curve" smooth="yes"/>
      <point x="401.433" y="288.672"/>
      <point x="532.707" y="131"/>
      <point x="767.176" y="131" type="curve" smooth="yes"/>
      <point x="815.337" y="131"/>
      <point x="849.376" y="143.463"/>
      <point x="889.77" y="169" type="curve"/>
    </contour>
  </outline>
</glyph>
<glyph name="r" format="2">
  <advance width="1153"/>
  <unicode hex="0072"/>
  <anchor x="444" y="0" name="bottom"/>
  <anchor x="852.615" y="1024" name="top"/>
  <outline>
    <contour>
      <point x="1417.21" y="1072" type="curve"/>
      <point x="1325.26" y="956.606"/>
      <point x="1153.91" y="875"/>
      <point x="1006.63" y="875" type="curve" smooth="yes"/>
      <point x="920.119" y="875"/>
      <point x="853.847" y="945"/>
      <point x="766.83" y="945" type="curve" smooth="yes"/>
      <point x="625.683" y="945"/>
      <point x="564.961" y="481.744"/>
      <point x="540.934" y="365" type="curve" smooth="yes"/>
      <point x="530.118" y="312.445"/>
      <point x="512.063" y="260.762"/>
      <point x="512.063" y="206.487" type="curve" smooth="yes"/>
      <point x="512.063" y="162.798"/>
      <point x="526.077" y="126"/>
      <point x="576.177" y="126" type="curve" smooth="yes"/>
      <point x="594.174" y="126"/>
      <point x="612.109" y="131.089"/>
      <point x="628.575" y="138" type="curve"/>
      <point x="530.551" y="68.0257"/>
      <point x="491.689" y="-23"/>
      <point x="355.404" y="-23" type="curve" smooth="yes"/>
      <point x="309.243" y="-23"/>
      <point x="266.998" y="7.3521"/>
      <point x="266.998" y="56.3912" type="curve" smooth="yes"/>
      <point x="266.998" y="62.3024"/>
      <point x="267.63" y="68.2055"/>
      <point x="268.787" y="74" type="curve" smooth="yes"/>
      <point x="314.37" y="302.25"/>
      <point x="364.61" y="529.58"/>
      <point x="409.463" y="758" type="curve" smooth="yes"/>
      <point x="414.707" y="784.706"/>
      <point x="419.949" y="811.85"/>
      <point x="419.949" y="839.179" type="curve" smooth="yes"/>
      <point x="419.949" y="908.013"/>
      <point x="378.749" y="927"/>
      <point x="315.233" y="927" type="curve" smooth="yes"/>
      <point x="281.769" y="927"/>
      <point x="248.119" y="920.094"/>
      <point x="216.636" y="909" type="curve"/>
      <point x="361.01" y="955.506"/>
      <point x="375.15" y="1078"/>
      <point x="566.406" y="1078" type="curve" smooth="yes"/>
      <point x="631.728" y="1078"/>
      <point x="661.399" y="1051.87"/>
      <point x="661.399" y="986.508" type="curve" smooth="yes"/>
      <point x="661.399" y="963.593"/>
      <point x="658.506" y="940.668"/>
      <point x="655.434" y="918" type="curve"/>
      <point x="766.807" y="984.216"/>
      <point x="941.185" y="1096"/>
      <point x="1072.01" y="1096" type="curve" smooth="yes"/>
      <point x="1163.24" y="1096"/>
      <point x="1229.19" y="1026"/>
      <point x="1293.02" y="1026" type="curve" smooth="yes"/>
      <point x="1332.77" y="1026"/>
      <point x="1383.56" y="1051.87"/>
    </contour>
  </outline>
</glyph>
<glyph name="s" format="2">
  <advance width="924"/>
  <unicode hex="0073"/>
  <anchor x="261" y="0" name="bottom"/>
  <anchor x="669.615" y="1024" name="top"/>
  <outline>
    <contour>
      <point x="651.846" y="855" type="curve"/>
      <point x="663.609" y="861.314"/>
      <point x="679.439" y="878.556"/>
      <point x="679.439" y="893" type="curve" smooth="yes"/>
      <point x="679.439" y="934.494"/>
      <point x="559.874" y="941"/>
      <point x="529.03" y="941" type="curve" smooth="yes"/>
      <point x="444.586" y="941"/>
      <point x="392.519" y="905.366"/>
      <point x="392.519" y="815.789" type="curve" smooth="yes"/>
      <point x="392.519" y="596.219"/>
      <point x="850.604" y="688.229"/>
      <point x="850.604" y="440.888" type="curve" smooth="yes"/>
      <point x="850.604" y="183.821"/>
      <point x="415.49" y="-27"/>
      <point x="193.605" y="-27" type="curve" smooth="yes"/>
      <point x="140.702" y="-27"/>
      <point x="-14.6788" y="-5.326"/>
      <point x="-14.6788" y="66.5395" type="curve" smooth="yes"/>
      <point x="-14.6788" y="154.194"/>
      <point x="194.759" y="217.439"/>
      <point x="255.151" y="271" type="curve"/>
      <point x="240.239" y="256.232"/>
      <point x="226.534" y="234.717"/>
      <point x="226.534" y="212.968" type="curve" smooth="yes"/>
      <point x="226.534" y="138.226"/>
      <point x="405.109" y="126"/>
      <point x="458.177" y="126" type="curve" smooth="yes"/>
      <point x="549.751" y="126"/>
      <point x="605.624" y="180.627"/>
      <point x="605.624" y="272.664" type="curve" smooth="yes"/>
      <point x="605.624" y="503.009"/>
      <point x="152.343" y="445.293"/>
      <point x="152.343" y="656.227" type="curve" smooth="yes"/>
      <point x="152.343" y="859.828"/>
      <point x="586.789" y="1090"/>
      <point x="765.804" y="1090" type="curve" smooth="yes"/>
      <point x="806.419" y="1090"/>
      <point x="908.689" y="1086.43"/>
      <point x="922.413" y="1038" type="curve"/>
      <point x="911.025" y="1003.51"/>
      <point x="875.9" y="987.626"/>
      <point x="846.225" y="972" type="curve" smooth="yes"/>
      <point x="779.291" y="936.756"/>
      <point x="711.779" y="901.591"/>
    </contour>
  </outline>
</glyph>
<glyph name="t" format="2">
  <advance width="933"/>
  <unicode hex="0074"/>
  <anchor x="365" y="0" name="bottom"/>
  <anchor x="569.308" y="512" name="center"/>
  <anchor x="773.615" y="1024" name="top"/>
  <anchor x="1511.08" y="1752" name="topright"/>
  <outline>
    <contour>
      <point x="1043.8" y="1105" type="line"/>
      <point x="991.406" y="1097.03"/>
      <point x="859.409" y="954"/>
      <point x="798.628" y="954" type="curve" smooth="yes"/>
      <point x="661.628" y="954" type="line"/>
      <point x="543.934" y="365" type="line" smooth="yes"/>
      <point x="537.213" y="331.365"/>
      <point x="531.76" y="297.082"/>
      <point x="531.76" y="262.694" type="curve" smooth="yes"/>
      <point x="531.76" y="161.166"/>
      <point x="585.989" y="122"/>
      <point x="684.378" y="122" type="curve" smooth="yes"/>
      <point x="734.353" y="122"/>
      <point x="783.977" y="140.435"/>
      <point x="828.371" y="162" type="curve"/>
      <point x="742.085" y="52.9851"/>
      <point x="594.365" y="-20"/>
      <point x="455.004" y="-20" type="curve" smooth="yes"/>
      <point x="340.071" y="-20"/>
      <point x="297.8" y="55.4892"/>
      <point x="297.8" y="160.737" type="curve" smooth="yes"/>
      <point x="297.8" y="196.761"/>
      <point x="302.503" y="232.723"/>
      <point x="309.552" y="268" type="curve" smooth="yes"/>
      <point x="446.628" y="954" type="line"/>
      <point x="302.628" y="954" type="line"/>
      <point x="472.208" y="1067" type="line"/>
      <point x="500.38" y="1223" type="line"/>
      <point x="557.684" y="1262.56"/>
      <point x="614.165" y="1301.34"/>
      <point x="676.36" y="1333" type="curve" smooth="yes"/>
      <point x="700.123" y="1345.1"/>
      <point x="725.52" y="1355.98"/>
      <point x="745.552" y="1374" type="curve"/>
      <point x="691.801" y="1105" type="line"/>
    </contour>
  </outline>
</glyph>
<glyph name="v" format="2">
  <advance width="1443"/>
  <unicode hex="0076"/>
  <anchor x="620" y="0" name="bottom"/>
  <anchor x="1028.62" y="1024" name="top"/>
  <outline>
    <contour>
      <point x="548.428" y="-59" type="curve"/>
      <point x="527.65" y="185.375"/>
      <point x="497.154" y="428.816"/>
      <point x="441.861" y="668" type="curve" smooth="yes"/>
      <point x="422.862" y="750.18"/>
      <point x="388.787" y="914"/>
      <point x="279.635" y="914" type="curve" smooth="yes"/>
      <point x="247.72" y="914"/>
      <point x="211.146" y="899.111"/>
      <point x="183.641" y="884" type="curve"/>
      <point x="266.718" y="965.44"/>
      <point x="382.372" y="1067"/>
      <point x="505.526" y="1067" type="curve" smooth="yes"/>
      <point x="674.792" y="1067"/>
      <point x="753.194" y="287.219"/>
      <point x="768.583" y="143" type="curve"/>
      <point x="908.17" y="280.834"/>
      <point x="1229.59" y="650.879"/>
      <point x="1229.59" y="849.239" type="curve" smooth="yes"/>
      <point x="1229.59" y="888.312"/>
      <point x="1214.41" y="916"/>
      <point x="1171.03" y="916" type="curve" smooth="yes"/>
      <point x="1148.4" y="916"/>
      <point x="1126.03" y="910.794"/>
      <point x="1105.24" y="902" type="curve"/>
      <point x="1221.01" y="949.083"/>
      <point x="1275.33" y="1065"/>
      <point x="1412.81" y="1065" type="curve" smooth="yes"/>
      <point x="1458.3" y="1065"/>
      <point x="1476.11" y="1037.34"/>
      <point x="1476.11" y="995.558" type="curve" smooth="yes"/>
      <point x="1476.11" y="981.046"/>
      <point x="1474.34" y="966.168"/>
      <point x="1471.23" y="952" type="curve" smooth="yes"/>
      <point x="1386.43" y="565.68"/>
      <point x="877.36" y="137.097"/>
    </contour>
  </outline>
</glyph>
<glyph name="w" format="2">
  <advance width="1935"/>
  <unicode hex="0077"/>
  <anchor x="912" y="0" name="bottom"/>
  <anchor x="1320.62" y="1024" name="top"/>
  <outline>
    <contour>
      <point x="1206.61" y="-47" type="curve"/>
      <point x="1197.75" y="149.721"/>
      <point x="1172.83" y="346.196"/>
      <point x="1123.3" y="537" type="curve"/>
      <point x="1055.04" y="443.913"/>
      <point x="986.607" y="350.931"/>
      <point x="916.714" y="259.055" type="curve" smooth="yes"/>
      <point x="877.29" y="207.232"/>
      <point x="837.226" y="147.378"/>
      <point x="790.382" y="102" type="curve" smooth="yes"/>
      <point x="748.28" y="61.2163"/>
      <point x="603.031" y="-14.5259"/>
      <point x="544.609" y="-47" type="curve"/>
      <point x="517.697" y="110.48"/>
      <point x="457.646" y="927"/>
      <point x="263.799" y="927" type="curve" smooth="yes"/>
      <point x="239.62" y="927"/>
      <point x="215.231" y="917.268"/>
      <point x="194.837" y="905" type="curve"/>
      <point x="261.788" y="966.148"/>
      <point x="370.192" y="1067"/>
      <point x="465.648" y="1067" type="curve" smooth="yes"/>
      <point x="636.74" y="1067"/>
      <point x="735.106" y="321.461"/>
      <point x="742.568" y="178" type="curve"/>
      <point x="853.153" y="349.775"/>
      <point x="1092.62" y="590.819"/>
      <point x="1092.62" y="800.197" type="curve" smooth="yes"/>
      <point x="1092.62" y="854.798"/>
      <point x="1079.99" y="914.612"/>
      <point x="1046.63" y="959" type="curve"/>
      <point x="1075.35" y="978.417"/>
      <point x="1235.71" y="1076"/>
      <point x="1258.63" y="1076" type="curve" smooth="yes"/>
      <point x="1284.11" y="1076"/>
      <point x="1304.51" y="1019.18"/>
      <point x="1311.09" y="1000.89" type="curve" smooth="yes"/>
      <point x="1365.42" y="849.787"/>
      <point x="1392.76" y="625.524"/>
      <point x="1412.65" y="464.572" type="curve" smooth="yes"/>
      <point x="1423.79" y="374.432"/>
      <point x="1435.64" y="282.819"/>
      <point x="1439.37" y="192" type="curve"/>
      <point x="1552.38" y="331.043"/>
      <point x="1758.35" y="628.684"/>
      <point x="1758.35" y="810.454" type="curve" smooth="yes"/>
      <point x="1758.35" y="859.346"/>
      <point x="1744.48" y="925"/>
      <point x="1682.83" y="925" type="curve" smooth="yes"/>
      <point x="1664.26" y="925"/>
      <point x="1645.75" y="917.584"/>
      <point x="1629.64" y="909" type="curve"/>
      <point x="1699.1" y="945.912"/>
      <point x="1802.35" y="1072"/>
      <point x="1875.21" y="1072" type="curve" smooth="yes"/>
      <point x="1942.37" y="1072"/>
      <point x="1961.18" y="1010.94"/>
      <point x="1961.18" y="954.837" type="curve" smooth="yes"/>
      <point x="1961.18" y="728.601"/>
      <point x="1680.15" y="378.361"/>
      <point x="1543.12" y="203" type="curve" smooth="yes"/>
      <point x="1515.97" y="168.261"/>
      <point x="1489.49" y="132.79"/>
      <point x="1457.76" y="102" type="curve" smooth="yes"/>
      <point x="1407.97" y="53.6849"/>
      <point x="1272.89" y="-9.198"/>
    </contour>
  </outline>
</glyph>
<glyph name="x" format="2">
  <advance width="1454"/>
  <unicode hex="0078"/>
  <anchor x="629" y="0" name="bottom"/>
  <anchor x="1037.62" y="1024" name="top"/>
  <outline>
    <contour>
      <point x="612.143" y="1110" type="curve" smooth="yes"/>
      <point x="548.661" y="1110"/>
      <point x="332.683" y="977.811"/>
      <point x="270.431" y="938" type="curve"/>
      <point x="292.044" y="949.791"/>
      <point x="317.376" y="959"/>
      <point x="342.32" y="959" type="curve" smooth="yes"/>
      <point x="428.737" y="959"/>
      <point x="455.685" y="860.925"/>
      <point x="487.904" y="799" type="curve" smooth="yes"/>
      <point x="559.531" y="661.334"/>
      <point x="631.339" y="523.76"/>
      <point x="702.784" y="386" type="curve" smooth="yes"/>
      <point x="765.203" y="265.646"/>
      <point x="812.766" y="135.528"/>
      <point x="892.995" y="25" type="curve" smooth="yes"/>
      <point x="915.603" y="-6.14485"/>
      <point x="929.093" y="-20"/>
      <point x="970.004" y="-20" type="curve" smooth="yes"/>
      <point x="1097.26" y="-20"/>
      <point x="1228.1" y="52.714"/>
      <point x="1298.57" y="158" type="curve"/>
      <point x="1275.39" y="142.939"/>
      <point x="1241.11" y="124"/>
      <point x="1212.78" y="124" type="curve" smooth="yes"/>
      <point x="1051.81" y="124"/>
      <point x="746.517" y="1110"/>
    </contour>
    <contour>
      <point x="1165.07" y="955.568" type="line"/>
      <point x="1011.32" y="773.405"/>
      <point x="834.025" y="606.239"/>
      <point x="659.564" y="444" type="curve" smooth="yes"/>
      <point x="618.026" y="405.372"/>
      <point x="320.162" y="149"/>
      <point x="293.585" y="149" type="curve" smooth="yes"/>
      <point x="230.534" y="149"/>
      <point x="94.0699" y="33.897"/>
      <point x="33" y="0" type="curve"/>
      <point x="288" y="0" type="line" smooth="yes"/>
      <point x="358.397" y="0"/>
      <point x="454.658" y="127.776"/>
      <point x="534.773" y="149" type="curve"/>
      <point x="347.773" y="149" type="line"/>
      <point x="460.54" y="222.468"/>
      <point x="572.539" y="296.756"/>
      <point x="673.663" y="386" type="curve" smooth="yes"/>
      <point x="880.922" y="568.911"/>
      <point x="1092.04" y="750.677"/>
      <point x="1278.56" y="955.173" type="curve"/>
    </contour>
    <contour>
      <point x="1267.43" y="943" type="line" smooth="yes"/>
      <point x="1340.4" y="943"/>
      <point x="1477.68" y="1048.78"/>
      <point x="1536.6" y="1094" type="curve"/>
      <point x="1241.6" y="1094" type="line" smooth="yes"/>
      <point x="1206.61" y="1094"/>
      <point x="1031.94" y="971.436"/>
      <point x="996.43" y="943" type="curve"/>
    </contour>
  </outline>
</glyph>
<glyph name="y" format="2">
  <advance width="1420"/>
  <unicode hex="0079"/>
  <anchor x="578" y="0" name="bottom"/>
  <anchor x="986.615" y="1024" name="top"/>
  <outline>
    <contour>
      <point x="286.121" y="-670" type="curve" smooth="yes"/>
      <point x="239.696" y="-670"/>
      <point x="106.557" y="-650.14"/>
      <point x="106.557" y="-587.311" type="curve" smooth="yes"/>
      <point x="106.557" y="-518.677"/>
      <point x="331.172" y="-419.318"/>
      <point x="387.268" y="-379" type="curve"/>
      <point x="369.892" y="-391.279"/>
      <point x="351.425" y="-415.011"/>
      <point x="351.425" y="-437.404" type="curve" smooth="yes"/>
      <point x="351.425" y="-498.815"/>
      <point x="491.18" y="-521"/>
      <point x="536.894" y="-521" type="curve" smooth="yes"/>
      <point x="845.936" y="-521"/>
      <point x="936.705" y="-66.4773"/>
      <point x="987.37" y="167" type="curve"/>
      <point x="827.39" y="75.6013"/>
      <point x="642.84" y="-20"/>
      <point x="454.271" y="-20" type="curve" smooth="yes"/>
      <point x="317.143" y="-20"/>
      <point x="216.112" y="34.794"/>
      <point x="216.112" y="183.333" type="curve" smooth="yes"/>
      <point x="216.112" y="210.425"/>
      <point x="219.45" y="237.462"/>
      <point x="224.752" y="264" type="curve" smooth="yes"/>
      <point x="304.48" y="663" type="line" smooth="yes"/>
      <point x="313.866" y="709.972"/>
      <point x="323.116" y="757.578"/>
      <point x="323.116" y="805.67" type="curve" smooth="yes"/>
      <point x="323.116" y="868.059"/>
      <point x="305.73" y="929"/>
      <point x="231.633" y="929" type="curve" smooth="yes"/>
      <point x="203.081" y="929"/>
      <point x="174.73" y="922.553"/>
      <point x="147.635" y="914" type="curve"/>
      <point x="241.374" y="982.034"/>
      <point x="364.091" y="1081"/>
      <point x="485.005" y="1081" type="curve" smooth="yes"/>
      <point x="556.418" y="1081"/>
      <point x="578.736" y="1033.11"/>
      <point x="578.736" y="969.173" type="curve" smooth="yes"/>
      <point x="578.736" y="917.741"/>
      <point x="566.414" y="867.112"/>
      <point x="556.253" y="817" type="curve" smooth="yes"/>
      <point x="533.771" y="706.132"/>
      <point x="507.822" y="595.974"/>
      <point x="485.913" y="485" type="curve" smooth="yes"/>
      <point x="476.274" y="436.18"/>
      <point x="467.465" y="386.574"/>
      <point x="467.465" y="336.645" type="curve" smooth="yes"/>
      <point x="467.465" y="161.936"/>
      <point x="600.085" y="131"/>
      <point x="750.024" y="131" type="curve" smooth="yes"/>
      <point x="839.361" y="131"/>
      <point x="936.739" y="172.42"/>
      <point x="1000.24" y="235" type="curve"/>
      <point x="1113.86" y="785" type="line" smooth="yes"/>
      <point x="1118.02" y="805.136"/>
      <point x="1121.03" y="825.71"/>
      <point x="1121.03" y="846.318" type="curve" smooth="yes"/>
      <point x="1121.03" y="887.413"/>
      <point x="1107.69" y="925"/>
      <point x="1059.83" y="925" type="curve" smooth="yes"/>
      <point x="1041.75" y="925"/>
      <point x="1023.44" y="920.392"/>
      <point x="1006.64" y="914" type="curve"/>
      <point x="1074.48" y="964.238"/>
      <point x="1215.6" y="1074"/>
      <point x="1299.61" y="1074" type="curve" smooth="yes"/>
      <point x="1334.62" y="1074"/>
      <point x="1370.62" y="1054.8"/>
      <point x="1370.62" y="1015.62" type="curve" smooth="yes"/>
      <point x="1370.62" y="1011.05"/>
      <point x="1370.12" y="1006.48"/>
      <point x="1369.22" y="1002" type="curve" smooth="yes"/>
      <point x="1324.59" y="778.667"/>
      <point x="1280.19" y="555.288"/>
      <point x="1235.34" y="332" type="curve" smooth="yes"/>
      <point x="1146" y="-112.759"/>
      <point x="792.877" y="-670"/>
    </contour>
  </outline>
</glyph>
<glyph name="z" format="2">
  <advance width="1246"/>
  <unicode hex="007A"/>
  <anchor x="474" y="0" name="bottom"/>
  <anchor x="678.308" y="512" name="center"/>
  <anchor x="882.615" y="1024" name="top"/>
  <outline>
    <contour>
      <point x="1195.2" y="1092" type="curve"/>
      <point x="832.388" y="865.953"/>
      <point x="683.533" y="433.514"/>
      <point x="352.765" y="194" type="curve"/>
      <point x="861.966" y="190" type="line" smooth="yes"/>
      <point x="945.624" y="189.343"/>
      <point x="1022.14" y="213.593"/>
      <point x="1090.35" y="262" type="curve"/>
      <point x="970.955" y="114.411"/>
      <point x="782.76" y="-2"/>
      <point x="588.6" y="-2" type="curve" smooth="yes"/>
      <point x="406.065" y="-2"/>
      <point x="223.536" y="-0.0073"/>
      <point x="41" y="0" type="curve"/>
      <point x="154.634" y="74.938"/>
      <point x="264.589" y="202.339"/>
      <point x="351.893" y="306.391" type="curve" smooth="yes"/>
      <point x="516.575" y="502.664"/>
      <point x="676.519" y="730.32"/>
      <point x="872.038" y="896" type="curve"/>
      <point x="836.489" y="895.561"/>
      <point x="800.992" y="893"/>
      <point x="765.439" y="893" type="curve" smooth="yes"/>
      <point x="641.136" y="893"/>
      <point x="517" y="900.008"/>
      <point x="392.837" y="905" type="curve" smooth="yes"/>
      <point x="382.83" y="905.167" type="line" smooth="yes"/>
      <point x="324.919" y="905.167"/>
      <point x="274.347" y="886.678"/>
      <point x="225.246" y="857" type="curve"/>
      <point x="275.917" y="918.02"/>
      <point x="456.308" y="1076.62"/>
      <point x="530.203" y="1092" type="curve" smooth="yes"/>
      <point x="562.645" y="1098.75"/>
      <point x="595.635" y="1099"/>
      <point x="628.602" y="1099" type="curve" smooth="yes"/>
      <point x="767.709" y="1099"/>
      <point x="906.971" y="1089.43"/>
      <point x="1046.26" y="1089.43" type="curve" smooth="yes"/>
      <point x="1095.92" y="1089.43"/>
      <point x="1145.58" y="1090.18"/>
    </contour>
  </outline>
</glyph>
<glyph name="braceleft" format="2">
  <advance width="722"/>
  <unicode hex="007B"/>
  <outline>
    <contour>
      <point x="1316.06" y="1877" type="curve"/>
      <point x="1244.28" y="1856.34"/>
      <point x="1135.59" y="1728"/>
      <point x="1069.29" y="1728" type="curve" smooth="yes"/>
      <point x="1038.86" y="1728"/>
      <point x="1008.72" y="1733"/>
      <point x="978.288" y="1733" type="curve" smooth="yes"/>
      <point x="939.271" y="1733"/>
      <point x="900.137" y="1729.76"/>
      <point x="862.49" y="1719" type="curve"/>
      <point x="692.672" y="1541.48"/>
      <point x="714.17" y="1437.34"/>
      <point x="668.981" y="1216" type="curve" smooth="yes"/>
      <point x="628.877" y="1019.57"/>
      <point x="532.101" y="931.496"/>
      <point x="368.451" y="828" type="curve"/>
      <point x="456.389" y="781.619"/>
      <point x="527.761" y="717.725"/>
      <point x="527.761" y="611.019" type="curve" smooth="yes"/>
      <point x="527.761" y="465.39"/>
      <point x="412.472" y="327.819"/>
      <point x="412.472" y="160.053" type="curve" smooth="yes"/>
      <point x="412.472" y="-46.1276"/>
      <point x="563.804" y="-194"/>
      <point x="769.235" y="-194" type="curve" smooth="yes"/>
      <point x="798.189" y="-194"/>
      <point x="827.068" y="-191.769"/>
      <point x="855.634" y="-187" type="curve"/>
      <point x="760.011" y="-254.4"/>
      <point x="649.879" y="-345"/>
      <point x="527.062" y="-345" type="curve" smooth="yes"/>
      <point x="326.339" y="-345"/>
      <point x="166.503" y="-201.6"/>
      <point x="166.503" y="3.00853" type="curve" smooth="yes"/>
      <point x="166.503" y="167.566"/>
      <point x="283.04" y="303.576"/>
      <point x="283.04" y="454.956" type="curve" smooth="yes"/>
      <point x="283.04" y="577.517"/>
      <point x="197.088" y="644.495"/>
      <point x="95.4751" y="693" type="curve"/>
      <point x="142.223" y="708.439"/>
      <point x="181.369" y="739.23"/>
      <point x="221.262" y="767" type="curve" smooth="yes"/>
      <point x="364.462" y="866.684"/>
      <point x="387.49" y="886.75"/>
      <point x="421.809" y="1060" type="curve" smooth="yes"/>
      <point x="435.903" y="1131.15"/>
      <point x="440.258" y="1204.24"/>
      <point x="455.77" y="1275" type="curve" smooth="yes"/>
      <point x="528.028" y="1604.6"/>
      <point x="936.244" y="1879"/>
      <point x="1264.46" y="1879" type="curve" smooth="yes"/>
      <point x="1281.71" y="1879"/>
      <point x="1298.89" y="1878.84"/>
    </contour>
  </outline>
</glyph>
<glyph name="bar" format="2">
  <advance width="493"/>
  <unicode hex="007C"/>
  <outline>
    <contour>
      <point x="82.4618" y="-343" type="curve"/>
      <point x="501.489" y="1724" type="line"/>
      <point x="619.275" y="1803" type="line" smooth="yes"/>
      <point x="658.378" y="1829"/>
      <point x="708.454" y="1839.08"/>
      <point x="743.063" y="1872" type="curve"/>
      <point x="328.235" y="-194" type="line" smooth="yes"/>
      <point x="319.958" y="-235.224"/>
      <point x="122.642" y="-300.321"/>
    </contour>
  </outline>
</glyph>
<glyph name="braceright" format="2">
  <advance width="722"/>
  <unicode hex="007D"/>
  <outline>
    <contour>
      <point x="877.048" y="841" type="curve"/>
      <point x="708.843" y="784.14"/>
      <point x="587.452" y="648.004"/>
      <point x="551.715" y="474" type="curve" smooth="yes"/>
      <point x="538.66" y="410.44"/>
      <point x="533.107" y="345.371"/>
      <point x="519.349" y="282" type="curve" smooth="yes"/>
      <point x="444.506" y="-62.7396"/>
      <point x="58.8889" y="-345"/>
      <point x="-288.938" y="-345" type="curve" smooth="yes"/>
      <point x="-306.188" y="-345"/>
      <point x="-323.364" y="-344.843"/>
      <point x="-340.538" y="-343" type="curve"/>
      <point x="-269.685" y="-322.258"/>
      <point x="-163.956" y="-192"/>
      <point x="-96.3654" y="-192" type="curve" smooth="yes"/>
      <point x="-65.6437" y="-192"/>
      <point x="-35.4858" y="-199"/>
      <point x="-4.76412" y="-199" type="curve" smooth="yes"/>
      <point x="34.2049" y="-199"/>
      <point x="73.1114" y="-193.815"/>
      <point x="111.033" y="-185" type="curve"/>
      <point x="272.41" y="-16.5458"/>
      <point x="257.618" y="91.2201"/>
      <point x="300.346" y="302" type="curve" smooth="yes"/>
      <point x="343.012" y="512.481"/>
      <point x="428.97" y="596.003"/>
      <point x="607.073" y="706" type="curve"/>
      <point x="518.922" y="753.851"/>
      <point x="445.872" y="814.051"/>
      <point x="445.872" y="922.699" type="curve" smooth="yes"/>
      <point x="445.872" y="1070.65"/>
      <point x="560.51" y="1209.21"/>
      <point x="560.51" y="1376.46" type="curve" smooth="yes"/>
      <point x="560.51" y="1582.25"/>
      <point x="409.829" y="1730"/>
      <point x="204.688" y="1730" type="curve" smooth="yes"/>
      <point x="175.942" y="1730"/>
      <point x="147.125" y="1726.11"/>
      <point x="118.89" y="1721" type="curve"/>
      <point x="162.505" y="1751.8"/>
      <point x="319.587" y="1863.62"/>
      <point x="361.063" y="1872" type="curve" smooth="yes"/>
      <point x="388.665" y="1877.58"/>
      <point x="418.351" y="1879"/>
      <point x="446.461" y="1879" type="curve" smooth="yes"/>
      <point x="648.622" y="1879"/>
      <point x="806.68" y="1736.18"/>
      <point x="806.68" y="1530.4" type="curve" smooth="yes"/>
      <point x="806.68" y="1363.51"/>
      <point x="691.841" y="1230.45"/>
      <point x="691.841" y="1079.81" type="curve" smooth="yes"/>
      <point x="691.841" y="957.591"/>
      <point x="774.577" y="889.123"/>
    </contour>
  </outline>
</glyph>
<glyph name="cent" format="2">
  <advance width="962"/>
  <unicode hex="00A2"/>
  <outline>
    <contour>
      <point x="1140.01" y="1081" type="curve" smooth="yes"/>
      <point x="1140.01" y="1042.55"/>
      <point x="913.35" y="912.232"/>
      <point x="870.236" y="907" type="curve"/>
      <point x="876.381" y="910.147"/>
      <point x="890.633" y="921.171"/>
      <point x="890.633" y="929" type="curve" smooth="yes"/>
      <point x="890.633" y="968.293"/>
      <point x="674.747" y="993"/>
      <point x="637.421" y="993" type="curve" smooth="yes"/>
      <point x="496.821" y="993"/>
      <point x="421.234" y="769.574"/>
      <point x="421.234" y="654.596" type="curve" smooth="yes"/>
      <point x="421.234" y="473.04"/>
      <point x="558.594" y="365"/>
      <point x="732.934" y="365" type="curve" smooth="yes"/>
      <point x="820.929" y="365"/>
      <point x="897.851" y="413.226"/>
      <point x="982.723" y="429" type="curve"/>
      <point x="982.123" y="426" type="line"/>
      <point x="930.448" y="378.114"/>
      <point x="766.264" y="288.735"/>
      <point x="698.353" y="262" type="curve"/>
      <point x="667.383" y="92" type="line"/>
      <point x="627.665" y="64.7233"/>
      <point x="588.642" y="35.6213"/>
      <point x="547.198" y="11" type="curve" smooth="yes"/>
      <point x="506.128" y="-13.3989"/>
      <point x="458.458" y="-25.7763"/>
      <point x="420.81" y="-56" type="curve"/>
      <point x="440.508" y="33.0185"/>
      <point x="443.436" y="125.552"/>
      <point x="474.362" y="212" type="curve"/>
      <point x="465.859" y="211.721"/>
      <point x="457.47" y="210"/>
      <point x="448.962" y="210" type="curve" smooth="yes"/>
      <point x="278.109" y="210"/>
      <point x="182.388" y="345.245"/>
      <point x="182.388" y="506.185" type="curve" smooth="yes"/>
      <point x="182.388" y="777.218"/>
      <point x="436.064" y="941.254"/>
      <point x="645.809" y="1060" type="curve"/>
      <point x="685.86" y="1260.96"/>
      <point x="632.398" y="1245.27"/>
      <point x="819.359" y="1338" type="curve" smooth="yes"/>
      <point x="856.305" y="1356.33"/>
      <point x="899.671" y="1373.8"/>
      <point x="930.947" y="1401" type="curve"/>
      <point x="877.194" y="1142" type="line"/>
      <point x="895.963" y="1143.86"/>
      <point x="914.754" y="1144"/>
      <point x="933.594" y="1144" type="curve" smooth="yes"/>
      <point x="967.789" y="1144"/>
      <point x="1140.01" y="1121.62"/>
    </contour>
  </outline>
</glyph>
<glyph name="sterling" format="2">
  <advance width="1214"/>
  <unicode hex="00A3"/>
  <outline>
    <contour>
      <point x="1219.15" y="1387" type="curve"/>
      <point x="1219.75" y="1390" type="line"/>
      <point x="1256.74" y="1415" type="line"/>
      <point x="1233.54" y="1461.93"/>
      <point x="1033.3" y="1484"/>
      <point x="981.533" y="1484" type="curve" smooth="yes"/>
      <point x="930.165" y="1484"/>
      <point x="878.967" y="1477.48"/>
      <point x="828.936" y="1466" type="curve"/>
      <point x="756.957" y="1364.79"/>
      <point x="727.077" y="1216.46"/>
      <point x="703.002" y="1096" type="curve" smooth="yes"/>
      <point x="641.858" y="790" type="line"/>
      <point x="885.858" y="790" type="line" smooth="yes"/>
      <point x="948.253" y="790"/>
      <point x="1023.82" y="827.136"/>
      <point x="1078.85" y="855" type="curve"/>
      <point x="946.869" y="739.439"/>
      <point x="789.408" y="659.561"/>
      <point x="612.884" y="645" type="curve"/>
      <point x="581.22" y="484.906"/>
      <point x="562.522" y="257.667"/>
      <point x="425.773" y="149" type="curve"/>
      <point x="1050.77" y="149" type="line" smooth="yes"/>
      <point x="1124.08" y="149"/>
      <point x="1200.14" y="175.268"/>
      <point x="1263.96" y="210" type="curve"/>
      <point x="1186.39" y="155.625"/>
      <point x="959.17" y="0"/>
      <point x="872" y="0" type="curve" smooth="yes"/>
      <point x="159" y="0" type="line"/>
      <point x="257.54" y="79.37"/>
      <point x="297.259" y="132.232"/>
      <point x="323.354" y="257" type="curve" smooth="yes"/>
      <point x="350.04" y="384.594"/>
      <point x="372.548" y="513.155"/>
      <point x="398.084" y="641" type="curve"/>
      <point x="125.084" y="641" type="line"/>
      <point x="165.272" y="667.535"/>
      <point x="336.475" y="790"/>
      <point x="370.858" y="790" type="curve" smooth="yes"/>
      <point x="424.858" y="790" type="line"/>
      <point x="468.695" y="1010.46"/>
      <point x="496.898" y="1273.39"/>
      <point x="690.544" y="1419" type="curve" smooth="yes"/>
      <point x="847.635" y="1537.12"/>
      <point x="1033.58" y="1633"/>
      <point x="1234.31" y="1633" type="curve" smooth="yes"/>
      <point x="1279.41" y="1633"/>
      <point x="1490.84" y="1612.51"/>
      <point x="1490.84" y="1553.13" type="curve" smooth="yes"/>
      <point x="1490.84" y="1500.83"/>
      <point x="1268.42" y="1401.61"/>
    </contour>
  </outline>
</glyph>
<glyph name="yen" format="2">
  <advance width="1340"/>
  <unicode hex="00A5"/>
  <outline>
    <contour>
      <point x="1031.87" y="695" type="curve"/>
      <point x="1091.75" y="694.948"/>
      <point x="1151.6" y="693"/>
      <point x="1211.48" y="693" type="curve" smooth="yes"/>
      <point x="1274.97" y="693"/>
      <point x="1347.09" y="725.413"/>
      <point x="1400.46" y="758" type="curve"/>
      <point x="1311.33" y="637.818"/>
      <point x="1143.81" y="564.525"/>
      <point x="996.9" y="555" type="curve"/>
      <point x="973.521" y="438" type="line"/>
      <point x="1158.52" y="438" type="line" smooth="yes"/>
      <point x="1223.68" y="438"/>
      <point x="1297.39" y="469.964"/>
      <point x="1352.51" y="503" type="curve"/>
      <point x="1251.64" y="391.14"/>
      <point x="1086.86" y="309.716"/>
      <point x="936.546" y="298" type="curve"/>
      <point x="912.204" y="243.677"/>
      <point x="880.747" y="191.578"/>
      <point x="838.773" y="149" type="curve"/>
      <point x="1193.77" y="149" type="line"/>
      <point x="1116.47" y="123.648"/>
      <point x="1015.66" y="0"/>
      <point x="949" y="0" type="curve" smooth="yes"/>
      <point x="564" y="0" type="line"/>
      <point x="657.374" y="81.6393"/>
      <point x="709.084" y="164.938"/>
      <point x="733.348" y="287" type="curve"/>
      <point x="400.348" y="287" type="line"/>
      <point x="438.661" y="315.592"/>
      <point x="607.849" y="438"/>
      <point x="644.521" y="438" type="curve" smooth="yes"/>
      <point x="761.521" y="438" type="line"/>
      <point x="782.702" y="544" type="line"/>
      <point x="451.702" y="544" type="line"/>
      <point x="490.579" y="571.153"/>
      <point x="661.306" y="695"/>
      <point x="695.875" y="695" type="curve" smooth="yes"/>
      <point x="785.875" y="695" type="line"/>
      <point x="763.553" y="867.183"/>
      <point x="601.864" y="1469"/>
      <point x="387.535" y="1469" type="curve" smooth="yes"/>
      <point x="338.719" y="1469"/>
      <point x="281.863" y="1441.25"/>
      <point x="241.745" y="1415" type="curve"/>
      <point x="333.061" y="1503.02"/>
      <point x="490.171" y="1606"/>
      <point x="620.91" y="1606" type="curve" smooth="yes"/>
      <point x="861.461" y="1606"/>
      <point x="1008.33" y="955.477"/>
      <point x="1026.26" y="767" type="curve"/>
      <point x="1142.01" y="884.725"/>
      <point x="1420.57" y="1178.75"/>
      <point x="1420.57" y="1346.03" type="curve" smooth="yes"/>
      <point x="1420.57" y="1417.7"/>
      <point x="1373.09" y="1462"/>
      <point x="1302.14" y="1462" type="curve" smooth="yes"/>
      <point x="1281.13" y="1462"/>
      <point x="1260.22" y="1459.65"/>
      <point x="1239.74" y="1455" type="curve"/>
      <point x="1356.22" y="1493.26"/>
      <point x="1397.14" y="1613"/>
      <point x="1542.31" y="1613" type="curve" smooth="yes"/>
      <point x="1610.35" y="1613"/>
      <point x="1664.22" y="1574.75"/>
      <point x="1664.22" y="1502.72" type="curve" smooth="yes"/>
      <point x="1664.22" y="1298.44"/>
      <point x="1182.53" y="845.697"/>
    </contour>
  </outline>
</glyph>
<glyph name="brokenbar" format="2">
  <advance width="493"/>
  <unicode hex="00A6"/>
  <outline>
    <contour>
      <point x="323.446" y="853" type="curve"/>
      <point x="499.489" y="1724" type="line" smooth="yes"/>
      <point x="506.866" y="1760.5"/>
      <point x="700.867" y="1836.96"/>
      <point x="741.063" y="1872" type="curve"/>
      <point x="565.619" y="1004" type="line" smooth="yes"/>
      <point x="557.128" y="961.989"/>
      <point x="364.733" y="897.232"/>
    </contour>
    <contour>
      <point x="79.4618" y="-343" type="curve"/>
      <point x="255.105" y="526" type="line" smooth="yes"/>
      <point x="262.924" y="564.684"/>
      <point x="458.85" y="635.362"/>
      <point x="499.878" y="675" type="curve"/>
      <point x="326.235" y="-194" type="line" smooth="yes"/>
      <point x="319.364" y="-228.386"/>
      <point x="119.242" y="-308.219"/>
    </contour>
  </outline>
</glyph>
<glyph name="section" format="2">
  <advance width="1295"/>
  <unicode hex="00A7"/>
  <outline>
    <contour>
      <point x="1198.72" y="1550" type="curve"/>
      <point x="1219.22" y="1560.32"/>
      <point x="1246.92" y="1588.52"/>
      <point x="1246.92" y="1613.07" type="curve" smooth="yes"/>
      <point x="1246.92" y="1669.87"/>
      <point x="1001.52" y="1683"/>
      <point x="956.297" y="1683" type="curve" smooth="yes"/>
      <point x="781.195" y="1683"/>
      <point x="652.693" y="1587.4"/>
      <point x="652.693" y="1402.62" type="curve" smooth="yes"/>
      <point x="652.693" y="1333.05"/>
      <point x="678.727" y="1274.36"/>
      <point x="736.577" y="1234" type="curve"/>
      <point x="733.977" y="1236" type="line"/>
      <point x="797.429" y="1183.05"/>
      <point x="913.619" y="1169.27"/>
      <point x="992.992" y="1151" type="curve" smooth="yes"/>
      <point x="1164.32" y="1111.56"/>
      <point x="1374.87" y="1027.46"/>
      <point x="1374.87" y="819.783" type="curve" smooth="yes"/>
      <point x="1374.87" y="703.405"/>
      <point x="1317.39" y="594.217"/>
      <point x="1235.71" y="514" type="curve"/>
      <point x="1272.06" y="474.257"/>
      <point x="1288.92" y="421.092"/>
      <point x="1288.92" y="367.798" type="curve" smooth="yes"/>
      <point x="1288.92" y="48.5491"/>
      <point x="734.403" y="-237"/>
      <point x="455.643" y="-237" type="curve" smooth="yes"/>
      <point x="373.276" y="-237"/>
      <point x="61.6207" y="-219.389"/>
      <point x="61.6207" y="-103.682" type="curve" smooth="yes"/>
      <point x="61.6207" y="-6.1887"/>
      <point x="279.288" y="96.7955"/>
      <point x="355.976" y="135" type="curve"/>
      <point x="331.884" y="113.575"/>
      <point x="303.497" y="80.4996"/>
      <point x="303.497" y="46.2795" type="curve" smooth="yes"/>
      <point x="303.497" y="-61.9926"/>
      <point x="593.091" y="-90"/>
      <point x="672.016" y="-90" type="curve" smooth="yes"/>
      <point x="862.378" y="-90"/>
      <point x="1049.48" y="10.7226"/>
      <point x="1049.48" y="222.781" type="curve" smooth="yes"/>
      <point x="1049.48" y="582.627"/>
      <point x="318.326" y="374.235"/>
      <point x="318.326" y="757.826" type="curve" smooth="yes"/>
      <point x="318.326" y="886.497"/>
      <point x="388.7" y="1002.4"/>
      <point x="485.405" y="1083" type="curve"/>
      <point x="436.75" y="1124.99"/>
      <point x="411.195" y="1188.54"/>
      <point x="411.195" y="1252.23" type="curve" smooth="yes"/>
      <point x="411.195" y="1548.72"/>
      <point x="987.313" y="1834"/>
      <point x="1244.47" y="1834" type="curve" smooth="yes"/>
      <point x="1284.68" y="1834"/>
      <point x="1491.47" y="1816.9"/>
      <point x="1491.47" y="1765.89" type="curve" smooth="yes"/>
      <point x="1491.47" y="1705.43"/>
      <point x="1255.42" y="1571.13"/>
    </contour>
    <contour>
      <point x="578.414" y="1033" type="curve"/>
      <point x="576.526" y="1014.44"/>
      <point x="568.25" y="998.889"/>
      <point x="564.023" y="981" type="curve" smooth="yes"/>
      <point x="558.821" y="958.983"/>
      <point x="556.721" y="934.597"/>
      <point x="556.721" y="911.992" type="curve" smooth="yes"/>
      <point x="556.721" y="646.287"/>
      <point x="937.801" y="640.484"/>
      <point x="1121.9" y="580" type="curve"/>
      <point x="1129.29" y="612.514"/>
      <point x="1137.08" y="641.683"/>
      <point x="1137.08" y="675.729" type="curve" smooth="yes"/>
      <point x="1137.08" y="892.114"/>
      <point x="885.57" y="970.205"/>
      <point x="712.619" y="1004" type="curve" smooth="yes"/>
      <point x="667.738" y="1012.77"/>
      <point x="622.245" y="1019.65"/>
    </contour>
  </outline>
</glyph>
<glyph name="dieresis" format="2">
  <advance width="1197"/>
  <unicode hex="00A8"/>
  <anchor x="1249.78" y="1200" name="_top"/>
  <outline>
    <contour>
      <point x="1688.93" y="1521" type="line"/>
      <point x="1446.55" y="1369" type="line"/>
      <point x="1311.12" y="1527" type="line"/>
      <point x="1552.9" y="1676" type="line"/>
    </contour>
    <contour>
      <point x="1185.93" y="1521" type="line"/>
      <point x="943.553" y="1369" type="line"/>
      <point x="808.125" y="1527" type="line"/>
      <point x="1049.9" y="1676" type="line"/>
    </contour>
  </outline>
</glyph>
<glyph name="copyright" format="2">
  <advance width="1727"/>
  <unicode hex="00A9"/>
  <outline>
    <contour>
      <point x="772.391" y="47" type="curve" smooth="yes"/>
      <point x="466.322" y="47"/>
      <point x="205.47" y="211.67"/>
      <point x="205.47" y="541.875" type="curve" smooth="yes"/>
      <point x="205.47" y="1067.02"/>
      <point x="823.718" y="1534"/>
      <point x="1319.52" y="1534" type="curve" smooth="yes"/>
      <point x="1615.01" y="1534"/>
      <point x="1869.89" y="1336.9"/>
      <point x="1869.89" y="1027.57" type="curve" smooth="yes"/>
      <point x="1869.89" y="544.653"/>
      <point x="1230.32" y="47"/>
    </contour>
    <contour>
      <point x="1062.95" y="1381" type="curve" smooth="yes"/>
      <point x="683.612" y="1381"/>
      <point x="453.981" y="1076.14"/>
      <point x="453.981" y="714.433" type="curve" smooth="yes"/>
      <point x="453.981" y="375.555"/>
      <point x="693.423" y="194"/>
      <point x="1017.76" y="194" type="curve" smooth="yes"/>
      <point x="1377.8" y="194"/>
      <point x="1625.9" y="526.028"/>
      <point x="1625.9" y="867.266" type="curve" smooth="yes"/>
      <point x="1625.9" y="1195.69"/>
      <point x="1375.14" y="1381"/>
    </contour>
    <contour>
      <point x="1487.79" y="1180" type="curve"/>
      <point x="1434.87" y="1130.26"/>
      <point x="1287.78" y="1041.22"/>
      <point x="1220.02" y="1011" type="curve"/>
      <point x="1235.01" y="1031" type="line"/>
      <point x="1213.01" y="1064.31"/>
      <point x="1097.55" y="1067"/>
      <point x="1059.21" y="1067" type="curve" smooth="yes"/>
      <point x="894.814" y="1067"/>
      <point x="797.196" y="940.449"/>
      <point x="797.196" y="782.946" type="curve" smooth="yes"/>
      <point x="797.196" y="614.646"/>
      <point x="929.677" y="528"/>
      <point x="1086.5" y="528" type="curve" smooth="yes"/>
      <point x="1174.57" y="528"/>
      <point x="1261.85" y="550.145"/>
      <point x="1340.69" y="589" type="curve"/>
      <point x="1154.49" y="447.658"/>
      <point x="1063.15" y="374"/>
      <point x="819.732" y="374" type="curve" smooth="yes"/>
      <point x="670.706" y="374"/>
      <point x="554.903" y="469.731"/>
      <point x="554.903" y="623.658" type="curve" smooth="yes"/>
      <point x="554.903" y="933.39"/>
      <point x="1027.77" y="1216"/>
      <point x="1305.98" y="1216" type="curve" smooth="yes"/>
      <point x="1352.67" y="1216"/>
      <point x="1454.41" y="1215.12"/>
    </contour>
  </outline>
</glyph>
<glyph name="guillemetleft" format="2">
  <advance width="1172"/>
  <unicode hex="00AB"/>
  <outline>
    <contour>
      <point x="1336.63" y="929" type="curve"/>
      <point x="1198.66" y="799.024"/>
      <point x="1043.34" y="688.505"/>
      <point x="881.093" y="591" type="curve"/>
      <point x="997.461" y="496.574"/>
      <point x="1111.03" y="397.296"/>
      <point x="1207.35" y="282" type="curve"/>
      <point x="1123.24" y="247.953"/>
      <point x="1038.66" y="184.233"/>
      <point x="963.576" y="133" type="curve"/>
      <point x="854.878" y="243.916"/>
      <point x="744.256" y="353.544"/>
      <point x="623.119" y="451" type="curve"/>
      <point x="847.493" y="593" type="line" smooth="yes"/>
      <point x="937.038" y="649.919"/>
      <point x="1017.5" y="719.791"/>
      <point x="1099.26" y="787" type="curve" smooth="yes"/>
      <point x="1171.57" y="846.442"/>
      <point x="1252.89" y="888.284"/>
    </contour>
    <contour>
      <point x="786.633" y="929" type="curve"/>
      <point x="648.203" y="799.529"/>
      <point x="493.372" y="688.525"/>
      <point x="331.093" y="591" type="curve"/>
      <point x="447.062" y="496.087"/>
      <point x="560.465" y="396.783"/>
      <point x="657.349" y="282" type="curve"/>
      <point x="579.177" y="252.735"/>
      <point x="484.253" y="180.626"/>
      <point x="413.576" y="133" type="curve"/>
      <point x="304.878" y="243.916"/>
      <point x="194.256" y="353.544"/>
      <point x="73.1187" y="451" type="curve"/>
      <point x="297.493" y="593" type="line" smooth="yes"/>
      <point x="387.172" y="649.911"/>
      <point x="466.676" y="719.471"/>
      <point x="548.258" y="787" type="curve" smooth="yes"/>
      <point x="620.733" y="846.991"/>
      <point x="702.294" y="888.495"/>
    </contour>
  </outline>
</glyph>
<glyph name="softhyphen" format="2">
  <advance width="642"/>
  <unicode hex="00AD"/>
  <outline>
    <contour>
      <point x="748.278" y="677" type="line"/>
      <point x="680.513" y="661.043"/>
      <point x="566.27" y="528"/>
      <point x="504.505" y="528" type="curve" smooth="yes"/>
      <point x="165.505" y="528" type="line"/>
      <point x="235.518" y="544.258"/>
      <point x="345.685" y="677"/>
      <point x="412.278" y="677" type="curve" smooth="yes"/>
    </contour>
  </outline>
</glyph>
<glyph name="degree" format="2">
  <advance width="567"/>
  <unicode hex="00B0"/>
  <outline>
    <contour>
      <point x="412.615" y="1029" type="curve" smooth="yes"/>
      <point x="329.946" y="1029"/>
      <point x="251.358" y="1076.39"/>
      <point x="251.358" y="1166.68" type="curve" smooth="yes"/>
      <point x="251.358" y="1177.78"/>
      <point x="252.417" y="1189.14"/>
      <point x="254.784" y="1200" type="curve" smooth="yes"/>
      <point x="284.794" y="1337.72"/>
      <point x="584.977" y="1541"/>
      <point x="721.922" y="1541" type="curve" smooth="yes"/>
      <point x="807.666" y="1541"/>
      <point x="876.826" y="1480.02"/>
      <point x="876.826" y="1392.3" type="curve" smooth="yes"/>
      <point x="876.826" y="1380.87"/>
      <point x="875.786" y="1369.18"/>
      <point x="873.355" y="1358" type="curve" smooth="yes"/>
      <point x="844.069" y="1223.27"/>
      <point x="545.818" y="1029"/>
    </contour>
    <contour>
      <point x="512.149" y="1392" type="curve"/>
      <point x="504.408" y="1371.65"/>
      <point x="500.169" y="1345.96"/>
      <point x="500.169" y="1324.18" type="curve" smooth="yes"/>
      <point x="500.169" y="1251.34"/>
      <point x="545.905" y="1187.14"/>
      <point x="619.788" y="1175" type="curve"/>
      <point x="627.203" y="1195.45"/>
      <point x="632.314" y="1222.66"/>
      <point x="632.314" y="1244.36" type="curve" smooth="yes"/>
      <point x="632.314" y="1316.53"/>
      <point x="584.633" y="1379.8"/>
    </contour>
  </outline>
</glyph>
<glyph name="twosuperior" format="2">
  <advance width="827"/>
  <unicode hex="00B2"/>
  <outline>
    <contour>
      <point x="954.664" y="754" type="line"/>
      <point x="885.173" y="732.528"/>
      <point x="769.959" y="605"/>
      <point x="710.891" y="605" type="curve" smooth="yes"/>
      <point x="168.891" y="605" type="line"/>
      <point x="170.659" y="612.895"/>
      <point x="174.238" y="620.06"/>
      <point x="178.287" y="627" type="curve" smooth="yes"/>
      <point x="226.794" y="710.144"/>
      <point x="284.788" y="774.99"/>
      <point x="360.545" y="834.266" type="curve" smooth="yes"/>
      <point x="420.588" y="881.247"/>
      <point x="486.012" y="920.592"/>
      <point x="551.607" y="959.193" type="curve" smooth="yes"/>
      <point x="668.588" y="1028.03"/>
      <point x="820.183" y="1103.41"/>
      <point x="852.375" y="1248" type="curve" smooth="yes"/>
      <point x="855.368" y="1261.44"/>
      <point x="856.663" y="1275.61"/>
      <point x="856.663" y="1289.37" type="curve" smooth="yes"/>
      <point x="856.663" y="1410.22"/>
      <point x="740.639" y="1460"/>
      <point x="635.737" y="1460" type="curve" smooth="yes"/>
      <point x="625.394" y="1460"/>
      <point x="615.186" y="1459.78"/>
      <point x="605.137" y="1457" type="curve"/>
      <point x="584.023" y="1420.44"/>
      <point x="569.78" y="1382.92"/>
      <point x="569.78" y="1340.3" type="curve" smooth="yes"/>
      <point x="569.78" y="1318.37"/>
      <point x="572.921" y="1296.35"/>
      <point x="577.77" y="1275" type="curve"/>
      <point x="554.853" y="1242.47"/>
      <point x="380.233" y="1152.65"/>
      <point x="334.397" y="1128" type="curve"/>
      <point x="327.871" y="1146.49"/>
      <point x="324.607" y="1166.06"/>
      <point x="324.607" y="1185.66" type="curve" smooth="yes"/>
      <point x="324.607" y="1377.74"/>
      <point x="694.907" y="1609"/>
      <point x="868.51" y="1609" type="curve" smooth="yes"/>
      <point x="977.726" y="1609"/>
      <point x="1098.37" y="1571.44"/>
      <point x="1098.37" y="1441.45" type="curve" smooth="yes"/>
      <point x="1098.37" y="1106.12"/>
      <point x="453.947" y="964.039"/>
      <point x="410.664" y="754" type="curve"/>
    </contour>
  </outline>
</glyph>
<glyph name="threesuperior" format="2">
  <advance width="827"/>
  <unicode hex="00B3"/>
  <outline>
    <contour>
      <point x="1135.91" y="1586" type="line"/>
      <point x="1015.42" y="1450.46"/>
      <point x="866.486" y="1344.78"/>
      <point x="718.976" y="1241" type="curve"/>
      <point x="844.689" y="1235.74"/>
      <point x="1037.49" y="1221.81"/>
      <point x="1037.49" y="1054.05" type="curve" smooth="yes"/>
      <point x="1037.49" y="1035.67"/>
      <point x="1035.48" y="1016.97"/>
      <point x="1031.62" y="999" type="curve" smooth="yes"/>
      <point x="986.823" y="790.259"/>
      <point x="579.778" y="591"/>
      <point x="382.094" y="591" type="curve" smooth="yes"/>
      <point x="334.629" y="591"/>
      <point x="147.108" y="600.591"/>
      <point x="147.108" y="667.444" type="curve" smooth="yes"/>
      <point x="147.108" y="727.256"/>
      <point x="367.797" y="820.412"/>
      <point x="418.846" y="855" type="curve"/>
      <point x="401.24" y="846.937"/>
      <point x="389.802" y="826.676"/>
      <point x="389.802" y="807.538" type="curve" smooth="yes"/>
      <point x="389.802" y="754.924"/>
      <point x="582.511" y="742"/>
      <point x="622.266" y="742" type="curve" smooth="yes"/>
      <point x="667.437" y="742"/>
      <point x="712.299" y="749.056"/>
      <point x="756.463" y="758" type="curve"/>
      <point x="781.673" y="799.684"/>
      <point x="795.037" y="855.089"/>
      <point x="795.037" y="903.585" type="curve" smooth="yes"/>
      <point x="795.037" y="1077.31"/>
      <point x="600.679" y="1087.85"/>
      <point x="470.803" y="1090" type="curve"/>
      <point x="619.904" y="1193.37"/>
      <point x="758.39" y="1311.4"/>
      <point x="889.141" y="1437" type="curve"/>
      <point x="391.141" y="1437" type="line"/>
      <point x="430" y="1464.04"/>
      <point x="600.152" y="1586"/>
      <point x="634.913" y="1586" type="curve" smooth="yes"/>
    </contour>
  </outline>
</glyph>
<glyph name="acute" format="2">
  <advance width="1197"/>
  <unicode hex="00B4"/>
  <anchor x="898.784" y="1200" name="_top"/>
  <outline>
    <contour>
      <point x="1382.06" y="1877" type="curve"/>
      <point x="1223.14" y="1701.32"/>
      <point x="964.461" y="1472.79"/>
      <point x="749.552" y="1374" type="curve"/>
      <point x="752.15" y="1387" type="line"/>
      <point x="868.146" y="1453.53"/>
      <point x="969.564" y="1548.02"/>
      <point x="1060.7" y="1645" type="curve" smooth="yes"/>
      <point x="1088.79" y="1674.89"/>
      <point x="1114.46" y="1707.22"/>
      <point x="1144.69" y="1735" type="curve" smooth="yes"/>
      <point x="1207.07" y="1792.34"/>
      <point x="1306.88" y="1836.51"/>
    </contour>
  </outline>
</glyph>
<glyph name="micro" format="2">
  <advance width="1378"/>
  <unicode hex="00B5"/>
  <outline>
    <contour>
      <point x="1404.17" y="151" type="curve"/>
      <point x="1259.04" y="102.336"/>
      <point x="1247.77" y="-18"/>
      <point x="1054.4" y="-18" type="curve" smooth="yes"/>
      <point x="988.288" y="-18"/>
      <point x="960.593" y="17.2066"/>
      <point x="960.593" y="80.5506" type="curve" smooth="yes"/>
      <point x="960.593" y="109.616"/>
      <point x="965.633" y="138.598"/>
      <point x="971.37" y="167" type="curve"/>
      <point x="877.471" y="81.5844"/>
      <point x="749.87" y="-14"/>
      <point x="617.202" y="-14" type="curve" smooth="yes"/>
      <point x="570.233" y="-14"/>
      <point x="524.466" y="1.27113"/>
      <point x="485.395" y="27" type="curve"/>
      <point x="382.688" y="-487" type="line" smooth="yes"/>
      <point x="374.314" y="-528.908"/>
      <point x="173.562" y="-591.009"/>
      <point x="136.915" y="-636" type="curve"/>
      <point x="415.867" y="740" type="line" smooth="yes"/>
      <point x="421.129" y="765.958"/>
      <point x="425.047" y="792.495"/>
      <point x="425.047" y="819.035" type="curve" smooth="yes"/>
      <point x="425.047" y="887.332"/>
      <point x="396.038" y="929"/>
      <point x="323.632" y="929" type="curve" smooth="yes"/>
      <point x="295.92" y="929"/>
      <point x="267.98" y="923.225"/>
      <point x="243.036" y="911" type="curve"/>
      <point x="335.107" y="983.126"/>
      <point x="454.298" y="1081"/>
      <point x="577.005" y="1081" type="curve" smooth="yes"/>
      <point x="649.996" y="1081"/>
      <point x="672.862" y="1032.16"/>
      <point x="672.862" y="966.678" type="curve" smooth="yes"/>
      <point x="672.862" y="905.305"/>
      <point x="656.037" y="844.747"/>
      <point x="643.858" y="785" type="curve" smooth="yes"/>
      <point x="618.554" y="660.859"/>
      <point x="556.759" y="449.847"/>
      <point x="556.759" y="333.29" type="curve" smooth="yes"/>
      <point x="556.759" y="187.526"/>
      <point x="642.673" y="140"/>
      <point x="778.975" y="140" type="curve" smooth="yes"/>
      <point x="866.013" y="140"/>
      <point x="919.77" y="154.795"/>
      <point x="980.16" y="221" type="curve"/>
      <point x="1097.66" y="799" type="line" smooth="yes"/>
      <point x="1100.67" y="813.841"/>
      <point x="1102.39" y="829.081"/>
      <point x="1102.39" y="844.234" type="curve" smooth="yes"/>
      <point x="1102.39" y="883.346"/>
      <point x="1089.68" y="923"/>
      <point x="1043.43" y="923" type="curve" smooth="yes"/>
      <point x="1025.64" y="923"/>
      <point x="1008.33" y="917.753"/>
      <point x="992.036" y="911" type="curve"/>
      <point x="1057.68" y="963.376"/>
      <point x="1196.82" y="1072"/>
      <point x="1281.21" y="1072" type="curve" smooth="yes"/>
      <point x="1334.64" y="1072"/>
      <point x="1347.48" y="1029.11"/>
      <point x="1347.48" y="983.776" type="curve" smooth="yes"/>
      <point x="1347.48" y="920.838"/>
      <point x="1327.17" y="860.062"/>
      <point x="1314.66" y="799" type="curve" smooth="yes"/>
      <point x="1280.06" y="630.211"/>
      <point x="1241.45" y="462.107"/>
      <point x="1208.55" y="293" type="curve" smooth="yes"/>
      <point x="1204.3" y="271.189"/>
      <point x="1200.65" y="249.085"/>
      <point x="1200.65" y="226.798" type="curve" smooth="yes"/>
      <point x="1200.65" y="157.352"/>
      <point x="1240.75" y="135"/>
      <point x="1305.98" y="135" type="curve" smooth="yes"/>
      <point x="1339.28" y="135"/>
      <point x="1372.18" y="142.407"/>
    </contour>
  </outline>
</glyph>
<glyph name="paragraph" format="2">
  <advance width="1295"/>
  <unicode hex="00B6"/>
  <outline>
    <contour>
      <point x="1680.91" y="1586" type="line"/>
      <point x="1644.04" y="1559.42"/>
      <point x="1468.9" y="1437"/>
      <point x="1436.14" y="1437" type="curve" smooth="yes"/>
      <point x="1396.14" y="1437" type="line"/>
      <point x="1115.19" y="41" type="line" smooth="yes"/>
      <point x="1108.65" y="8.5117"/>
      <point x="909.292" y="-75.4184"/>
      <point x="870.419" y="-108" type="curve"/>
      <point x="1034.67" y="704" type="line"/>
      <point x="995.399" y="676.256"/>
      <point x="954.35" y="649.929"/>
      <point x="908.686" y="634" type="curve"/>
      <point x="787.193" y="41" type="line" smooth="yes"/>
      <point x="782.264" y="16.942"/>
      <point x="673.392" y="-37.3588"/>
      <point x="648.009" y="-50" type="curve" smooth="yes"/>
      <point x="612.917" y="-67.4766"/>
      <point x="573.393" y="-82.1531"/>
      <point x="543.419" y="-108" type="curve"/>
      <point x="683.295" y="582" type="line"/>
      <point x="661.483" y="581.706"/>
      <point x="639.709" y="580"/>
      <point x="617.895" y="580" type="curve" smooth="yes"/>
      <point x="402.233" y="580"/>
      <point x="171.838" y="698.341"/>
      <point x="171.838" y="940.507" type="curve" smooth="yes"/>
      <point x="171.838" y="1246.8"/>
      <point x="527.34" y="1495.62"/>
      <point x="794.918" y="1566" type="curve" smooth="yes"/>
      <point x="861.454" y="1583.5"/>
      <point x="930.478" y="1586"/>
      <point x="998.914" y="1586" type="curve" smooth="yes"/>
    </contour>
    <contour>
      <point x="1184.14" y="1437" type="line"/>
      <point x="1069.14" y="1437" type="line"/>
      <point x="928.468" y="733" type="line"/>
      <point x="967.474" y="735.04"/>
      <point x="1006.12" y="741.959"/>
      <point x="1044.06" y="751" type="curve"/>
    </contour>
    <contour>
      <point x="857.141" y="1437" type="line"/>
      <point x="831.598" y="1437.3"/>
      <point x="806.085" y="1439"/>
      <point x="780.541" y="1439" type="curve" smooth="yes"/>
      <point x="549.674" y="1439"/>
      <point x="411.875" y="1344.82"/>
      <point x="411.875" y="1098.97" type="curve" smooth="yes"/>
      <point x="411.875" y="912.637"/>
      <point x="515.092" y="748.919"/>
      <point x="716.665" y="749" type="curve"/>
    </contour>
  </outline>
</glyph>
<glyph name="ordmasculine" format="2">
  <advance width="987"/>
  <unicode hex="00BA"/>
  <outline>
    <contour>
      <point x="630.249" y="837" type="curve" smooth="yes"/>
      <point x="492.866" y="837"/>
      <point x="362.035" y="922.168"/>
      <point x="362.035" y="1070.46" type="curve" smooth="yes"/>
      <point x="362.035" y="1324.14"/>
      <point x="752.015" y="1606"/>
      <point x="988.91" y="1606" type="curve" smooth="yes"/>
      <point x="1128.14" y="1606"/>
      <point x="1252.47" y="1502.9"/>
      <point x="1252.47" y="1358.71" type="curve" smooth="yes"/>
      <point x="1252.47" y="1112.45"/>
      <point x="858.363" y="837"/>
    </contour>
    <contour>
      <point x="1074.48" y="668" type="line"/>
      <point x="1002.84" y="646.71"/>
      <point x="895.515" y="517"/>
      <point x="830.307" y="517" type="curve" smooth="yes"/>
      <point x="200.307" y="517" type="line"/>
      <point x="238.21" y="544.614"/>
      <point x="410.672" y="668"/>
      <point x="445.48" y="668" type="curve" smooth="yes"/>
    </contour>
    <contour>
      <point x="747.737" y="1460" type="curve" smooth="yes"/>
      <point x="643.064" y="1460"/>
      <point x="611.807" y="1321.39"/>
      <point x="611.807" y="1239.04" type="curve" smooth="yes"/>
      <point x="611.807" y="1084.55"/>
      <point x="714.061" y="981"/>
      <point x="869.023" y="981" type="curve" smooth="yes"/>
      <point x="970.858" y="981"/>
      <point x="1003.17" y="1122.91"/>
      <point x="1003.17" y="1202.29" type="curve" smooth="yes"/>
      <point x="1003.17" y="1355.04"/>
      <point x="901.418" y="1460"/>
    </contour>
  </outline>
</glyph>
<glyph name="guillemetright" format="2">
  <advance width="1172"/>
  <unicode hex="00BB"/>
  <outline>
    <contour>
      <point x="616.576" y="133" type="curve"/>
      <point x="755.649" y="262.242"/>
      <point x="911.953" y="371.798"/>
      <point x="1074.72" y="469" type="curve"/>
      <point x="957.789" y="563.84"/>
      <point x="842.851" y="662.668"/>
      <point x="745.46" y="778" type="curve"/>
      <point x="833.9" y="814.245"/>
      <point x="911.657" y="876.193"/>
      <point x="990.633" y="929" type="curve"/>
      <point x="1100.52" y="818.062"/>
      <point x="1211.25" y="707.434"/>
      <point x="1332.69" y="609" type="curve"/>
      <point x="1105.32" y="467" type="line" smooth="yes"/>
      <point x="1000.87" y="401.632"/>
      <point x="912.36" y="319.739"/>
      <point x="813.093" y="248.023" type="curve" smooth="yes"/>
      <point x="751.382" y="203.441"/>
      <point x="685.307" y="165.652"/>
    </contour>
    <contour>
      <point x="66.576" y="133" type="curve"/>
      <point x="205.439" y="262.057"/>
      <point x="361.466" y="371.496"/>
      <point x="523.715" y="469" type="curve"/>
      <point x="407.423" y="564.167"/>
      <point x="292.101" y="662.333"/>
      <point x="195.46" y="778" type="curve"/>
      <point x="283.338" y="815.292"/>
      <point x="361.153" y="875.57"/>
      <point x="439.633" y="929" type="curve"/>
      <point x="549.525" y="818.072"/>
      <point x="660.236" y="707.423"/>
      <point x="781.69" y="609" type="curve"/>
      <point x="552.316" y="467" type="line" smooth="yes"/>
      <point x="463.098" y="411.56"/>
      <point x="385.75" y="341.433"/>
      <point x="304.95" y="275" type="curve" smooth="yes"/>
      <point x="232.687" y="215.585"/>
      <point x="149.856" y="174.39"/>
    </contour>
  </outline>
</glyph>
<glyph name="onehalf" format="2">
  <advance width="1752"/>
  <unicode hex="00BD"/>
  <outline>
    <contour>
      <point x="1797.77" y="149" type="line"/>
      <point x="1730.01" y="133.043"/>
      <point x="1615.77" y="0"/>
      <point x="1554" y="0" type="curve" smooth="yes"/>
      <point x="1012" y="0" type="line"/>
      <point x="1071.82" y="295.675"/>
      <point x="1700.47" y="395.726"/>
      <point x="1700.47" y="688.64" type="curve" smooth="yes"/>
      <point x="1700.47" y="821.534"/>
      <point x="1559.13" y="855.094"/>
      <point x="1451.85" y="855" type="curve"/>
      <point x="1426.66" y="816.13"/>
      <point x="1414.43" y="780.444"/>
      <point x="1414.43" y="734.215" type="curve" smooth="yes"/>
      <point x="1414.43" y="713.423"/>
      <point x="1416.57" y="692.592"/>
      <point x="1419.28" y="672" type="curve"/>
      <point x="1395.57" y="639.791"/>
      <point x="1221.38" y="547.705"/>
      <point x="1175.51" y="523" type="curve"/>
      <point x="1171.59" y="541.707"/>
      <point x="1169.35" y="560.858"/>
      <point x="1169.35" y="579.984" type="curve" smooth="yes"/>
      <point x="1169.35" y="594.337"/>
      <point x="1170.5" y="608.94"/>
      <point x="1173.49" y="623" type="curve" smooth="yes"/>
      <point x="1210.17" y="795.643"/>
      <point x="1542.37" y="1004"/>
      <point x="1711.62" y="1004" type="curve" smooth="yes"/>
      <point x="1819.37" y="1004"/>
      <point x="1939.9" y="966.221"/>
      <point x="1939.9" y="837.879" type="curve" smooth="yes"/>
      <point x="1939.9" y="504.531"/>
      <point x="1295.49" y="361.411"/>
      <point x="1251.77" y="149" type="curve"/>
    </contour>
    <contour>
      <point x="1693.27" y="1803" type="curve"/>
      <point x="1546.94" y="1438.82"/>
      <point x="1323.93" y="1112.23"/>
      <point x="1090.66" y="799" type="curve" smooth="yes"/>
      <point x="918.857" y="568.32"/>
      <point x="739.821" y="339.112"/>
      <point x="543.858" y="128.402" type="curve" smooth="yes"/>
      <point x="479.146" y="58.8205"/>
      <point x="409.057" y="-17.5924"/>
      <point x="330.613" y="-72" type="curve" smooth="yes"/>
      <point x="254.784" y="-124.594"/>
      <point x="168.816" y="-159.289"/>
      <point x="94.2385" y="-214" type="curve"/>
      <point x="584.928" y="263.569"/>
      <point x="1164.09" y="978.515"/>
      <point x="1428.91" y="1611" type="curve" smooth="yes"/>
      <point x="1431.6" y="1617.42"/>
      <point x="1443.17" y="1650.58"/>
      <point x="1446.5" y="1654" type="curve" smooth="yes"/>
      <point x="1511.93" y="1721.25"/>
      <point x="1613.13" y="1755.82"/>
    </contour>
    <contour>
      <point x="802.06" y="776" type="line"/>
      <point x="730.381" y="757.277"/>
      <point x="625.958" y="627"/>
      <point x="558.287" y="627" type="curve" smooth="yes"/>
      <point x="215.287" y="627" type="line"/>
      <point x="282.892" y="701.519"/>
      <point x="328.649" y="743.548"/>
      <point x="351.048" y="846" type="curve" smooth="yes"/>
      <point x="396.289" y="1052.94"/>
      <point x="432.349" y="1262.87"/>
      <point x="471.935" y="1471" type="curve"/>
      <point x="404.849" y="1428.14"/>
      <point x="340.878" y="1379.4"/>
      <point x="268.757" y="1345" type="curve"/>
      <point x="269.604" y="1349.23"/>
      <point x="270.082" y="1353.88"/>
      <point x="271.355" y="1358" type="curve" smooth="yes"/>
      <point x="280.385" y="1387.25"/>
      <point x="659.389" y="1584.72"/>
      <point x="716.709" y="1615" type="curve"/>
      <point x="584.228" y="952" type="line" smooth="yes"/>
      <point x="571.093" y="886.264"/>
      <point x="528.996" y="803.129"/>
      <point x="464.06" y="776" type="curve"/>
    </contour>
  </outline>
</glyph>
<glyph name="threequarters" format="2">
  <advance width="1752"/>
  <unicode hex="00BE"/>
  <outline>
    <contour>
      <point x="1660.76" y="244" type="curve"/>
      <point x="1642.05" y="207.147"/>
      <point x="1614.43" y="175.326"/>
      <point x="1582.77" y="149" type="curve"/>
      <point x="1815.77" y="149" type="line"/>
      <point x="1778.63" y="123.779"/>
      <point x="1601.23" y="0"/>
      <point x="1571" y="0" type="curve" smooth="yes"/>
      <point x="1323" y="0" type="line"/>
      <point x="1412.65" y="43.3702"/>
      <point x="1428.93" y="132.752"/>
      <point x="1446.16" y="221" type="curve"/>
      <point x="864.56" y="223" type="line"/>
      <point x="912.151" y="244.497"/>
      <point x="985.342" y="301.055"/>
      <point x="1028.74" y="334" type="curve" smooth="yes"/>
      <point x="1230.49" y="487.159"/>
      <point x="1399.39" y="658.007"/>
      <point x="1573.05" y="841" type="curve" smooth="yes"/>
      <point x="1626.82" y="897.662"/>
      <point x="1745.31" y="953.06"/>
      <point x="1816.82" y="990" type="curve"/>
      <point x="1691.33" y="372" type="line"/>
      <point x="1715.33" y="372" type="line" smooth="yes"/>
      <point x="1822.78" y="372"/>
      <point x="1878.64" y="378.893"/>
      <point x="1977.12" y="426" type="curve"/>
      <point x="1901.38" y="357.342"/>
      <point x="1758.91" y="272.604"/>
    </contour>
    <contour>
      <point x="1755.27" y="1803" type="curve"/>
      <point x="1608.79" y="1438.41"/>
      <point x="1388.75" y="1111.53"/>
      <point x="1153.66" y="799" type="curve" smooth="yes"/>
      <point x="992.773" y="585.123"/>
      <point x="827.746" y="372.931"/>
      <point x="647.724" y="174.704" type="curve" smooth="yes"/>
      <point x="569.183" y="88.2195"/>
      <point x="485.521" y="-3.0902"/>
      <point x="390.613" y="-72" type="curve" smooth="yes"/>
      <point x="315.874" y="-126.265"/>
      <point x="231.015" y="-161.649"/>
      <point x="155.239" y="-214" type="curve"/>
      <point x="635.433" y="249.777"/>
      <point x="1239.96" y="992.842"/>
      <point x="1491.91" y="1611" type="curve" smooth="yes"/>
      <point x="1496.06" y="1621.17"/>
      <point x="1502.38" y="1647.06"/>
      <point x="1509.5" y="1654" type="curve" smooth="yes"/>
      <point x="1580.63" y="1723.31"/>
      <point x="1673.63" y="1749.91"/>
    </contour>
    <contour>
      <point x="1039.91" y="1586" type="line"/>
      <point x="920.142" y="1450.14"/>
      <point x="770.901" y="1345.07"/>
      <point x="623.976" y="1241" type="curve"/>
      <point x="749.654" y="1235.71"/>
      <point x="942.47" y="1221.49"/>
      <point x="942.47" y="1053.84" type="curve" smooth="yes"/>
      <point x="942.47" y="1035.53"/>
      <point x="940.466" y="1016.9"/>
      <point x="936.62" y="999" type="curve" smooth="yes"/>
      <point x="892.456" y="793.518"/>
      <point x="480.967" y="591"/>
      <point x="286.093" y="591" type="curve" smooth="yes"/>
      <point x="238.666" y="591"/>
      <point x="52.1044" y="600.577"/>
      <point x="52.1044" y="667.408" type="curve" smooth="yes"/>
      <point x="52.1044" y="727.248"/>
      <point x="271.843" y="820.435"/>
      <point x="322.846" y="855" type="curve"/>
      <point x="305.24" y="846.937"/>
      <point x="293.802" y="826.676"/>
      <point x="293.802" y="807.538" type="curve" smooth="yes"/>
      <point x="293.802" y="754.924"/>
      <point x="486.511" y="742"/>
      <point x="526.266" y="742" type="curve" smooth="yes"/>
      <point x="571.437" y="742"/>
      <point x="616.299" y="749.056"/>
      <point x="660.463" y="758" type="curve"/>
      <point x="686.156" y="800.628"/>
      <point x="700.2" y="853.831"/>
      <point x="700.2" y="903.537" type="curve" smooth="yes"/>
      <point x="700.2" y="1076.25"/>
      <point x="503.79" y="1087.81"/>
      <point x="374.804" y="1090" type="curve"/>
      <point x="524.456" y="1193.06"/>
      <point x="663.198" y="1311.22"/>
      <point x="794.141" y="1437" type="curve"/>
      <point x="295.141" y="1437" type="line"/>
      <point x="333.462" y="1463.66"/>
      <point x="505.095" y="1586"/>
      <point x="538.914" y="1586" type="curve" smooth="yes"/>
    </contour>
    <contour>
      <point x="1545.67" y="704" type="line"/>
      <point x="1410.94" y="582.586"/>
      <point x="1266.52" y="472.126"/>
      <point x="1115.33" y="372" type="curve"/>
      <point x="1479.33" y="372" type="line"/>
    </contour>
  </outline>
</glyph>
<glyph name="Eth" format="2">
  <advance width="1990"/>
  <unicode hex="00D0"/>
  <outline>
    <contour>
      <point x="612" y="0" type="line"/>
      <point x="693.731" y="85.1738"/>
      <point x="697.802" y="203.102"/>
      <point x="698" y="314" type="curve" smooth="yes"/>
      <point x="700" y="1435" type="line"/>
      <point x="456" y="1435" type="line"/>
      <point x="505.83" y="1464.08"/>
      <point x="627.862" y="1586"/>
      <point x="673" y="1586" type="curve" smooth="yes"/>
      <point x="1163" y="1586" type="line" smooth="yes"/>
      <point x="1625.94" y="1586"/>
      <point x="2031" y="1373.14"/>
      <point x="2031" y="860" type="curve" smooth="yes"/>
      <point x="2031" y="305.73"/>
      <point x="1460.71" y="0"/>
      <point x="966" y="0" type="curve" smooth="yes"/>
    </contour>
    <contour>
      <point x="840" y="147" type="curve"/>
      <point x="1208" y="147" type="line" smooth="yes"/>
      <point x="1566.09" y="147"/>
      <point x="1821" y="309.285"/>
      <point x="1821" y="693" type="curve" smooth="yes"/>
      <point x="1821" y="1283.86"/>
      <point x="1437.26" y="1435.46"/>
      <point x="914" y="1435" type="curve"/>
      <point x="912" y="374" type="line" smooth="yes"/>
      <point x="911.823" y="280.258"/>
      <point x="900.204" y="221.855"/>
    </contour>
    <contour>
      <point x="1367.38" y="779" type="line"/>
      <point x="1310.09" y="764.992"/>
      <point x="1210.57" y="630"/>
      <point x="1153.38" y="630" type="curve" smooth="yes"/>
      <point x="356.382" y="630" type="line"/>
      <point x="413.629" y="643.801"/>
      <point x="513.067" y="779"/>
      <point x="573.382" y="779" type="curve" smooth="yes"/>
    </contour>
  </outline>
</glyph>
<glyph name="Oslash" format="2">
  <advance width="1604"/>
  <unicode hex="00D8"/>
  <anchor x="676" y="0" name="bottom"/>
  <anchor x="1248.54" y="1434" name="top"/>
  <outline>
    <component base="O" xOffset="40"/>
    <contour>
      <point x="1634.48" y="1789" type="curve"/>
      <point x="1566.28" y="1743.4"/>
      <point x="1448.1" y="1701.95"/>
      <point x="1396.49" y="1645.42" type="curve" smooth="yes"/>
      <point x="1384.9" y="1632.72"/>
      <point x="1381.34" y="1623.18"/>
      <point x="1372.58" y="1608.38" type="curve" smooth="yes"/>
      <point x="987.227" y="957" type="line" smooth="yes"/>
      <point x="750.632" y="557.564"/>
      <point x="461.229" y="188.062"/>
      <point x="174.832" y="-176" type="curve"/>
      <point x="193.728" y="-161.656"/>
      <point x="204.9" y="-154.146"/>
      <point x="225.316" y="-142.063" type="curve" smooth="yes"/>
      <point x="254.497" y="-124.793"/>
      <point x="368.134" y="-74.3167"/>
      <point x="385.81" y="-56" type="curve" smooth="yes"/>
      <point x="407.295" y="-33.736"/>
      <point x="416.995" y="-18.9933"/>
      <point x="436.932" y="4.66667" type="curve" smooth="yes"/>
      <point x="539.177" y="126" type="line" smooth="yes"/>
      <point x="601.574" y="200.843"/>
      <point x="660.09" y="280.329"/>
      <point x="718.53" y="358.313" type="curve" smooth="yes"/>
      <point x="863.643" y="551.951"/>
      <point x="1001.54" y="750.894"/>
      <point x="1133.9" y="953.442" type="curve" smooth="yes"/>
      <point x="1220.16" y="1085.44"/>
      <point x="1304.16" y="1218.91"/>
      <point x="1386.59" y="1353.33" type="curve" smooth="yes"/>
      <point x="1420.14" y="1408.04"/>
      <point x="1455.98" y="1462.87"/>
      <point x="1487.12" y="1518.93" type="curve" smooth="yes"/>
      <point x="1536.91" y="1608.55"/>
      <point x="1585.37" y="1699"/>
    </contour>
  </outline>
</glyph>
